%TF.GenerationSoftware,KiCad,Pcbnew,8.0.9*%
%TF.CreationDate,2025-08-04T10:44:23+12:00*%
%TF.ProjectId,xymatics-e64,78796d61-7469-4637-932d-6536342e6b69,rev?*%
%TF.SameCoordinates,Original*%
%TF.FileFunction,Legend,Bot*%
%TF.FilePolarity,Positive*%
%FSLAX46Y46*%
G04 Gerber Fmt 4.6, Leading zero omitted, Abs format (unit mm)*
G04 Created by KiCad (PCBNEW 8.0.9) date 2025-08-04 10:44:23*
%MOMM*%
%LPD*%
G01*
G04 APERTURE LIST*
%ADD10C,0.120000*%
%ADD11C,0.127000*%
%ADD12C,0.200000*%
G04 APERTURE END LIST*
D10*
%TO.C,R64*%
X96972936Y-153865000D02*
X97427064Y-153865000D01*
X96972936Y-155335000D02*
X97427064Y-155335000D01*
%TO.C,Y3*%
X85400000Y-150700000D02*
X85400000Y-149900000D01*
X87200000Y-148500000D02*
X89000000Y-148500000D01*
X89000000Y-152100000D02*
X87200000Y-152100000D01*
X89000000Y-152340000D02*
X89000000Y-152100000D01*
X90800000Y-149900000D02*
X90800000Y-150700000D01*
X90800000Y-150700000D02*
X91200000Y-150700000D01*
%TO.C,C69*%
X94265000Y-179288748D02*
X94265000Y-179811252D01*
X95735000Y-179288748D02*
X95735000Y-179811252D01*
%TO.C,C72*%
X101211252Y-149965000D02*
X100688748Y-149965000D01*
X101211252Y-151435000D02*
X100688748Y-151435000D01*
%TO.C,R77*%
X101272936Y-155165000D02*
X101727064Y-155165000D01*
X101272936Y-156635000D02*
X101727064Y-156635000D01*
%TO.C,R70*%
X107727064Y-175765000D02*
X107272936Y-175765000D01*
X107727064Y-177235000D02*
X107272936Y-177235000D01*
%TO.C,L3*%
X75700000Y-174800000D02*
X82300000Y-174800000D01*
X75700000Y-176500000D02*
X75700000Y-174800000D01*
X75700000Y-181200000D02*
X75700000Y-179500000D01*
X82300000Y-174800000D02*
X82300000Y-176500000D01*
X82300000Y-179500000D02*
X82300000Y-181200000D01*
X82300000Y-181200000D02*
X75700000Y-181200000D01*
%TO.C,R55*%
X83727064Y-170265000D02*
X83272936Y-170265000D01*
X83727064Y-171735000D02*
X83272936Y-171735000D01*
%TO.C,C76*%
X103188748Y-169765000D02*
X103711252Y-169765000D01*
X103188748Y-171235000D02*
X103711252Y-171235000D01*
%TO.C,C83*%
X107761252Y-163565000D02*
X107238748Y-163565000D01*
X107761252Y-165035000D02*
X107238748Y-165035000D01*
%TO.C,C66*%
X80261252Y-172265000D02*
X79738748Y-172265000D01*
X80261252Y-173735000D02*
X79738748Y-173735000D01*
%TO.C,C59*%
X94861252Y-175365000D02*
X94338748Y-175365000D01*
X94861252Y-176835000D02*
X94338748Y-176835000D01*
%TO.C,C84*%
X107761252Y-161465000D02*
X107238748Y-161465000D01*
X107761252Y-162935000D02*
X107238748Y-162935000D01*
%TO.C,R56*%
X83265000Y-174139564D02*
X83265000Y-173685436D01*
X84735000Y-174139564D02*
X84735000Y-173685436D01*
%TO.C,C73*%
X101211252Y-151965000D02*
X100688748Y-151965000D01*
X101211252Y-153435000D02*
X100688748Y-153435000D01*
%TO.C,C58*%
X82865000Y-153338748D02*
X82865000Y-153861252D01*
X84335000Y-153338748D02*
X84335000Y-153861252D01*
%TO.C,R42*%
X96772936Y-171765000D02*
X97227064Y-171765000D01*
X96772936Y-173235000D02*
X97227064Y-173235000D01*
%TO.C,R63*%
X96972936Y-155865000D02*
X97427064Y-155865000D01*
X96972936Y-157335000D02*
X97427064Y-157335000D01*
%TO.C,C68*%
X86740000Y-169740000D02*
X91195563Y-169740000D01*
X86740000Y-171440000D02*
X86740000Y-169740000D01*
X86740000Y-173560000D02*
X86740000Y-175260000D01*
X86740000Y-175260000D02*
X91195563Y-175260000D01*
X91195563Y-169740000D02*
X92260000Y-170804437D01*
X91195563Y-175260000D02*
X92260000Y-174195563D01*
X92260000Y-171440000D02*
X92260000Y-170804437D01*
X92260000Y-173560000D02*
X92260000Y-174195563D01*
X92500000Y-170815000D02*
X93125000Y-170815000D01*
X92812500Y-171127500D02*
X92812500Y-170502500D01*
%TO.C,U23*%
X77940000Y-167200000D02*
X77940000Y-168000000D01*
X77940000Y-168800000D02*
X77940000Y-168000000D01*
X81060000Y-167200000D02*
X81060000Y-168000000D01*
X81060000Y-168800000D02*
X81060000Y-168000000D01*
X77990000Y-166700000D02*
X77660000Y-166940000D01*
X77660000Y-166460000D01*
X77990000Y-166700000D01*
G36*
X77990000Y-166700000D02*
G01*
X77660000Y-166940000D01*
X77660000Y-166460000D01*
X77990000Y-166700000D01*
G37*
%TO.C,C62*%
X75740000Y-158240000D02*
X75740000Y-162695563D01*
X75740000Y-162695563D02*
X76804437Y-163760000D01*
X77440000Y-158240000D02*
X75740000Y-158240000D01*
X77440000Y-163760000D02*
X76804437Y-163760000D01*
X79560000Y-158240000D02*
X81260000Y-158240000D01*
X79560000Y-163760000D02*
X80195563Y-163760000D01*
X79872500Y-164312500D02*
X80497500Y-164312500D01*
X80185000Y-164000000D02*
X80185000Y-164625000D01*
X81260000Y-158240000D02*
X81260000Y-162695563D01*
X81260000Y-162695563D02*
X80195563Y-163760000D01*
%TO.C,R54*%
X83272936Y-167765000D02*
X83727064Y-167765000D01*
X83272936Y-169235000D02*
X83727064Y-169235000D01*
%TO.C,C77*%
X112261252Y-180265000D02*
X111738748Y-180265000D01*
X112261252Y-181735000D02*
X111738748Y-181735000D01*
%TO.C,R69*%
X107272936Y-173815000D02*
X107727064Y-173815000D01*
X107272936Y-175285000D02*
X107727064Y-175285000D01*
%TO.C,C67*%
X86740000Y-175740000D02*
X91195563Y-175740000D01*
X86740000Y-177440000D02*
X86740000Y-175740000D01*
X86740000Y-179560000D02*
X86740000Y-181260000D01*
X86740000Y-181260000D02*
X91195563Y-181260000D01*
X91195563Y-175740000D02*
X92260000Y-176804437D01*
X91195563Y-181260000D02*
X92260000Y-180195563D01*
X92260000Y-177440000D02*
X92260000Y-176804437D01*
X92260000Y-179560000D02*
X92260000Y-180195563D01*
X92500000Y-176815000D02*
X93125000Y-176815000D01*
X92812500Y-177127500D02*
X92812500Y-176502500D01*
%TO.C,R67*%
X97460436Y-169165000D02*
X97914564Y-169165000D01*
X97460436Y-170635000D02*
X97914564Y-170635000D01*
%TO.C,Q10*%
X98930000Y-182330000D02*
X105350000Y-182330000D01*
X98930000Y-182600000D02*
X98930000Y-182330000D01*
X98930000Y-188960000D02*
X98930000Y-189230000D01*
X98930000Y-189230000D02*
X105350000Y-189230000D01*
X97540000Y-189390000D02*
X96860000Y-189390000D01*
X97200000Y-188920000D01*
X97540000Y-189390000D01*
G36*
X97540000Y-189390000D02*
G01*
X96860000Y-189390000D01*
X97200000Y-188920000D01*
X97540000Y-189390000D01*
G37*
%TO.C,C57*%
X91438748Y-152965000D02*
X91961252Y-152965000D01*
X91438748Y-154435000D02*
X91961252Y-154435000D01*
%TO.C,C70*%
X88367500Y-187872500D02*
X88367500Y-188497500D01*
X88680000Y-188185000D02*
X88055000Y-188185000D01*
X88920000Y-185440000D02*
X88920000Y-184804437D01*
X88920000Y-187560000D02*
X88920000Y-188195563D01*
X89984437Y-183740000D02*
X88920000Y-184804437D01*
X89984437Y-189260000D02*
X88920000Y-188195563D01*
X94440000Y-183740000D02*
X89984437Y-183740000D01*
X94440000Y-185440000D02*
X94440000Y-183740000D01*
X94440000Y-187560000D02*
X94440000Y-189260000D01*
X94440000Y-189260000D02*
X89984437Y-189260000D01*
%TO.C,R68*%
X84265000Y-164360436D02*
X84265000Y-164814564D01*
X85735000Y-164360436D02*
X85735000Y-164814564D01*
%TO.C,R75*%
X103515000Y-167727064D02*
X103515000Y-167272936D01*
X104985000Y-167727064D02*
X104985000Y-167272936D01*
%TO.C,R57*%
X83265000Y-177185436D02*
X83265000Y-177639564D01*
X84735000Y-177185436D02*
X84735000Y-177639564D01*
%TO.C,U27*%
X102700000Y-173940000D02*
X103500000Y-173940000D01*
X102700000Y-177060000D02*
X103500000Y-177060000D01*
X104300000Y-173940000D02*
X103500000Y-173940000D01*
X104300000Y-177060000D02*
X103500000Y-177060000D01*
X102440000Y-177340000D02*
X101960000Y-177340000D01*
X102200000Y-177010000D01*
X102440000Y-177340000D01*
G36*
X102440000Y-177340000D02*
G01*
X101960000Y-177340000D01*
X102200000Y-177010000D01*
X102440000Y-177340000D01*
G37*
%TO.C,R66*%
X96972936Y-149865000D02*
X97427064Y-149865000D01*
X96972936Y-151335000D02*
X97427064Y-151335000D01*
%TO.C,R65*%
X96972936Y-151865000D02*
X97427064Y-151865000D01*
X96972936Y-153335000D02*
X97427064Y-153335000D01*
%TO.C,L4*%
X107100378Y-167840000D02*
X107899622Y-167840000D01*
X107100378Y-168960000D02*
X107899622Y-168960000D01*
%TO.C,C64*%
X81765000Y-165711252D02*
X81765000Y-165188748D01*
X83235000Y-165711252D02*
X83235000Y-165188748D01*
%TO.C,R79*%
X90372936Y-181665000D02*
X90827064Y-181665000D01*
X90372936Y-183135000D02*
X90827064Y-183135000D01*
%TO.C,U24*%
X78330000Y-182330000D02*
X84750000Y-182330000D01*
X78330000Y-182600000D02*
X78330000Y-182330000D01*
X78330000Y-188960000D02*
X78330000Y-189230000D01*
X78330000Y-189230000D02*
X84750000Y-189230000D01*
X76940000Y-189390000D02*
X76260000Y-189390000D01*
X76600000Y-188920000D01*
X76940000Y-189390000D01*
G36*
X76940000Y-189390000D02*
G01*
X76260000Y-189390000D01*
X76600000Y-188920000D01*
X76940000Y-189390000D01*
G37*
%TO.C,C82*%
X107761252Y-165665000D02*
X107238748Y-165665000D01*
X107761252Y-167135000D02*
X107238748Y-167135000D01*
%TO.C,C63*%
X75765000Y-167761252D02*
X75765000Y-167238748D01*
X77235000Y-167761252D02*
X77235000Y-167238748D01*
D11*
%TO.C,U26*%
X93405000Y-159380000D02*
X93405000Y-158500000D01*
X93405000Y-161500000D02*
X93405000Y-160620000D01*
X98595000Y-159380000D02*
X98595000Y-158500000D01*
X98595000Y-161500000D02*
X98595000Y-160620000D01*
D12*
X94000000Y-157500000D02*
G75*
G02*
X93800000Y-157500000I-100000J0D01*
G01*
X93800000Y-157500000D02*
G75*
G02*
X94000000Y-157500000I100000J0D01*
G01*
D10*
%TO.C,C65*%
X75765000Y-171311252D02*
X75765000Y-170788748D01*
X77235000Y-171311252D02*
X77235000Y-170788748D01*
%TD*%
M02*
