%TF.GenerationSoftware,KiCad,Pcbnew,8.0.9*%
%TF.CreationDate,2025-08-04T10:44:23+12:00*%
%TF.ProjectId,xymatics-e64,78796d61-7469-4637-932d-6536342e6b69,rev?*%
%TF.SameCoordinates,Original*%
%TF.FileFunction,Soldermask,Bot*%
%TF.FilePolarity,Negative*%
%FSLAX46Y46*%
G04 Gerber Fmt 4.6, Leading zero omitted, Abs format (unit mm)*
G04 Created by KiCad (PCBNEW 8.0.9) date 2025-08-04 10:44:23*
%MOMM*%
%LPD*%
G01*
G04 APERTURE LIST*
G04 Aperture macros list*
%AMRoundRect*
0 Rectangle with rounded corners*
0 $1 Rounding radius*
0 $2 $3 $4 $5 $6 $7 $8 $9 X,Y pos of 4 corners*
0 Add a 4 corners polygon primitive as box body*
4,1,4,$2,$3,$4,$5,$6,$7,$8,$9,$2,$3,0*
0 Add four circle primitives for the rounded corners*
1,1,$1+$1,$2,$3*
1,1,$1+$1,$4,$5*
1,1,$1+$1,$6,$7*
1,1,$1+$1,$8,$9*
0 Add four rect primitives between the rounded corners*
20,1,$1+$1,$2,$3,$4,$5,0*
20,1,$1+$1,$4,$5,$6,$7,0*
20,1,$1+$1,$6,$7,$8,$9,0*
20,1,$1+$1,$8,$9,$2,$3,0*%
G04 Aperture macros list end*
%ADD10RoundRect,0.250000X0.600000X0.750000X-0.600000X0.750000X-0.600000X-0.750000X0.600000X-0.750000X0*%
%ADD11O,1.700000X2.000000*%
%ADD12RoundRect,0.102000X-0.754000X0.754000X-0.754000X-0.754000X0.754000X-0.754000X0.754000X0.754000X0*%
%ADD13C,1.712000*%
%ADD14C,1.020000*%
%ADD15RoundRect,0.250001X0.499999X0.499999X-0.499999X0.499999X-0.499999X-0.499999X0.499999X-0.499999X0*%
%ADD16C,1.500000*%
%ADD17R,1.700000X1.700000*%
%ADD18O,1.700000X1.700000*%
%ADD19RoundRect,0.250000X0.725000X-0.600000X0.725000X0.600000X-0.725000X0.600000X-0.725000X-0.600000X0*%
%ADD20O,1.950000X1.700000*%
%ADD21C,6.000000*%
%ADD22RoundRect,0.250000X-0.600000X-0.725000X0.600000X-0.725000X0.600000X0.725000X-0.600000X0.725000X0*%
%ADD23O,1.700000X1.950000*%
%ADD24RoundRect,0.250000X0.600000X0.725000X-0.600000X0.725000X-0.600000X-0.725000X0.600000X-0.725000X0*%
%ADD25C,3.250000*%
%ADD26RoundRect,0.250500X-0.499500X-0.499500X0.499500X-0.499500X0.499500X0.499500X-0.499500X0.499500X0*%
%ADD27C,2.500000*%
%ADD28R,1.500000X1.500000*%
%ADD29C,3.500000*%
%ADD30RoundRect,0.250000X0.750000X-0.600000X0.750000X0.600000X-0.750000X0.600000X-0.750000X-0.600000X0*%
%ADD31O,2.000000X1.700000*%
%ADD32RoundRect,0.102000X-0.685000X0.685000X-0.685000X-0.685000X0.685000X-0.685000X0.685000X0.685000X0*%
%ADD33C,1.574000*%
%ADD34C,3.000000*%
%ADD35RoundRect,0.250001X-0.499999X-0.499999X0.499999X-0.499999X0.499999X0.499999X-0.499999X0.499999X0*%
%ADD36R,1.524000X1.524000*%
%ADD37C,1.524000*%
%ADD38C,6.004000*%
%ADD39RoundRect,0.250000X-0.725000X0.600000X-0.725000X-0.600000X0.725000X-0.600000X0.725000X0.600000X0*%
%ADD40RoundRect,0.250001X-1.149999X1.149999X-1.149999X-1.149999X1.149999X-1.149999X1.149999X1.149999X0*%
%ADD41C,2.800000*%
%ADD42O,1.500000X3.300000*%
%ADD43O,1.500000X2.300000*%
%ADD44O,8.000000X3.800000*%
%ADD45RoundRect,0.250000X0.262500X0.450000X-0.262500X0.450000X-0.262500X-0.450000X0.262500X-0.450000X0*%
%ADD46R,1.800000X1.200000*%
%ADD47RoundRect,0.250000X0.475000X-0.250000X0.475000X0.250000X-0.475000X0.250000X-0.475000X-0.250000X0*%
%ADD48RoundRect,0.250000X-0.250000X-0.475000X0.250000X-0.475000X0.250000X0.475000X-0.250000X0.475000X0*%
%ADD49RoundRect,0.250000X-0.262500X-0.450000X0.262500X-0.450000X0.262500X0.450000X-0.262500X0.450000X0*%
%ADD50R,1.500000X2.400000*%
%ADD51RoundRect,0.250000X0.250000X0.475000X-0.250000X0.475000X-0.250000X-0.475000X0.250000X-0.475000X0*%
%ADD52RoundRect,0.250000X-0.450000X0.262500X-0.450000X-0.262500X0.450000X-0.262500X0.450000X0.262500X0*%
%ADD53RoundRect,0.250000X1.250000X0.550000X-1.250000X0.550000X-1.250000X-0.550000X1.250000X-0.550000X0*%
%ADD54RoundRect,0.150000X-0.150000X0.512500X-0.150000X-0.512500X0.150000X-0.512500X0.150000X0.512500X0*%
%ADD55RoundRect,0.250000X0.550000X-1.250000X0.550000X1.250000X-0.550000X1.250000X-0.550000X-1.250000X0*%
%ADD56RoundRect,0.250000X-0.850000X-0.350000X0.850000X-0.350000X0.850000X0.350000X-0.850000X0.350000X0*%
%ADD57RoundRect,0.249997X-2.950003X-2.650003X2.950003X-2.650003X2.950003X2.650003X-2.950003X2.650003X0*%
%ADD58RoundRect,0.250000X-1.250000X-0.550000X1.250000X-0.550000X1.250000X0.550000X-1.250000X0.550000X0*%
%ADD59RoundRect,0.250000X0.450000X-0.262500X0.450000X0.262500X-0.450000X0.262500X-0.450000X-0.262500X0*%
%ADD60RoundRect,0.150000X-0.512500X-0.150000X0.512500X-0.150000X0.512500X0.150000X-0.512500X0.150000X0*%
%ADD61RoundRect,0.218750X0.218750X0.381250X-0.218750X0.381250X-0.218750X-0.381250X0.218750X-0.381250X0*%
%ADD62RoundRect,0.250000X-0.475000X0.250000X-0.475000X-0.250000X0.475000X-0.250000X0.475000X0.250000X0*%
%ADD63RoundRect,0.102000X-0.275000X0.572500X-0.275000X-0.572500X0.275000X-0.572500X0.275000X0.572500X0*%
%ADD64RoundRect,0.102000X-0.572500X0.275000X-0.572500X-0.275000X0.572500X-0.275000X0.572500X0.275000X0*%
G04 APERTURE END LIST*
D10*
%TO.C,J29*%
X154500000Y-89800000D03*
D11*
X152000000Y-89800000D03*
%TD*%
D12*
%TO.C,U12*%
X104250000Y-35225000D03*
D13*
X101710000Y-35225000D03*
X99170000Y-35225000D03*
X96630000Y-35225000D03*
X94090000Y-35225000D03*
X91550000Y-35225000D03*
X89010000Y-35225000D03*
X86470000Y-35225000D03*
X104250000Y-47925000D03*
X101710000Y-47925000D03*
X99170000Y-47925000D03*
X96630000Y-47925000D03*
X94090000Y-47925000D03*
X91550000Y-47925000D03*
X89010000Y-47925000D03*
X86470000Y-47925000D03*
X86470000Y-42845000D03*
X86470000Y-45385000D03*
%TD*%
D14*
%TO.C,J20*%
X115350000Y-113560000D03*
X106350000Y-113560000D03*
D15*
X112350000Y-117500000D03*
D16*
X109350000Y-117500000D03*
X112350000Y-114500000D03*
X109350000Y-114500000D03*
%TD*%
D10*
%TO.C,J28*%
X154500000Y-82800000D03*
D11*
X152000000Y-82800000D03*
%TD*%
D17*
%TO.C,J9*%
X227125000Y-30925000D03*
D18*
X229665000Y-30925000D03*
X227125000Y-33465000D03*
X229665000Y-33465000D03*
%TD*%
D19*
%TO.C,J44*%
X111475000Y-178750000D03*
D20*
X111475000Y-176250000D03*
X111475000Y-173750000D03*
X111475000Y-171250000D03*
%TD*%
D21*
%TO.C,H2*%
X111500000Y-185560000D03*
%TD*%
D10*
%TO.C,J35*%
X104950000Y-92500000D03*
D11*
X102450000Y-92500000D03*
%TD*%
D17*
%TO.C,J12*%
X134000000Y-87000000D03*
D18*
X134000000Y-89540000D03*
X134000000Y-92080000D03*
X134000000Y-94620000D03*
%TD*%
D12*
%TO.C,U11*%
X83050000Y-35225000D03*
D13*
X80510000Y-35225000D03*
X77970000Y-35225000D03*
X75430000Y-35225000D03*
X72890000Y-35225000D03*
X70350000Y-35225000D03*
X67810000Y-35225000D03*
X65270000Y-35225000D03*
X83050000Y-47925000D03*
X80510000Y-47925000D03*
X77970000Y-47925000D03*
X75430000Y-47925000D03*
X72890000Y-47925000D03*
X70350000Y-47925000D03*
X67810000Y-47925000D03*
X65270000Y-47925000D03*
X65270000Y-42845000D03*
X65270000Y-45385000D03*
%TD*%
D22*
%TO.C,J39*%
X91610000Y-29500000D03*
D23*
X94110000Y-29500000D03*
X96610000Y-29500000D03*
X99110000Y-29500000D03*
%TD*%
D21*
%TO.C,H4*%
X242000000Y-30000000D03*
%TD*%
D12*
%TO.C,U13*%
X125450000Y-35225000D03*
D13*
X122910000Y-35225000D03*
X120370000Y-35225000D03*
X117830000Y-35225000D03*
X115290000Y-35225000D03*
X112750000Y-35225000D03*
X110210000Y-35225000D03*
X107670000Y-35225000D03*
X125450000Y-47925000D03*
X122910000Y-47925000D03*
X120370000Y-47925000D03*
X117830000Y-47925000D03*
X115290000Y-47925000D03*
X112750000Y-47925000D03*
X110210000Y-47925000D03*
X107670000Y-47925000D03*
X107670000Y-42845000D03*
X107670000Y-45385000D03*
%TD*%
D22*
%TO.C,J40*%
X112810000Y-29500000D03*
D23*
X115310000Y-29500000D03*
X117810000Y-29500000D03*
X120310000Y-29500000D03*
%TD*%
D24*
%TO.C,J13*%
X104950000Y-71300000D03*
D23*
X102450000Y-71300000D03*
X99950000Y-71300000D03*
%TD*%
D14*
%TO.C,J18*%
X92550000Y-113560000D03*
X83550000Y-113560000D03*
D15*
X89550000Y-117500000D03*
D16*
X86550000Y-117500000D03*
X89550000Y-114500000D03*
X86550000Y-114500000D03*
%TD*%
D25*
%TO.C,J1*%
X229965000Y-112800000D03*
X241395000Y-112800000D03*
D26*
X231240000Y-106440000D03*
D16*
X232500000Y-103900000D03*
X233780000Y-106440000D03*
X235040000Y-103900000D03*
X236320000Y-106440000D03*
X237580000Y-103900000D03*
X238860000Y-106440000D03*
X240120000Y-103900000D03*
X229055000Y-117700000D03*
X231595000Y-117700000D03*
X239765000Y-117700000D03*
X242305000Y-117700000D03*
D27*
X227935000Y-109750000D03*
X243425000Y-109750000D03*
%TD*%
D28*
%TO.C,J7*%
X232857700Y-95500000D03*
D16*
X232857700Y-93000000D03*
X232857700Y-91000000D03*
X232857700Y-88500000D03*
X230237700Y-95500000D03*
X230237700Y-93000000D03*
X230237700Y-91000000D03*
X230237700Y-88500000D03*
D29*
X235567700Y-98570000D03*
X235567700Y-85430000D03*
X229887700Y-98570000D03*
X229887700Y-85430000D03*
%TD*%
D17*
%TO.C,J10*%
X228800000Y-41660000D03*
D18*
X228800000Y-44200000D03*
X228800000Y-46740000D03*
X228800000Y-49280000D03*
%TD*%
D10*
%TO.C,J25*%
X154500000Y-68800000D03*
D11*
X152000000Y-68800000D03*
%TD*%
D30*
%TO.C,J26*%
X111500000Y-165250000D03*
D31*
X111500000Y-162750000D03*
%TD*%
D22*
%TO.C,J42*%
X134010000Y-29500000D03*
D23*
X136510000Y-29500000D03*
X139010000Y-29500000D03*
X141510000Y-29500000D03*
%TD*%
D14*
%TO.C,J23*%
X149550000Y-113560000D03*
X140550000Y-113560000D03*
D15*
X146550000Y-117500000D03*
D16*
X143550000Y-117500000D03*
X146550000Y-114500000D03*
X143550000Y-114500000D03*
%TD*%
D32*
%TO.C,J11*%
X173800000Y-49480000D03*
D33*
X176340000Y-49480000D03*
X173800000Y-52020000D03*
X176340000Y-52020000D03*
X173800000Y-54560000D03*
X176340000Y-54560000D03*
X173800000Y-57100000D03*
X176340000Y-57100000D03*
X173800000Y-59640000D03*
X176340000Y-59640000D03*
X173800000Y-62180000D03*
X176340000Y-62180000D03*
X173800000Y-64720000D03*
X176340000Y-64720000D03*
X173800000Y-67260000D03*
X176340000Y-67260000D03*
X173800000Y-69800000D03*
X176340000Y-69800000D03*
X173800000Y-72340000D03*
X176340000Y-72340000D03*
X173800000Y-74880000D03*
X176340000Y-74880000D03*
X173800000Y-77420000D03*
X176340000Y-77420000D03*
X173800000Y-79960000D03*
X176340000Y-79960000D03*
X173800000Y-82500000D03*
X176340000Y-82500000D03*
X173800000Y-85040000D03*
X176340000Y-85040000D03*
X173800000Y-87580000D03*
X176340000Y-87580000D03*
X173800000Y-90120000D03*
X176340000Y-90120000D03*
X173800000Y-92660000D03*
X176340000Y-92660000D03*
%TD*%
D34*
%TO.C,J31*%
X88100000Y-154000000D03*
D35*
X86600000Y-158320000D03*
D16*
X89600000Y-158320000D03*
X86600000Y-161320000D03*
X89600000Y-161320000D03*
%TD*%
D30*
%TO.C,J36*%
X111475000Y-154000000D03*
D31*
X111475000Y-151500000D03*
%TD*%
D14*
%TO.C,J24*%
X160950000Y-113560000D03*
X151950000Y-113560000D03*
D15*
X157950000Y-117500000D03*
D16*
X154950000Y-117500000D03*
X157950000Y-114500000D03*
X154950000Y-114500000D03*
%TD*%
D14*
%TO.C,J22*%
X138150000Y-113560000D03*
X129150000Y-113560000D03*
D15*
X135150000Y-117500000D03*
D16*
X132150000Y-117500000D03*
X135150000Y-114500000D03*
X132150000Y-114500000D03*
%TD*%
D24*
%TO.C,J14*%
X104950000Y-78425000D03*
D23*
X102450000Y-78425000D03*
X99950000Y-78425000D03*
%TD*%
D10*
%TO.C,J30*%
X154500000Y-96800000D03*
D11*
X152000000Y-96800000D03*
%TD*%
D36*
%TO.C,U19*%
X187700000Y-38010000D03*
D37*
X187700000Y-35470000D03*
X187700000Y-32930000D03*
X187700000Y-30390000D03*
%TD*%
D12*
%TO.C,U14*%
X146650000Y-35225000D03*
D13*
X144110000Y-35225000D03*
X141570000Y-35225000D03*
X139030000Y-35225000D03*
X136490000Y-35225000D03*
X133950000Y-35225000D03*
X131410000Y-35225000D03*
X128870000Y-35225000D03*
X146650000Y-47925000D03*
X144110000Y-47925000D03*
X141570000Y-47925000D03*
X139030000Y-47925000D03*
X136490000Y-47925000D03*
X133950000Y-47925000D03*
X131410000Y-47925000D03*
X128870000Y-47925000D03*
X128870000Y-42845000D03*
X128870000Y-45385000D03*
%TD*%
D14*
%TO.C,J21*%
X126750000Y-113560000D03*
X117750000Y-113560000D03*
D15*
X123750000Y-117500000D03*
D16*
X120750000Y-117500000D03*
X123750000Y-114500000D03*
X120750000Y-114500000D03*
%TD*%
D22*
%TO.C,J38*%
X70410000Y-29500000D03*
D23*
X72910000Y-29500000D03*
X75410000Y-29500000D03*
X77910000Y-29500000D03*
%TD*%
D38*
%TO.C,U1*%
X220562500Y-45900000D03*
X220562500Y-93900000D03*
X187562500Y-45900000D03*
X187562500Y-93900000D03*
%TD*%
D21*
%TO.C,H1*%
X78500000Y-152560000D03*
%TD*%
D12*
%TO.C,U15*%
X167940000Y-35225000D03*
D13*
X165400000Y-35225000D03*
X162860000Y-35225000D03*
X160320000Y-35225000D03*
X157780000Y-35225000D03*
X155240000Y-35225000D03*
X152700000Y-35225000D03*
X150160000Y-35225000D03*
X167940000Y-47925000D03*
X165400000Y-47925000D03*
X162860000Y-47925000D03*
X160320000Y-47925000D03*
X157780000Y-47925000D03*
X155240000Y-47925000D03*
X152700000Y-47925000D03*
X150160000Y-47925000D03*
X150160000Y-42845000D03*
X150160000Y-45385000D03*
%TD*%
D17*
%TO.C,J16*%
X74000000Y-96375000D03*
D18*
X74000000Y-98915000D03*
X74000000Y-101455000D03*
%TD*%
D39*
%TO.C,J8*%
X242750000Y-63650000D03*
D20*
X242750000Y-66150000D03*
X242750000Y-68650000D03*
X242750000Y-71150000D03*
%TD*%
D21*
%TO.C,H5*%
X58750000Y-119750000D03*
%TD*%
D40*
%TO.C,J32*%
X59600000Y-75200000D03*
D41*
X59600000Y-80200000D03*
%TD*%
D42*
%TO.C,J3*%
X223100000Y-114155000D03*
X208600000Y-114155000D03*
D43*
X223100000Y-120115000D03*
X208600000Y-120115000D03*
%TD*%
D14*
%TO.C,J19*%
X103950000Y-113560000D03*
X94950000Y-113560000D03*
D15*
X100950000Y-117500000D03*
D16*
X97950000Y-117500000D03*
X100950000Y-114500000D03*
X97950000Y-114500000D03*
%TD*%
D14*
%TO.C,J17*%
X81150000Y-113560000D03*
X72150000Y-113560000D03*
D15*
X78150000Y-117500000D03*
D16*
X75150000Y-117500000D03*
X78150000Y-114500000D03*
X75150000Y-114500000D03*
%TD*%
D21*
%TO.C,H3*%
X59000000Y-30250000D03*
%TD*%
D22*
%TO.C,J46*%
X155300000Y-29500000D03*
D23*
X157800000Y-29500000D03*
X160300000Y-29500000D03*
X162800000Y-29500000D03*
%TD*%
D24*
%TO.C,J15*%
X104950000Y-85500000D03*
D23*
X102450000Y-85500000D03*
X99950000Y-85500000D03*
%TD*%
D40*
%TO.C,J37*%
X59600000Y-63400000D03*
D41*
X59600000Y-68400000D03*
%TD*%
D10*
%TO.C,J27*%
X154500000Y-75800000D03*
D11*
X152000000Y-75800000D03*
%TD*%
D44*
%TO.C,F1*%
X60900000Y-56400000D03*
X70200000Y-56400000D03*
%TD*%
D45*
%TO.C,R64*%
X98112500Y-154600000D03*
X96287500Y-154600000D03*
%TD*%
D46*
%TO.C,Y3*%
X90100000Y-151500000D03*
X86100000Y-151500000D03*
X86100000Y-149100000D03*
X90100000Y-149100000D03*
%TD*%
D47*
%TO.C,C69*%
X95000000Y-180500000D03*
X95000000Y-178600000D03*
%TD*%
D48*
%TO.C,C72*%
X100000000Y-150700000D03*
X101900000Y-150700000D03*
%TD*%
D45*
%TO.C,R77*%
X102412500Y-155900000D03*
X100587500Y-155900000D03*
%TD*%
D49*
%TO.C,R70*%
X106587500Y-176500000D03*
X108412500Y-176500000D03*
%TD*%
D50*
%TO.C,L3*%
X81750000Y-178000000D03*
X76250000Y-178000000D03*
%TD*%
D49*
%TO.C,R55*%
X82587500Y-171000000D03*
X84412500Y-171000000D03*
%TD*%
D51*
%TO.C,C76*%
X104400000Y-170500000D03*
X102500000Y-170500000D03*
%TD*%
D48*
%TO.C,C83*%
X106550000Y-164300000D03*
X108450000Y-164300000D03*
%TD*%
%TO.C,C66*%
X79050000Y-173000000D03*
X80950000Y-173000000D03*
%TD*%
%TO.C,C59*%
X93650000Y-176100000D03*
X95550000Y-176100000D03*
%TD*%
%TO.C,C84*%
X106550000Y-162200000D03*
X108450000Y-162200000D03*
%TD*%
D52*
%TO.C,R56*%
X84000000Y-173000000D03*
X84000000Y-174825000D03*
%TD*%
D48*
%TO.C,C73*%
X100000000Y-152700000D03*
X101900000Y-152700000D03*
%TD*%
D47*
%TO.C,C58*%
X83600000Y-154550000D03*
X83600000Y-152650000D03*
%TD*%
D45*
%TO.C,R42*%
X97912500Y-172500000D03*
X96087500Y-172500000D03*
%TD*%
%TO.C,R63*%
X98112500Y-156600000D03*
X96287500Y-156600000D03*
%TD*%
D53*
%TO.C,C68*%
X91700000Y-172500000D03*
X87300000Y-172500000D03*
%TD*%
D54*
%TO.C,U23*%
X78550000Y-166862500D03*
X79500000Y-166862500D03*
X80450000Y-166862500D03*
X80450000Y-169137500D03*
X79500000Y-169137500D03*
X78550000Y-169137500D03*
%TD*%
D55*
%TO.C,C62*%
X78500000Y-163200000D03*
X78500000Y-158800000D03*
%TD*%
D45*
%TO.C,R54*%
X84412500Y-168500000D03*
X82587500Y-168500000D03*
%TD*%
D48*
%TO.C,C77*%
X111050000Y-181000000D03*
X112950000Y-181000000D03*
%TD*%
D45*
%TO.C,R69*%
X108412500Y-174550000D03*
X106587500Y-174550000D03*
%TD*%
D53*
%TO.C,C67*%
X91700000Y-178500000D03*
X87300000Y-178500000D03*
%TD*%
D45*
%TO.C,R67*%
X98600000Y-169900000D03*
X96775000Y-169900000D03*
%TD*%
D56*
%TO.C,Q10*%
X97200000Y-188060000D03*
D57*
X103500000Y-185780000D03*
D56*
X97200000Y-183500000D03*
%TD*%
D51*
%TO.C,C57*%
X92650000Y-153700000D03*
X90750000Y-153700000D03*
%TD*%
D58*
%TO.C,C70*%
X89480000Y-186500000D03*
X93880000Y-186500000D03*
%TD*%
D59*
%TO.C,R68*%
X85000000Y-165500000D03*
X85000000Y-163675000D03*
%TD*%
D52*
%TO.C,R75*%
X104250000Y-166587500D03*
X104250000Y-168412500D03*
%TD*%
D59*
%TO.C,R57*%
X84000000Y-178325000D03*
X84000000Y-176500000D03*
%TD*%
D60*
%TO.C,U27*%
X102362500Y-176450000D03*
X102362500Y-175500000D03*
X102362500Y-174550000D03*
X104637500Y-174550000D03*
X104637500Y-176450000D03*
%TD*%
D45*
%TO.C,R66*%
X98112500Y-150600000D03*
X96287500Y-150600000D03*
%TD*%
%TO.C,R65*%
X98112500Y-152600000D03*
X96287500Y-152600000D03*
%TD*%
D61*
%TO.C,L4*%
X108562500Y-168400000D03*
X106437500Y-168400000D03*
%TD*%
D62*
%TO.C,C64*%
X82500000Y-164500000D03*
X82500000Y-166400000D03*
%TD*%
D45*
%TO.C,R79*%
X91512500Y-182400000D03*
X89687500Y-182400000D03*
%TD*%
D56*
%TO.C,U24*%
X76600000Y-188060000D03*
D57*
X82900000Y-185780000D03*
D56*
X76600000Y-183500000D03*
%TD*%
D48*
%TO.C,C82*%
X106550000Y-166400000D03*
X108450000Y-166400000D03*
%TD*%
D62*
%TO.C,C63*%
X76500000Y-166550000D03*
X76500000Y-168450000D03*
%TD*%
D63*
%TO.C,U26*%
X94000000Y-158902500D03*
X94800000Y-158902500D03*
X95600000Y-158902500D03*
X96400000Y-158902500D03*
X97200000Y-158902500D03*
X98000000Y-158902500D03*
D64*
X98097500Y-160000000D03*
D63*
X98000000Y-161097500D03*
X97200000Y-161097500D03*
X96400000Y-161097500D03*
X95600000Y-161097500D03*
X94800000Y-161097500D03*
X94000000Y-161097500D03*
D64*
X93902500Y-160000000D03*
%TD*%
D62*
%TO.C,C65*%
X76500000Y-170100000D03*
X76500000Y-172000000D03*
%TD*%
M02*
