%TF.GenerationSoftware,KiCad,Pcbnew,8.0.9*%
%TF.CreationDate,2025-08-04T10:44:07+12:00*%
%TF.ProjectId,xymatics-e64,78796d61-7469-4637-932d-6536342e6b69,rev?*%
%TF.SameCoordinates,Original*%
%TF.FileFunction,Drillmap*%
%TF.FilePolarity,Positive*%
%FSLAX45Y45*%
G04 Gerber Fmt 4.5, Leading zero omitted, Abs format (unit mm)*
G04 Created by KiCad (PCBNEW 8.0.9) date 2025-08-04 10:44:07*
%MOMM*%
%LPD*%
G01*
G04 APERTURE LIST*
%ADD10C,0.050000*%
%ADD11C,0.200000*%
%ADD12C,0.102000*%
%ADD13C,0.300000*%
%ADD14C,0.325000*%
G04 APERTURE END LIST*
D10*
X7400000Y-14800000D02*
X11600000Y-14800000D01*
X11600000Y-19000000D01*
X7400000Y-19000000D01*
X7400000Y-14800000D01*
X5475000Y-2600000D02*
X24600000Y-2600000D01*
X24600000Y-12375000D01*
X5475000Y-12375000D01*
X5475000Y-2600000D01*
D11*
D12*
X7164000Y-11305000D02*
X7266000Y-11407000D01*
X7266000Y-11305000D02*
X7164000Y-11407000D01*
X8064000Y-11305000D02*
X8166000Y-11407000D01*
X8166000Y-11305000D02*
X8064000Y-11407000D01*
X8304000Y-11305000D02*
X8406000Y-11407000D01*
X8406000Y-11305000D02*
X8304000Y-11407000D01*
X9204000Y-11305000D02*
X9306000Y-11407000D01*
X9306000Y-11305000D02*
X9204000Y-11407000D01*
X9444000Y-11305000D02*
X9546000Y-11407000D01*
X9546000Y-11305000D02*
X9444000Y-11407000D01*
X10344000Y-11305000D02*
X10446000Y-11407000D01*
X10446000Y-11305000D02*
X10344000Y-11407000D01*
X10584000Y-11305000D02*
X10686000Y-11407000D01*
X10686000Y-11305000D02*
X10584000Y-11407000D01*
X11484000Y-11305000D02*
X11586000Y-11407000D01*
X11586000Y-11305000D02*
X11484000Y-11407000D01*
X11724000Y-11305000D02*
X11826000Y-11407000D01*
X11826000Y-11305000D02*
X11724000Y-11407000D01*
X12624000Y-11305000D02*
X12726000Y-11407000D01*
X12726000Y-11305000D02*
X12624000Y-11407000D01*
X12864000Y-11305000D02*
X12966000Y-11407000D01*
X12966000Y-11305000D02*
X12864000Y-11407000D01*
X13764000Y-11305000D02*
X13866000Y-11407000D01*
X13866000Y-11305000D02*
X13764000Y-11407000D01*
X14004000Y-11305000D02*
X14106000Y-11407000D01*
X14106000Y-11305000D02*
X14004000Y-11407000D01*
X14904000Y-11305000D02*
X15006000Y-11407000D01*
X15006000Y-11305000D02*
X14904000Y-11407000D01*
X15144000Y-11305000D02*
X15246000Y-11407000D01*
X15246000Y-11305000D02*
X15144000Y-11407000D01*
X16044000Y-11305000D02*
X16146000Y-11407000D01*
X16146000Y-11305000D02*
X16044000Y-11407000D01*
D13*
X8960000Y-15400000D02*
G75*
G02*
X8660000Y-15400000I-150000J0D01*
G01*
X8660000Y-15400000D02*
G75*
G02*
X8960000Y-15400000I150000J0D01*
G01*
D14*
X22996500Y-11117500D02*
X22996500Y-11442500D01*
X22834000Y-11280000D02*
X23159000Y-11280000D01*
X24139500Y-11117500D02*
X24139500Y-11442500D01*
X23977000Y-11280000D02*
X24302000Y-11280000D01*
D11*
X5733277Y-19313984D02*
X5733277Y-19113984D01*
X5733277Y-19113984D02*
X5780896Y-19113984D01*
X5780896Y-19113984D02*
X5809467Y-19123508D01*
X5809467Y-19123508D02*
X5828515Y-19142555D01*
X5828515Y-19142555D02*
X5838039Y-19161603D01*
X5838039Y-19161603D02*
X5847562Y-19199698D01*
X5847562Y-19199698D02*
X5847562Y-19228270D01*
X5847562Y-19228270D02*
X5838039Y-19266365D01*
X5838039Y-19266365D02*
X5828515Y-19285412D01*
X5828515Y-19285412D02*
X5809467Y-19304460D01*
X5809467Y-19304460D02*
X5780896Y-19313984D01*
X5780896Y-19313984D02*
X5733277Y-19313984D01*
X5933277Y-19313984D02*
X5933277Y-19180650D01*
X5933277Y-19218746D02*
X5942801Y-19199698D01*
X5942801Y-19199698D02*
X5952324Y-19190174D01*
X5952324Y-19190174D02*
X5971372Y-19180650D01*
X5971372Y-19180650D02*
X5990420Y-19180650D01*
X6057086Y-19313984D02*
X6057086Y-19180650D01*
X6057086Y-19113984D02*
X6047562Y-19123508D01*
X6047562Y-19123508D02*
X6057086Y-19133031D01*
X6057086Y-19133031D02*
X6066610Y-19123508D01*
X6066610Y-19123508D02*
X6057086Y-19113984D01*
X6057086Y-19113984D02*
X6057086Y-19133031D01*
X6180896Y-19313984D02*
X6161848Y-19304460D01*
X6161848Y-19304460D02*
X6152324Y-19285412D01*
X6152324Y-19285412D02*
X6152324Y-19113984D01*
X6285658Y-19313984D02*
X6266610Y-19304460D01*
X6266610Y-19304460D02*
X6257086Y-19285412D01*
X6257086Y-19285412D02*
X6257086Y-19113984D01*
X6514229Y-19313984D02*
X6514229Y-19113984D01*
X6514229Y-19113984D02*
X6580896Y-19256841D01*
X6580896Y-19256841D02*
X6647562Y-19113984D01*
X6647562Y-19113984D02*
X6647562Y-19313984D01*
X6828515Y-19313984D02*
X6828515Y-19209222D01*
X6828515Y-19209222D02*
X6818991Y-19190174D01*
X6818991Y-19190174D02*
X6799943Y-19180650D01*
X6799943Y-19180650D02*
X6761848Y-19180650D01*
X6761848Y-19180650D02*
X6742801Y-19190174D01*
X6828515Y-19304460D02*
X6809467Y-19313984D01*
X6809467Y-19313984D02*
X6761848Y-19313984D01*
X6761848Y-19313984D02*
X6742801Y-19304460D01*
X6742801Y-19304460D02*
X6733277Y-19285412D01*
X6733277Y-19285412D02*
X6733277Y-19266365D01*
X6733277Y-19266365D02*
X6742801Y-19247317D01*
X6742801Y-19247317D02*
X6761848Y-19237793D01*
X6761848Y-19237793D02*
X6809467Y-19237793D01*
X6809467Y-19237793D02*
X6828515Y-19228270D01*
X6923753Y-19180650D02*
X6923753Y-19380650D01*
X6923753Y-19190174D02*
X6942801Y-19180650D01*
X6942801Y-19180650D02*
X6980896Y-19180650D01*
X6980896Y-19180650D02*
X6999943Y-19190174D01*
X6999943Y-19190174D02*
X7009467Y-19199698D01*
X7009467Y-19199698D02*
X7018991Y-19218746D01*
X7018991Y-19218746D02*
X7018991Y-19275889D01*
X7018991Y-19275889D02*
X7009467Y-19294936D01*
X7009467Y-19294936D02*
X6999943Y-19304460D01*
X6999943Y-19304460D02*
X6980896Y-19313984D01*
X6980896Y-19313984D02*
X6942801Y-19313984D01*
X6942801Y-19313984D02*
X6923753Y-19304460D01*
X7104705Y-19294936D02*
X7114229Y-19304460D01*
X7114229Y-19304460D02*
X7104705Y-19313984D01*
X7104705Y-19313984D02*
X7095182Y-19304460D01*
X7095182Y-19304460D02*
X7104705Y-19294936D01*
X7104705Y-19294936D02*
X7104705Y-19313984D01*
X7104705Y-19190174D02*
X7114229Y-19199698D01*
X7114229Y-19199698D02*
X7104705Y-19209222D01*
X7104705Y-19209222D02*
X7095182Y-19199698D01*
X7095182Y-19199698D02*
X7104705Y-19190174D01*
X7104705Y-19190174D02*
X7104705Y-19209222D01*
D12*
X5370500Y-19591500D02*
X5472500Y-19693500D01*
X5472500Y-19591500D02*
X5370500Y-19693500D01*
D11*
X5838039Y-19733984D02*
X5723753Y-19733984D01*
X5780896Y-19733984D02*
X5780896Y-19533984D01*
X5780896Y-19533984D02*
X5761848Y-19562555D01*
X5761848Y-19562555D02*
X5742801Y-19581603D01*
X5742801Y-19581603D02*
X5723753Y-19591127D01*
X5923753Y-19714936D02*
X5933277Y-19724460D01*
X5933277Y-19724460D02*
X5923753Y-19733984D01*
X5923753Y-19733984D02*
X5914229Y-19724460D01*
X5914229Y-19724460D02*
X5923753Y-19714936D01*
X5923753Y-19714936D02*
X5923753Y-19733984D01*
X6057086Y-19533984D02*
X6076134Y-19533984D01*
X6076134Y-19533984D02*
X6095182Y-19543508D01*
X6095182Y-19543508D02*
X6104705Y-19553031D01*
X6104705Y-19553031D02*
X6114229Y-19572079D01*
X6114229Y-19572079D02*
X6123753Y-19610174D01*
X6123753Y-19610174D02*
X6123753Y-19657793D01*
X6123753Y-19657793D02*
X6114229Y-19695889D01*
X6114229Y-19695889D02*
X6104705Y-19714936D01*
X6104705Y-19714936D02*
X6095182Y-19724460D01*
X6095182Y-19724460D02*
X6076134Y-19733984D01*
X6076134Y-19733984D02*
X6057086Y-19733984D01*
X6057086Y-19733984D02*
X6038039Y-19724460D01*
X6038039Y-19724460D02*
X6028515Y-19714936D01*
X6028515Y-19714936D02*
X6018991Y-19695889D01*
X6018991Y-19695889D02*
X6009467Y-19657793D01*
X6009467Y-19657793D02*
X6009467Y-19610174D01*
X6009467Y-19610174D02*
X6018991Y-19572079D01*
X6018991Y-19572079D02*
X6028515Y-19553031D01*
X6028515Y-19553031D02*
X6038039Y-19543508D01*
X6038039Y-19543508D02*
X6057086Y-19533984D01*
X6199943Y-19553031D02*
X6209467Y-19543508D01*
X6209467Y-19543508D02*
X6228515Y-19533984D01*
X6228515Y-19533984D02*
X6276134Y-19533984D01*
X6276134Y-19533984D02*
X6295182Y-19543508D01*
X6295182Y-19543508D02*
X6304705Y-19553031D01*
X6304705Y-19553031D02*
X6314229Y-19572079D01*
X6314229Y-19572079D02*
X6314229Y-19591127D01*
X6314229Y-19591127D02*
X6304705Y-19619698D01*
X6304705Y-19619698D02*
X6190420Y-19733984D01*
X6190420Y-19733984D02*
X6314229Y-19733984D01*
X6438039Y-19533984D02*
X6457086Y-19533984D01*
X6457086Y-19533984D02*
X6476134Y-19543508D01*
X6476134Y-19543508D02*
X6485658Y-19553031D01*
X6485658Y-19553031D02*
X6495182Y-19572079D01*
X6495182Y-19572079D02*
X6504705Y-19610174D01*
X6504705Y-19610174D02*
X6504705Y-19657793D01*
X6504705Y-19657793D02*
X6495182Y-19695889D01*
X6495182Y-19695889D02*
X6485658Y-19714936D01*
X6485658Y-19714936D02*
X6476134Y-19724460D01*
X6476134Y-19724460D02*
X6457086Y-19733984D01*
X6457086Y-19733984D02*
X6438039Y-19733984D01*
X6438039Y-19733984D02*
X6418991Y-19724460D01*
X6418991Y-19724460D02*
X6409467Y-19714936D01*
X6409467Y-19714936D02*
X6399943Y-19695889D01*
X6399943Y-19695889D02*
X6390420Y-19657793D01*
X6390420Y-19657793D02*
X6390420Y-19610174D01*
X6390420Y-19610174D02*
X6399943Y-19572079D01*
X6399943Y-19572079D02*
X6409467Y-19553031D01*
X6409467Y-19553031D02*
X6418991Y-19543508D01*
X6418991Y-19543508D02*
X6438039Y-19533984D01*
X6590420Y-19733984D02*
X6590420Y-19600650D01*
X6590420Y-19619698D02*
X6599943Y-19610174D01*
X6599943Y-19610174D02*
X6618991Y-19600650D01*
X6618991Y-19600650D02*
X6647563Y-19600650D01*
X6647563Y-19600650D02*
X6666610Y-19610174D01*
X6666610Y-19610174D02*
X6676134Y-19629222D01*
X6676134Y-19629222D02*
X6676134Y-19733984D01*
X6676134Y-19629222D02*
X6685658Y-19610174D01*
X6685658Y-19610174D02*
X6704705Y-19600650D01*
X6704705Y-19600650D02*
X6733277Y-19600650D01*
X6733277Y-19600650D02*
X6752324Y-19610174D01*
X6752324Y-19610174D02*
X6761848Y-19629222D01*
X6761848Y-19629222D02*
X6761848Y-19733984D01*
X6857086Y-19733984D02*
X6857086Y-19600650D01*
X6857086Y-19619698D02*
X6866610Y-19610174D01*
X6866610Y-19610174D02*
X6885658Y-19600650D01*
X6885658Y-19600650D02*
X6914229Y-19600650D01*
X6914229Y-19600650D02*
X6933277Y-19610174D01*
X6933277Y-19610174D02*
X6942801Y-19629222D01*
X6942801Y-19629222D02*
X6942801Y-19733984D01*
X6942801Y-19629222D02*
X6952324Y-19610174D01*
X6952324Y-19610174D02*
X6971372Y-19600650D01*
X6971372Y-19600650D02*
X6999943Y-19600650D01*
X6999943Y-19600650D02*
X7018991Y-19610174D01*
X7018991Y-19610174D02*
X7028515Y-19629222D01*
X7028515Y-19629222D02*
X7028515Y-19733984D01*
X7418991Y-19524460D02*
X7247563Y-19781603D01*
X7676134Y-19533984D02*
X7695182Y-19533984D01*
X7695182Y-19533984D02*
X7714229Y-19543508D01*
X7714229Y-19543508D02*
X7723753Y-19553031D01*
X7723753Y-19553031D02*
X7733277Y-19572079D01*
X7733277Y-19572079D02*
X7742801Y-19610174D01*
X7742801Y-19610174D02*
X7742801Y-19657793D01*
X7742801Y-19657793D02*
X7733277Y-19695889D01*
X7733277Y-19695889D02*
X7723753Y-19714936D01*
X7723753Y-19714936D02*
X7714229Y-19724460D01*
X7714229Y-19724460D02*
X7695182Y-19733984D01*
X7695182Y-19733984D02*
X7676134Y-19733984D01*
X7676134Y-19733984D02*
X7657086Y-19724460D01*
X7657086Y-19724460D02*
X7647563Y-19714936D01*
X7647563Y-19714936D02*
X7638039Y-19695889D01*
X7638039Y-19695889D02*
X7628515Y-19657793D01*
X7628515Y-19657793D02*
X7628515Y-19610174D01*
X7628515Y-19610174D02*
X7638039Y-19572079D01*
X7638039Y-19572079D02*
X7647563Y-19553031D01*
X7647563Y-19553031D02*
X7657086Y-19543508D01*
X7657086Y-19543508D02*
X7676134Y-19533984D01*
X7828515Y-19714936D02*
X7838039Y-19724460D01*
X7838039Y-19724460D02*
X7828515Y-19733984D01*
X7828515Y-19733984D02*
X7818991Y-19724460D01*
X7818991Y-19724460D02*
X7828515Y-19714936D01*
X7828515Y-19714936D02*
X7828515Y-19733984D01*
X7961848Y-19533984D02*
X7980896Y-19533984D01*
X7980896Y-19533984D02*
X7999944Y-19543508D01*
X7999944Y-19543508D02*
X8009467Y-19553031D01*
X8009467Y-19553031D02*
X8018991Y-19572079D01*
X8018991Y-19572079D02*
X8028515Y-19610174D01*
X8028515Y-19610174D02*
X8028515Y-19657793D01*
X8028515Y-19657793D02*
X8018991Y-19695889D01*
X8018991Y-19695889D02*
X8009467Y-19714936D01*
X8009467Y-19714936D02*
X7999944Y-19724460D01*
X7999944Y-19724460D02*
X7980896Y-19733984D01*
X7980896Y-19733984D02*
X7961848Y-19733984D01*
X7961848Y-19733984D02*
X7942801Y-19724460D01*
X7942801Y-19724460D02*
X7933277Y-19714936D01*
X7933277Y-19714936D02*
X7923753Y-19695889D01*
X7923753Y-19695889D02*
X7914229Y-19657793D01*
X7914229Y-19657793D02*
X7914229Y-19610174D01*
X7914229Y-19610174D02*
X7923753Y-19572079D01*
X7923753Y-19572079D02*
X7933277Y-19553031D01*
X7933277Y-19553031D02*
X7942801Y-19543508D01*
X7942801Y-19543508D02*
X7961848Y-19533984D01*
X8199944Y-19600650D02*
X8199944Y-19733984D01*
X8152325Y-19524460D02*
X8104706Y-19667317D01*
X8104706Y-19667317D02*
X8228515Y-19667317D01*
X8342801Y-19533984D02*
X8361848Y-19533984D01*
X8361848Y-19533984D02*
X8380896Y-19543508D01*
X8380896Y-19543508D02*
X8390420Y-19553031D01*
X8390420Y-19553031D02*
X8399944Y-19572079D01*
X8399944Y-19572079D02*
X8409468Y-19610174D01*
X8409468Y-19610174D02*
X8409468Y-19657793D01*
X8409468Y-19657793D02*
X8399944Y-19695889D01*
X8399944Y-19695889D02*
X8390420Y-19714936D01*
X8390420Y-19714936D02*
X8380896Y-19724460D01*
X8380896Y-19724460D02*
X8361848Y-19733984D01*
X8361848Y-19733984D02*
X8342801Y-19733984D01*
X8342801Y-19733984D02*
X8323753Y-19724460D01*
X8323753Y-19724460D02*
X8314229Y-19714936D01*
X8314229Y-19714936D02*
X8304706Y-19695889D01*
X8304706Y-19695889D02*
X8295182Y-19657793D01*
X8295182Y-19657793D02*
X8295182Y-19610174D01*
X8295182Y-19610174D02*
X8304706Y-19572079D01*
X8304706Y-19572079D02*
X8314229Y-19553031D01*
X8314229Y-19553031D02*
X8323753Y-19543508D01*
X8323753Y-19543508D02*
X8342801Y-19533984D01*
X8485658Y-19553031D02*
X8495182Y-19543508D01*
X8495182Y-19543508D02*
X8514229Y-19533984D01*
X8514229Y-19533984D02*
X8561849Y-19533984D01*
X8561849Y-19533984D02*
X8580896Y-19543508D01*
X8580896Y-19543508D02*
X8590420Y-19553031D01*
X8590420Y-19553031D02*
X8599944Y-19572079D01*
X8599944Y-19572079D02*
X8599944Y-19591127D01*
X8599944Y-19591127D02*
X8590420Y-19619698D01*
X8590420Y-19619698D02*
X8476134Y-19733984D01*
X8476134Y-19733984D02*
X8599944Y-19733984D01*
X8676134Y-19533984D02*
X8676134Y-19572079D01*
X8752325Y-19533984D02*
X8752325Y-19572079D01*
X9047563Y-19810174D02*
X9038039Y-19800650D01*
X9038039Y-19800650D02*
X9018991Y-19772079D01*
X9018991Y-19772079D02*
X9009468Y-19753031D01*
X9009468Y-19753031D02*
X8999944Y-19724460D01*
X8999944Y-19724460D02*
X8990420Y-19676841D01*
X8990420Y-19676841D02*
X8990420Y-19638746D01*
X8990420Y-19638746D02*
X8999944Y-19591127D01*
X8999944Y-19591127D02*
X9009468Y-19562555D01*
X9009468Y-19562555D02*
X9018991Y-19543508D01*
X9018991Y-19543508D02*
X9038039Y-19514936D01*
X9038039Y-19514936D02*
X9047563Y-19505412D01*
X9228515Y-19733984D02*
X9114230Y-19733984D01*
X9171372Y-19733984D02*
X9171372Y-19533984D01*
X9171372Y-19533984D02*
X9152325Y-19562555D01*
X9152325Y-19562555D02*
X9133277Y-19581603D01*
X9133277Y-19581603D02*
X9114230Y-19591127D01*
X9399944Y-19533984D02*
X9361849Y-19533984D01*
X9361849Y-19533984D02*
X9342801Y-19543508D01*
X9342801Y-19543508D02*
X9333277Y-19553031D01*
X9333277Y-19553031D02*
X9314230Y-19581603D01*
X9314230Y-19581603D02*
X9304706Y-19619698D01*
X9304706Y-19619698D02*
X9304706Y-19695889D01*
X9304706Y-19695889D02*
X9314230Y-19714936D01*
X9314230Y-19714936D02*
X9323753Y-19724460D01*
X9323753Y-19724460D02*
X9342801Y-19733984D01*
X9342801Y-19733984D02*
X9380896Y-19733984D01*
X9380896Y-19733984D02*
X9399944Y-19724460D01*
X9399944Y-19724460D02*
X9409468Y-19714936D01*
X9409468Y-19714936D02*
X9418991Y-19695889D01*
X9418991Y-19695889D02*
X9418991Y-19648270D01*
X9418991Y-19648270D02*
X9409468Y-19629222D01*
X9409468Y-19629222D02*
X9399944Y-19619698D01*
X9399944Y-19619698D02*
X9380896Y-19610174D01*
X9380896Y-19610174D02*
X9342801Y-19610174D01*
X9342801Y-19610174D02*
X9323753Y-19619698D01*
X9323753Y-19619698D02*
X9314230Y-19629222D01*
X9314230Y-19629222D02*
X9304706Y-19648270D01*
X9657087Y-19733984D02*
X9657087Y-19533984D01*
X9742801Y-19733984D02*
X9742801Y-19629222D01*
X9742801Y-19629222D02*
X9733277Y-19610174D01*
X9733277Y-19610174D02*
X9714230Y-19600650D01*
X9714230Y-19600650D02*
X9685658Y-19600650D01*
X9685658Y-19600650D02*
X9666611Y-19610174D01*
X9666611Y-19610174D02*
X9657087Y-19619698D01*
X9866611Y-19733984D02*
X9847563Y-19724460D01*
X9847563Y-19724460D02*
X9838039Y-19714936D01*
X9838039Y-19714936D02*
X9828515Y-19695889D01*
X9828515Y-19695889D02*
X9828515Y-19638746D01*
X9828515Y-19638746D02*
X9838039Y-19619698D01*
X9838039Y-19619698D02*
X9847563Y-19610174D01*
X9847563Y-19610174D02*
X9866611Y-19600650D01*
X9866611Y-19600650D02*
X9895182Y-19600650D01*
X9895182Y-19600650D02*
X9914230Y-19610174D01*
X9914230Y-19610174D02*
X9923753Y-19619698D01*
X9923753Y-19619698D02*
X9933277Y-19638746D01*
X9933277Y-19638746D02*
X9933277Y-19695889D01*
X9933277Y-19695889D02*
X9923753Y-19714936D01*
X9923753Y-19714936D02*
X9914230Y-19724460D01*
X9914230Y-19724460D02*
X9895182Y-19733984D01*
X9895182Y-19733984D02*
X9866611Y-19733984D01*
X10047563Y-19733984D02*
X10028515Y-19724460D01*
X10028515Y-19724460D02*
X10018992Y-19705412D01*
X10018992Y-19705412D02*
X10018992Y-19533984D01*
X10199944Y-19724460D02*
X10180896Y-19733984D01*
X10180896Y-19733984D02*
X10142801Y-19733984D01*
X10142801Y-19733984D02*
X10123753Y-19724460D01*
X10123753Y-19724460D02*
X10114230Y-19705412D01*
X10114230Y-19705412D02*
X10114230Y-19629222D01*
X10114230Y-19629222D02*
X10123753Y-19610174D01*
X10123753Y-19610174D02*
X10142801Y-19600650D01*
X10142801Y-19600650D02*
X10180896Y-19600650D01*
X10180896Y-19600650D02*
X10199944Y-19610174D01*
X10199944Y-19610174D02*
X10209468Y-19629222D01*
X10209468Y-19629222D02*
X10209468Y-19648270D01*
X10209468Y-19648270D02*
X10114230Y-19667317D01*
X10285658Y-19724460D02*
X10304706Y-19733984D01*
X10304706Y-19733984D02*
X10342801Y-19733984D01*
X10342801Y-19733984D02*
X10361849Y-19724460D01*
X10361849Y-19724460D02*
X10371373Y-19705412D01*
X10371373Y-19705412D02*
X10371373Y-19695889D01*
X10371373Y-19695889D02*
X10361849Y-19676841D01*
X10361849Y-19676841D02*
X10342801Y-19667317D01*
X10342801Y-19667317D02*
X10314230Y-19667317D01*
X10314230Y-19667317D02*
X10295182Y-19657793D01*
X10295182Y-19657793D02*
X10285658Y-19638746D01*
X10285658Y-19638746D02*
X10285658Y-19629222D01*
X10285658Y-19629222D02*
X10295182Y-19610174D01*
X10295182Y-19610174D02*
X10314230Y-19600650D01*
X10314230Y-19600650D02*
X10342801Y-19600650D01*
X10342801Y-19600650D02*
X10361849Y-19610174D01*
X10438039Y-19810174D02*
X10447563Y-19800650D01*
X10447563Y-19800650D02*
X10466611Y-19772079D01*
X10466611Y-19772079D02*
X10476134Y-19753031D01*
X10476134Y-19753031D02*
X10485658Y-19724460D01*
X10485658Y-19724460D02*
X10495182Y-19676841D01*
X10495182Y-19676841D02*
X10495182Y-19638746D01*
X10495182Y-19638746D02*
X10485658Y-19591127D01*
X10485658Y-19591127D02*
X10476134Y-19562555D01*
X10476134Y-19562555D02*
X10466611Y-19543508D01*
X10466611Y-19543508D02*
X10447563Y-19514936D01*
X10447563Y-19514936D02*
X10438039Y-19505412D01*
X10799944Y-19810174D02*
X10790420Y-19800650D01*
X10790420Y-19800650D02*
X10771373Y-19772079D01*
X10771373Y-19772079D02*
X10761849Y-19753031D01*
X10761849Y-19753031D02*
X10752325Y-19724460D01*
X10752325Y-19724460D02*
X10742801Y-19676841D01*
X10742801Y-19676841D02*
X10742801Y-19638746D01*
X10742801Y-19638746D02*
X10752325Y-19591127D01*
X10752325Y-19591127D02*
X10761849Y-19562555D01*
X10761849Y-19562555D02*
X10771373Y-19543508D01*
X10771373Y-19543508D02*
X10790420Y-19514936D01*
X10790420Y-19514936D02*
X10799944Y-19505412D01*
X10876134Y-19600650D02*
X10876134Y-19733984D01*
X10876134Y-19619698D02*
X10885658Y-19610174D01*
X10885658Y-19610174D02*
X10904706Y-19600650D01*
X10904706Y-19600650D02*
X10933277Y-19600650D01*
X10933277Y-19600650D02*
X10952325Y-19610174D01*
X10952325Y-19610174D02*
X10961849Y-19629222D01*
X10961849Y-19629222D02*
X10961849Y-19733984D01*
X11085658Y-19733984D02*
X11066611Y-19724460D01*
X11066611Y-19724460D02*
X11057087Y-19714936D01*
X11057087Y-19714936D02*
X11047563Y-19695889D01*
X11047563Y-19695889D02*
X11047563Y-19638746D01*
X11047563Y-19638746D02*
X11057087Y-19619698D01*
X11057087Y-19619698D02*
X11066611Y-19610174D01*
X11066611Y-19610174D02*
X11085658Y-19600650D01*
X11085658Y-19600650D02*
X11114230Y-19600650D01*
X11114230Y-19600650D02*
X11133277Y-19610174D01*
X11133277Y-19610174D02*
X11142801Y-19619698D01*
X11142801Y-19619698D02*
X11152325Y-19638746D01*
X11152325Y-19638746D02*
X11152325Y-19695889D01*
X11152325Y-19695889D02*
X11142801Y-19714936D01*
X11142801Y-19714936D02*
X11133277Y-19724460D01*
X11133277Y-19724460D02*
X11114230Y-19733984D01*
X11114230Y-19733984D02*
X11085658Y-19733984D01*
X11209468Y-19600650D02*
X11285658Y-19600650D01*
X11238039Y-19533984D02*
X11238039Y-19705412D01*
X11238039Y-19705412D02*
X11247563Y-19724460D01*
X11247563Y-19724460D02*
X11266611Y-19733984D01*
X11266611Y-19733984D02*
X11285658Y-19733984D01*
X11504706Y-19600650D02*
X11504706Y-19800650D01*
X11504706Y-19610174D02*
X11523753Y-19600650D01*
X11523753Y-19600650D02*
X11561849Y-19600650D01*
X11561849Y-19600650D02*
X11580896Y-19610174D01*
X11580896Y-19610174D02*
X11590420Y-19619698D01*
X11590420Y-19619698D02*
X11599944Y-19638746D01*
X11599944Y-19638746D02*
X11599944Y-19695889D01*
X11599944Y-19695889D02*
X11590420Y-19714936D01*
X11590420Y-19714936D02*
X11580896Y-19724460D01*
X11580896Y-19724460D02*
X11561849Y-19733984D01*
X11561849Y-19733984D02*
X11523753Y-19733984D01*
X11523753Y-19733984D02*
X11504706Y-19724460D01*
X11714230Y-19733984D02*
X11695182Y-19724460D01*
X11695182Y-19724460D02*
X11685658Y-19705412D01*
X11685658Y-19705412D02*
X11685658Y-19533984D01*
X11876134Y-19733984D02*
X11876134Y-19629222D01*
X11876134Y-19629222D02*
X11866611Y-19610174D01*
X11866611Y-19610174D02*
X11847563Y-19600650D01*
X11847563Y-19600650D02*
X11809468Y-19600650D01*
X11809468Y-19600650D02*
X11790420Y-19610174D01*
X11876134Y-19724460D02*
X11857087Y-19733984D01*
X11857087Y-19733984D02*
X11809468Y-19733984D01*
X11809468Y-19733984D02*
X11790420Y-19724460D01*
X11790420Y-19724460D02*
X11780896Y-19705412D01*
X11780896Y-19705412D02*
X11780896Y-19686365D01*
X11780896Y-19686365D02*
X11790420Y-19667317D01*
X11790420Y-19667317D02*
X11809468Y-19657793D01*
X11809468Y-19657793D02*
X11857087Y-19657793D01*
X11857087Y-19657793D02*
X11876134Y-19648270D01*
X11942801Y-19600650D02*
X12018992Y-19600650D01*
X11971373Y-19533984D02*
X11971373Y-19705412D01*
X11971373Y-19705412D02*
X11980896Y-19724460D01*
X11980896Y-19724460D02*
X11999944Y-19733984D01*
X11999944Y-19733984D02*
X12018992Y-19733984D01*
X12161849Y-19724460D02*
X12142801Y-19733984D01*
X12142801Y-19733984D02*
X12104706Y-19733984D01*
X12104706Y-19733984D02*
X12085658Y-19724460D01*
X12085658Y-19724460D02*
X12076134Y-19705412D01*
X12076134Y-19705412D02*
X12076134Y-19629222D01*
X12076134Y-19629222D02*
X12085658Y-19610174D01*
X12085658Y-19610174D02*
X12104706Y-19600650D01*
X12104706Y-19600650D02*
X12142801Y-19600650D01*
X12142801Y-19600650D02*
X12161849Y-19610174D01*
X12161849Y-19610174D02*
X12171373Y-19629222D01*
X12171373Y-19629222D02*
X12171373Y-19648270D01*
X12171373Y-19648270D02*
X12076134Y-19667317D01*
X12342801Y-19733984D02*
X12342801Y-19533984D01*
X12342801Y-19724460D02*
X12323754Y-19733984D01*
X12323754Y-19733984D02*
X12285658Y-19733984D01*
X12285658Y-19733984D02*
X12266611Y-19724460D01*
X12266611Y-19724460D02*
X12257087Y-19714936D01*
X12257087Y-19714936D02*
X12247563Y-19695889D01*
X12247563Y-19695889D02*
X12247563Y-19638746D01*
X12247563Y-19638746D02*
X12257087Y-19619698D01*
X12257087Y-19619698D02*
X12266611Y-19610174D01*
X12266611Y-19610174D02*
X12285658Y-19600650D01*
X12285658Y-19600650D02*
X12323754Y-19600650D01*
X12323754Y-19600650D02*
X12342801Y-19610174D01*
X12418992Y-19810174D02*
X12428515Y-19800650D01*
X12428515Y-19800650D02*
X12447563Y-19772079D01*
X12447563Y-19772079D02*
X12457087Y-19753031D01*
X12457087Y-19753031D02*
X12466611Y-19724460D01*
X12466611Y-19724460D02*
X12476134Y-19676841D01*
X12476134Y-19676841D02*
X12476134Y-19638746D01*
X12476134Y-19638746D02*
X12466611Y-19591127D01*
X12466611Y-19591127D02*
X12457087Y-19562555D01*
X12457087Y-19562555D02*
X12447563Y-19543508D01*
X12447563Y-19543508D02*
X12428515Y-19514936D01*
X12428515Y-19514936D02*
X12418992Y-19505412D01*
X5472500Y-19906500D02*
G75*
G02*
X5272500Y-19906500I-100000J0D01*
G01*
X5272500Y-19906500D02*
G75*
G02*
X5472500Y-19906500I100000J0D01*
G01*
X5714229Y-19797984D02*
X5838039Y-19797984D01*
X5838039Y-19797984D02*
X5771372Y-19874174D01*
X5771372Y-19874174D02*
X5799943Y-19874174D01*
X5799943Y-19874174D02*
X5818991Y-19883698D01*
X5818991Y-19883698D02*
X5828515Y-19893222D01*
X5828515Y-19893222D02*
X5838039Y-19912270D01*
X5838039Y-19912270D02*
X5838039Y-19959889D01*
X5838039Y-19959889D02*
X5828515Y-19978936D01*
X5828515Y-19978936D02*
X5818991Y-19988460D01*
X5818991Y-19988460D02*
X5799943Y-19997984D01*
X5799943Y-19997984D02*
X5742801Y-19997984D01*
X5742801Y-19997984D02*
X5723753Y-19988460D01*
X5723753Y-19988460D02*
X5714229Y-19978936D01*
X5923753Y-19978936D02*
X5933277Y-19988460D01*
X5933277Y-19988460D02*
X5923753Y-19997984D01*
X5923753Y-19997984D02*
X5914229Y-19988460D01*
X5914229Y-19988460D02*
X5923753Y-19978936D01*
X5923753Y-19978936D02*
X5923753Y-19997984D01*
X6057086Y-19797984D02*
X6076134Y-19797984D01*
X6076134Y-19797984D02*
X6095182Y-19807508D01*
X6095182Y-19807508D02*
X6104705Y-19817031D01*
X6104705Y-19817031D02*
X6114229Y-19836079D01*
X6114229Y-19836079D02*
X6123753Y-19874174D01*
X6123753Y-19874174D02*
X6123753Y-19921793D01*
X6123753Y-19921793D02*
X6114229Y-19959889D01*
X6114229Y-19959889D02*
X6104705Y-19978936D01*
X6104705Y-19978936D02*
X6095182Y-19988460D01*
X6095182Y-19988460D02*
X6076134Y-19997984D01*
X6076134Y-19997984D02*
X6057086Y-19997984D01*
X6057086Y-19997984D02*
X6038039Y-19988460D01*
X6038039Y-19988460D02*
X6028515Y-19978936D01*
X6028515Y-19978936D02*
X6018991Y-19959889D01*
X6018991Y-19959889D02*
X6009467Y-19921793D01*
X6009467Y-19921793D02*
X6009467Y-19874174D01*
X6009467Y-19874174D02*
X6018991Y-19836079D01*
X6018991Y-19836079D02*
X6028515Y-19817031D01*
X6028515Y-19817031D02*
X6038039Y-19807508D01*
X6038039Y-19807508D02*
X6057086Y-19797984D01*
X6247562Y-19797984D02*
X6266610Y-19797984D01*
X6266610Y-19797984D02*
X6285658Y-19807508D01*
X6285658Y-19807508D02*
X6295182Y-19817031D01*
X6295182Y-19817031D02*
X6304705Y-19836079D01*
X6304705Y-19836079D02*
X6314229Y-19874174D01*
X6314229Y-19874174D02*
X6314229Y-19921793D01*
X6314229Y-19921793D02*
X6304705Y-19959889D01*
X6304705Y-19959889D02*
X6295182Y-19978936D01*
X6295182Y-19978936D02*
X6285658Y-19988460D01*
X6285658Y-19988460D02*
X6266610Y-19997984D01*
X6266610Y-19997984D02*
X6247562Y-19997984D01*
X6247562Y-19997984D02*
X6228515Y-19988460D01*
X6228515Y-19988460D02*
X6218991Y-19978936D01*
X6218991Y-19978936D02*
X6209467Y-19959889D01*
X6209467Y-19959889D02*
X6199943Y-19921793D01*
X6199943Y-19921793D02*
X6199943Y-19874174D01*
X6199943Y-19874174D02*
X6209467Y-19836079D01*
X6209467Y-19836079D02*
X6218991Y-19817031D01*
X6218991Y-19817031D02*
X6228515Y-19807508D01*
X6228515Y-19807508D02*
X6247562Y-19797984D01*
X6438039Y-19797984D02*
X6457086Y-19797984D01*
X6457086Y-19797984D02*
X6476134Y-19807508D01*
X6476134Y-19807508D02*
X6485658Y-19817031D01*
X6485658Y-19817031D02*
X6495182Y-19836079D01*
X6495182Y-19836079D02*
X6504705Y-19874174D01*
X6504705Y-19874174D02*
X6504705Y-19921793D01*
X6504705Y-19921793D02*
X6495182Y-19959889D01*
X6495182Y-19959889D02*
X6485658Y-19978936D01*
X6485658Y-19978936D02*
X6476134Y-19988460D01*
X6476134Y-19988460D02*
X6457086Y-19997984D01*
X6457086Y-19997984D02*
X6438039Y-19997984D01*
X6438039Y-19997984D02*
X6418991Y-19988460D01*
X6418991Y-19988460D02*
X6409467Y-19978936D01*
X6409467Y-19978936D02*
X6399943Y-19959889D01*
X6399943Y-19959889D02*
X6390420Y-19921793D01*
X6390420Y-19921793D02*
X6390420Y-19874174D01*
X6390420Y-19874174D02*
X6399943Y-19836079D01*
X6399943Y-19836079D02*
X6409467Y-19817031D01*
X6409467Y-19817031D02*
X6418991Y-19807508D01*
X6418991Y-19807508D02*
X6438039Y-19797984D01*
X6590420Y-19997984D02*
X6590420Y-19864650D01*
X6590420Y-19883698D02*
X6599943Y-19874174D01*
X6599943Y-19874174D02*
X6618991Y-19864650D01*
X6618991Y-19864650D02*
X6647563Y-19864650D01*
X6647563Y-19864650D02*
X6666610Y-19874174D01*
X6666610Y-19874174D02*
X6676134Y-19893222D01*
X6676134Y-19893222D02*
X6676134Y-19997984D01*
X6676134Y-19893222D02*
X6685658Y-19874174D01*
X6685658Y-19874174D02*
X6704705Y-19864650D01*
X6704705Y-19864650D02*
X6733277Y-19864650D01*
X6733277Y-19864650D02*
X6752324Y-19874174D01*
X6752324Y-19874174D02*
X6761848Y-19893222D01*
X6761848Y-19893222D02*
X6761848Y-19997984D01*
X6857086Y-19997984D02*
X6857086Y-19864650D01*
X6857086Y-19883698D02*
X6866610Y-19874174D01*
X6866610Y-19874174D02*
X6885658Y-19864650D01*
X6885658Y-19864650D02*
X6914229Y-19864650D01*
X6914229Y-19864650D02*
X6933277Y-19874174D01*
X6933277Y-19874174D02*
X6942801Y-19893222D01*
X6942801Y-19893222D02*
X6942801Y-19997984D01*
X6942801Y-19893222D02*
X6952324Y-19874174D01*
X6952324Y-19874174D02*
X6971372Y-19864650D01*
X6971372Y-19864650D02*
X6999943Y-19864650D01*
X6999943Y-19864650D02*
X7018991Y-19874174D01*
X7018991Y-19874174D02*
X7028515Y-19893222D01*
X7028515Y-19893222D02*
X7028515Y-19997984D01*
X7418991Y-19788460D02*
X7247563Y-20045603D01*
X7676134Y-19797984D02*
X7695182Y-19797984D01*
X7695182Y-19797984D02*
X7714229Y-19807508D01*
X7714229Y-19807508D02*
X7723753Y-19817031D01*
X7723753Y-19817031D02*
X7733277Y-19836079D01*
X7733277Y-19836079D02*
X7742801Y-19874174D01*
X7742801Y-19874174D02*
X7742801Y-19921793D01*
X7742801Y-19921793D02*
X7733277Y-19959889D01*
X7733277Y-19959889D02*
X7723753Y-19978936D01*
X7723753Y-19978936D02*
X7714229Y-19988460D01*
X7714229Y-19988460D02*
X7695182Y-19997984D01*
X7695182Y-19997984D02*
X7676134Y-19997984D01*
X7676134Y-19997984D02*
X7657086Y-19988460D01*
X7657086Y-19988460D02*
X7647563Y-19978936D01*
X7647563Y-19978936D02*
X7638039Y-19959889D01*
X7638039Y-19959889D02*
X7628515Y-19921793D01*
X7628515Y-19921793D02*
X7628515Y-19874174D01*
X7628515Y-19874174D02*
X7638039Y-19836079D01*
X7638039Y-19836079D02*
X7647563Y-19817031D01*
X7647563Y-19817031D02*
X7657086Y-19807508D01*
X7657086Y-19807508D02*
X7676134Y-19797984D01*
X7828515Y-19978936D02*
X7838039Y-19988460D01*
X7838039Y-19988460D02*
X7828515Y-19997984D01*
X7828515Y-19997984D02*
X7818991Y-19988460D01*
X7818991Y-19988460D02*
X7828515Y-19978936D01*
X7828515Y-19978936D02*
X7828515Y-19997984D01*
X8028515Y-19997984D02*
X7914229Y-19997984D01*
X7971372Y-19997984D02*
X7971372Y-19797984D01*
X7971372Y-19797984D02*
X7952325Y-19826555D01*
X7952325Y-19826555D02*
X7933277Y-19845603D01*
X7933277Y-19845603D02*
X7914229Y-19855127D01*
X8218991Y-19997984D02*
X8104706Y-19997984D01*
X8161848Y-19997984D02*
X8161848Y-19797984D01*
X8161848Y-19797984D02*
X8142801Y-19826555D01*
X8142801Y-19826555D02*
X8123753Y-19845603D01*
X8123753Y-19845603D02*
X8104706Y-19855127D01*
X8333277Y-19883698D02*
X8314229Y-19874174D01*
X8314229Y-19874174D02*
X8304706Y-19864650D01*
X8304706Y-19864650D02*
X8295182Y-19845603D01*
X8295182Y-19845603D02*
X8295182Y-19836079D01*
X8295182Y-19836079D02*
X8304706Y-19817031D01*
X8304706Y-19817031D02*
X8314229Y-19807508D01*
X8314229Y-19807508D02*
X8333277Y-19797984D01*
X8333277Y-19797984D02*
X8371372Y-19797984D01*
X8371372Y-19797984D02*
X8390420Y-19807508D01*
X8390420Y-19807508D02*
X8399944Y-19817031D01*
X8399944Y-19817031D02*
X8409468Y-19836079D01*
X8409468Y-19836079D02*
X8409468Y-19845603D01*
X8409468Y-19845603D02*
X8399944Y-19864650D01*
X8399944Y-19864650D02*
X8390420Y-19874174D01*
X8390420Y-19874174D02*
X8371372Y-19883698D01*
X8371372Y-19883698D02*
X8333277Y-19883698D01*
X8333277Y-19883698D02*
X8314229Y-19893222D01*
X8314229Y-19893222D02*
X8304706Y-19902746D01*
X8304706Y-19902746D02*
X8295182Y-19921793D01*
X8295182Y-19921793D02*
X8295182Y-19959889D01*
X8295182Y-19959889D02*
X8304706Y-19978936D01*
X8304706Y-19978936D02*
X8314229Y-19988460D01*
X8314229Y-19988460D02*
X8333277Y-19997984D01*
X8333277Y-19997984D02*
X8371372Y-19997984D01*
X8371372Y-19997984D02*
X8390420Y-19988460D01*
X8390420Y-19988460D02*
X8399944Y-19978936D01*
X8399944Y-19978936D02*
X8409468Y-19959889D01*
X8409468Y-19959889D02*
X8409468Y-19921793D01*
X8409468Y-19921793D02*
X8399944Y-19902746D01*
X8399944Y-19902746D02*
X8390420Y-19893222D01*
X8390420Y-19893222D02*
X8371372Y-19883698D01*
X8599944Y-19997984D02*
X8485658Y-19997984D01*
X8542801Y-19997984D02*
X8542801Y-19797984D01*
X8542801Y-19797984D02*
X8523753Y-19826555D01*
X8523753Y-19826555D02*
X8504706Y-19845603D01*
X8504706Y-19845603D02*
X8485658Y-19855127D01*
X8676134Y-19797984D02*
X8676134Y-19836079D01*
X8752325Y-19797984D02*
X8752325Y-19836079D01*
X9047563Y-20074174D02*
X9038039Y-20064650D01*
X9038039Y-20064650D02*
X9018991Y-20036079D01*
X9018991Y-20036079D02*
X9009468Y-20017031D01*
X9009468Y-20017031D02*
X8999944Y-19988460D01*
X8999944Y-19988460D02*
X8990420Y-19940841D01*
X8990420Y-19940841D02*
X8990420Y-19902746D01*
X8990420Y-19902746D02*
X8999944Y-19855127D01*
X8999944Y-19855127D02*
X9009468Y-19826555D01*
X9009468Y-19826555D02*
X9018991Y-19807508D01*
X9018991Y-19807508D02*
X9038039Y-19778936D01*
X9038039Y-19778936D02*
X9047563Y-19769412D01*
X9228515Y-19997984D02*
X9114230Y-19997984D01*
X9171372Y-19997984D02*
X9171372Y-19797984D01*
X9171372Y-19797984D02*
X9152325Y-19826555D01*
X9152325Y-19826555D02*
X9133277Y-19845603D01*
X9133277Y-19845603D02*
X9114230Y-19855127D01*
X9466611Y-19997984D02*
X9466611Y-19797984D01*
X9552325Y-19997984D02*
X9552325Y-19893222D01*
X9552325Y-19893222D02*
X9542801Y-19874174D01*
X9542801Y-19874174D02*
X9523753Y-19864650D01*
X9523753Y-19864650D02*
X9495182Y-19864650D01*
X9495182Y-19864650D02*
X9476134Y-19874174D01*
X9476134Y-19874174D02*
X9466611Y-19883698D01*
X9676134Y-19997984D02*
X9657087Y-19988460D01*
X9657087Y-19988460D02*
X9647563Y-19978936D01*
X9647563Y-19978936D02*
X9638039Y-19959889D01*
X9638039Y-19959889D02*
X9638039Y-19902746D01*
X9638039Y-19902746D02*
X9647563Y-19883698D01*
X9647563Y-19883698D02*
X9657087Y-19874174D01*
X9657087Y-19874174D02*
X9676134Y-19864650D01*
X9676134Y-19864650D02*
X9704706Y-19864650D01*
X9704706Y-19864650D02*
X9723753Y-19874174D01*
X9723753Y-19874174D02*
X9733277Y-19883698D01*
X9733277Y-19883698D02*
X9742801Y-19902746D01*
X9742801Y-19902746D02*
X9742801Y-19959889D01*
X9742801Y-19959889D02*
X9733277Y-19978936D01*
X9733277Y-19978936D02*
X9723753Y-19988460D01*
X9723753Y-19988460D02*
X9704706Y-19997984D01*
X9704706Y-19997984D02*
X9676134Y-19997984D01*
X9857087Y-19997984D02*
X9838039Y-19988460D01*
X9838039Y-19988460D02*
X9828515Y-19969412D01*
X9828515Y-19969412D02*
X9828515Y-19797984D01*
X10009468Y-19988460D02*
X9990420Y-19997984D01*
X9990420Y-19997984D02*
X9952325Y-19997984D01*
X9952325Y-19997984D02*
X9933277Y-19988460D01*
X9933277Y-19988460D02*
X9923753Y-19969412D01*
X9923753Y-19969412D02*
X9923753Y-19893222D01*
X9923753Y-19893222D02*
X9933277Y-19874174D01*
X9933277Y-19874174D02*
X9952325Y-19864650D01*
X9952325Y-19864650D02*
X9990420Y-19864650D01*
X9990420Y-19864650D02*
X10009468Y-19874174D01*
X10009468Y-19874174D02*
X10018992Y-19893222D01*
X10018992Y-19893222D02*
X10018992Y-19912270D01*
X10018992Y-19912270D02*
X9923753Y-19931317D01*
X10085658Y-20074174D02*
X10095182Y-20064650D01*
X10095182Y-20064650D02*
X10114230Y-20036079D01*
X10114230Y-20036079D02*
X10123753Y-20017031D01*
X10123753Y-20017031D02*
X10133277Y-19988460D01*
X10133277Y-19988460D02*
X10142801Y-19940841D01*
X10142801Y-19940841D02*
X10142801Y-19902746D01*
X10142801Y-19902746D02*
X10133277Y-19855127D01*
X10133277Y-19855127D02*
X10123753Y-19826555D01*
X10123753Y-19826555D02*
X10114230Y-19807508D01*
X10114230Y-19807508D02*
X10095182Y-19778936D01*
X10095182Y-19778936D02*
X10085658Y-19769412D01*
X10447563Y-20074174D02*
X10438039Y-20064650D01*
X10438039Y-20064650D02*
X10418992Y-20036079D01*
X10418992Y-20036079D02*
X10409468Y-20017031D01*
X10409468Y-20017031D02*
X10399944Y-19988460D01*
X10399944Y-19988460D02*
X10390420Y-19940841D01*
X10390420Y-19940841D02*
X10390420Y-19902746D01*
X10390420Y-19902746D02*
X10399944Y-19855127D01*
X10399944Y-19855127D02*
X10409468Y-19826555D01*
X10409468Y-19826555D02*
X10418992Y-19807508D01*
X10418992Y-19807508D02*
X10438039Y-19778936D01*
X10438039Y-19778936D02*
X10447563Y-19769412D01*
X10523753Y-19864650D02*
X10523753Y-19997984D01*
X10523753Y-19883698D02*
X10533277Y-19874174D01*
X10533277Y-19874174D02*
X10552325Y-19864650D01*
X10552325Y-19864650D02*
X10580896Y-19864650D01*
X10580896Y-19864650D02*
X10599944Y-19874174D01*
X10599944Y-19874174D02*
X10609468Y-19893222D01*
X10609468Y-19893222D02*
X10609468Y-19997984D01*
X10733277Y-19997984D02*
X10714230Y-19988460D01*
X10714230Y-19988460D02*
X10704706Y-19978936D01*
X10704706Y-19978936D02*
X10695182Y-19959889D01*
X10695182Y-19959889D02*
X10695182Y-19902746D01*
X10695182Y-19902746D02*
X10704706Y-19883698D01*
X10704706Y-19883698D02*
X10714230Y-19874174D01*
X10714230Y-19874174D02*
X10733277Y-19864650D01*
X10733277Y-19864650D02*
X10761849Y-19864650D01*
X10761849Y-19864650D02*
X10780896Y-19874174D01*
X10780896Y-19874174D02*
X10790420Y-19883698D01*
X10790420Y-19883698D02*
X10799944Y-19902746D01*
X10799944Y-19902746D02*
X10799944Y-19959889D01*
X10799944Y-19959889D02*
X10790420Y-19978936D01*
X10790420Y-19978936D02*
X10780896Y-19988460D01*
X10780896Y-19988460D02*
X10761849Y-19997984D01*
X10761849Y-19997984D02*
X10733277Y-19997984D01*
X10857087Y-19864650D02*
X10933277Y-19864650D01*
X10885658Y-19797984D02*
X10885658Y-19969412D01*
X10885658Y-19969412D02*
X10895182Y-19988460D01*
X10895182Y-19988460D02*
X10914230Y-19997984D01*
X10914230Y-19997984D02*
X10933277Y-19997984D01*
X11152325Y-19864650D02*
X11152325Y-20064650D01*
X11152325Y-19874174D02*
X11171373Y-19864650D01*
X11171373Y-19864650D02*
X11209468Y-19864650D01*
X11209468Y-19864650D02*
X11228515Y-19874174D01*
X11228515Y-19874174D02*
X11238039Y-19883698D01*
X11238039Y-19883698D02*
X11247563Y-19902746D01*
X11247563Y-19902746D02*
X11247563Y-19959889D01*
X11247563Y-19959889D02*
X11238039Y-19978936D01*
X11238039Y-19978936D02*
X11228515Y-19988460D01*
X11228515Y-19988460D02*
X11209468Y-19997984D01*
X11209468Y-19997984D02*
X11171373Y-19997984D01*
X11171373Y-19997984D02*
X11152325Y-19988460D01*
X11361849Y-19997984D02*
X11342801Y-19988460D01*
X11342801Y-19988460D02*
X11333277Y-19969412D01*
X11333277Y-19969412D02*
X11333277Y-19797984D01*
X11523753Y-19997984D02*
X11523753Y-19893222D01*
X11523753Y-19893222D02*
X11514230Y-19874174D01*
X11514230Y-19874174D02*
X11495182Y-19864650D01*
X11495182Y-19864650D02*
X11457087Y-19864650D01*
X11457087Y-19864650D02*
X11438039Y-19874174D01*
X11523753Y-19988460D02*
X11504706Y-19997984D01*
X11504706Y-19997984D02*
X11457087Y-19997984D01*
X11457087Y-19997984D02*
X11438039Y-19988460D01*
X11438039Y-19988460D02*
X11428515Y-19969412D01*
X11428515Y-19969412D02*
X11428515Y-19950365D01*
X11428515Y-19950365D02*
X11438039Y-19931317D01*
X11438039Y-19931317D02*
X11457087Y-19921793D01*
X11457087Y-19921793D02*
X11504706Y-19921793D01*
X11504706Y-19921793D02*
X11523753Y-19912270D01*
X11590420Y-19864650D02*
X11666611Y-19864650D01*
X11618992Y-19797984D02*
X11618992Y-19969412D01*
X11618992Y-19969412D02*
X11628515Y-19988460D01*
X11628515Y-19988460D02*
X11647563Y-19997984D01*
X11647563Y-19997984D02*
X11666611Y-19997984D01*
X11809468Y-19988460D02*
X11790420Y-19997984D01*
X11790420Y-19997984D02*
X11752325Y-19997984D01*
X11752325Y-19997984D02*
X11733277Y-19988460D01*
X11733277Y-19988460D02*
X11723753Y-19969412D01*
X11723753Y-19969412D02*
X11723753Y-19893222D01*
X11723753Y-19893222D02*
X11733277Y-19874174D01*
X11733277Y-19874174D02*
X11752325Y-19864650D01*
X11752325Y-19864650D02*
X11790420Y-19864650D01*
X11790420Y-19864650D02*
X11809468Y-19874174D01*
X11809468Y-19874174D02*
X11818992Y-19893222D01*
X11818992Y-19893222D02*
X11818992Y-19912270D01*
X11818992Y-19912270D02*
X11723753Y-19931317D01*
X11990420Y-19997984D02*
X11990420Y-19797984D01*
X11990420Y-19988460D02*
X11971373Y-19997984D01*
X11971373Y-19997984D02*
X11933277Y-19997984D01*
X11933277Y-19997984D02*
X11914230Y-19988460D01*
X11914230Y-19988460D02*
X11904706Y-19978936D01*
X11904706Y-19978936D02*
X11895182Y-19959889D01*
X11895182Y-19959889D02*
X11895182Y-19902746D01*
X11895182Y-19902746D02*
X11904706Y-19883698D01*
X11904706Y-19883698D02*
X11914230Y-19874174D01*
X11914230Y-19874174D02*
X11933277Y-19864650D01*
X11933277Y-19864650D02*
X11971373Y-19864650D01*
X11971373Y-19864650D02*
X11990420Y-19874174D01*
X12066611Y-20074174D02*
X12076134Y-20064650D01*
X12076134Y-20064650D02*
X12095182Y-20036079D01*
X12095182Y-20036079D02*
X12104706Y-20017031D01*
X12104706Y-20017031D02*
X12114230Y-19988460D01*
X12114230Y-19988460D02*
X12123753Y-19940841D01*
X12123753Y-19940841D02*
X12123753Y-19902746D01*
X12123753Y-19902746D02*
X12114230Y-19855127D01*
X12114230Y-19855127D02*
X12104706Y-19826555D01*
X12104706Y-19826555D02*
X12095182Y-19807508D01*
X12095182Y-19807508D02*
X12076134Y-19778936D01*
X12076134Y-19778936D02*
X12066611Y-19769412D01*
X5372500Y-20126500D02*
X5372500Y-20326500D01*
X5272500Y-20226500D02*
X5472500Y-20226500D01*
X5714229Y-20117984D02*
X5838039Y-20117984D01*
X5838039Y-20117984D02*
X5771372Y-20194174D01*
X5771372Y-20194174D02*
X5799943Y-20194174D01*
X5799943Y-20194174D02*
X5818991Y-20203698D01*
X5818991Y-20203698D02*
X5828515Y-20213222D01*
X5828515Y-20213222D02*
X5838039Y-20232270D01*
X5838039Y-20232270D02*
X5838039Y-20279889D01*
X5838039Y-20279889D02*
X5828515Y-20298936D01*
X5828515Y-20298936D02*
X5818991Y-20308460D01*
X5818991Y-20308460D02*
X5799943Y-20317984D01*
X5799943Y-20317984D02*
X5742801Y-20317984D01*
X5742801Y-20317984D02*
X5723753Y-20308460D01*
X5723753Y-20308460D02*
X5714229Y-20298936D01*
X5923753Y-20298936D02*
X5933277Y-20308460D01*
X5933277Y-20308460D02*
X5923753Y-20317984D01*
X5923753Y-20317984D02*
X5914229Y-20308460D01*
X5914229Y-20308460D02*
X5923753Y-20298936D01*
X5923753Y-20298936D02*
X5923753Y-20317984D01*
X6009467Y-20137031D02*
X6018991Y-20127508D01*
X6018991Y-20127508D02*
X6038039Y-20117984D01*
X6038039Y-20117984D02*
X6085658Y-20117984D01*
X6085658Y-20117984D02*
X6104705Y-20127508D01*
X6104705Y-20127508D02*
X6114229Y-20137031D01*
X6114229Y-20137031D02*
X6123753Y-20156079D01*
X6123753Y-20156079D02*
X6123753Y-20175127D01*
X6123753Y-20175127D02*
X6114229Y-20203698D01*
X6114229Y-20203698D02*
X5999943Y-20317984D01*
X5999943Y-20317984D02*
X6123753Y-20317984D01*
X6304705Y-20117984D02*
X6209467Y-20117984D01*
X6209467Y-20117984D02*
X6199943Y-20213222D01*
X6199943Y-20213222D02*
X6209467Y-20203698D01*
X6209467Y-20203698D02*
X6228515Y-20194174D01*
X6228515Y-20194174D02*
X6276134Y-20194174D01*
X6276134Y-20194174D02*
X6295182Y-20203698D01*
X6295182Y-20203698D02*
X6304705Y-20213222D01*
X6304705Y-20213222D02*
X6314229Y-20232270D01*
X6314229Y-20232270D02*
X6314229Y-20279889D01*
X6314229Y-20279889D02*
X6304705Y-20298936D01*
X6304705Y-20298936D02*
X6295182Y-20308460D01*
X6295182Y-20308460D02*
X6276134Y-20317984D01*
X6276134Y-20317984D02*
X6228515Y-20317984D01*
X6228515Y-20317984D02*
X6209467Y-20308460D01*
X6209467Y-20308460D02*
X6199943Y-20298936D01*
X6438039Y-20117984D02*
X6457086Y-20117984D01*
X6457086Y-20117984D02*
X6476134Y-20127508D01*
X6476134Y-20127508D02*
X6485658Y-20137031D01*
X6485658Y-20137031D02*
X6495182Y-20156079D01*
X6495182Y-20156079D02*
X6504705Y-20194174D01*
X6504705Y-20194174D02*
X6504705Y-20241793D01*
X6504705Y-20241793D02*
X6495182Y-20279889D01*
X6495182Y-20279889D02*
X6485658Y-20298936D01*
X6485658Y-20298936D02*
X6476134Y-20308460D01*
X6476134Y-20308460D02*
X6457086Y-20317984D01*
X6457086Y-20317984D02*
X6438039Y-20317984D01*
X6438039Y-20317984D02*
X6418991Y-20308460D01*
X6418991Y-20308460D02*
X6409467Y-20298936D01*
X6409467Y-20298936D02*
X6399943Y-20279889D01*
X6399943Y-20279889D02*
X6390420Y-20241793D01*
X6390420Y-20241793D02*
X6390420Y-20194174D01*
X6390420Y-20194174D02*
X6399943Y-20156079D01*
X6399943Y-20156079D02*
X6409467Y-20137031D01*
X6409467Y-20137031D02*
X6418991Y-20127508D01*
X6418991Y-20127508D02*
X6438039Y-20117984D01*
X6590420Y-20317984D02*
X6590420Y-20184650D01*
X6590420Y-20203698D02*
X6599943Y-20194174D01*
X6599943Y-20194174D02*
X6618991Y-20184650D01*
X6618991Y-20184650D02*
X6647563Y-20184650D01*
X6647563Y-20184650D02*
X6666610Y-20194174D01*
X6666610Y-20194174D02*
X6676134Y-20213222D01*
X6676134Y-20213222D02*
X6676134Y-20317984D01*
X6676134Y-20213222D02*
X6685658Y-20194174D01*
X6685658Y-20194174D02*
X6704705Y-20184650D01*
X6704705Y-20184650D02*
X6733277Y-20184650D01*
X6733277Y-20184650D02*
X6752324Y-20194174D01*
X6752324Y-20194174D02*
X6761848Y-20213222D01*
X6761848Y-20213222D02*
X6761848Y-20317984D01*
X6857086Y-20317984D02*
X6857086Y-20184650D01*
X6857086Y-20203698D02*
X6866610Y-20194174D01*
X6866610Y-20194174D02*
X6885658Y-20184650D01*
X6885658Y-20184650D02*
X6914229Y-20184650D01*
X6914229Y-20184650D02*
X6933277Y-20194174D01*
X6933277Y-20194174D02*
X6942801Y-20213222D01*
X6942801Y-20213222D02*
X6942801Y-20317984D01*
X6942801Y-20213222D02*
X6952324Y-20194174D01*
X6952324Y-20194174D02*
X6971372Y-20184650D01*
X6971372Y-20184650D02*
X6999943Y-20184650D01*
X6999943Y-20184650D02*
X7018991Y-20194174D01*
X7018991Y-20194174D02*
X7028515Y-20213222D01*
X7028515Y-20213222D02*
X7028515Y-20317984D01*
X7418991Y-20108460D02*
X7247563Y-20365603D01*
X7676134Y-20117984D02*
X7695182Y-20117984D01*
X7695182Y-20117984D02*
X7714229Y-20127508D01*
X7714229Y-20127508D02*
X7723753Y-20137031D01*
X7723753Y-20137031D02*
X7733277Y-20156079D01*
X7733277Y-20156079D02*
X7742801Y-20194174D01*
X7742801Y-20194174D02*
X7742801Y-20241793D01*
X7742801Y-20241793D02*
X7733277Y-20279889D01*
X7733277Y-20279889D02*
X7723753Y-20298936D01*
X7723753Y-20298936D02*
X7714229Y-20308460D01*
X7714229Y-20308460D02*
X7695182Y-20317984D01*
X7695182Y-20317984D02*
X7676134Y-20317984D01*
X7676134Y-20317984D02*
X7657086Y-20308460D01*
X7657086Y-20308460D02*
X7647563Y-20298936D01*
X7647563Y-20298936D02*
X7638039Y-20279889D01*
X7638039Y-20279889D02*
X7628515Y-20241793D01*
X7628515Y-20241793D02*
X7628515Y-20194174D01*
X7628515Y-20194174D02*
X7638039Y-20156079D01*
X7638039Y-20156079D02*
X7647563Y-20137031D01*
X7647563Y-20137031D02*
X7657086Y-20127508D01*
X7657086Y-20127508D02*
X7676134Y-20117984D01*
X7828515Y-20298936D02*
X7838039Y-20308460D01*
X7838039Y-20308460D02*
X7828515Y-20317984D01*
X7828515Y-20317984D02*
X7818991Y-20308460D01*
X7818991Y-20308460D02*
X7828515Y-20298936D01*
X7828515Y-20298936D02*
X7828515Y-20317984D01*
X8028515Y-20317984D02*
X7914229Y-20317984D01*
X7971372Y-20317984D02*
X7971372Y-20117984D01*
X7971372Y-20117984D02*
X7952325Y-20146555D01*
X7952325Y-20146555D02*
X7933277Y-20165603D01*
X7933277Y-20165603D02*
X7914229Y-20175127D01*
X8104706Y-20137031D02*
X8114229Y-20127508D01*
X8114229Y-20127508D02*
X8133277Y-20117984D01*
X8133277Y-20117984D02*
X8180896Y-20117984D01*
X8180896Y-20117984D02*
X8199944Y-20127508D01*
X8199944Y-20127508D02*
X8209467Y-20137031D01*
X8209467Y-20137031D02*
X8218991Y-20156079D01*
X8218991Y-20156079D02*
X8218991Y-20175127D01*
X8218991Y-20175127D02*
X8209467Y-20203698D01*
X8209467Y-20203698D02*
X8095182Y-20317984D01*
X8095182Y-20317984D02*
X8218991Y-20317984D01*
X8333277Y-20203698D02*
X8314229Y-20194174D01*
X8314229Y-20194174D02*
X8304706Y-20184650D01*
X8304706Y-20184650D02*
X8295182Y-20165603D01*
X8295182Y-20165603D02*
X8295182Y-20156079D01*
X8295182Y-20156079D02*
X8304706Y-20137031D01*
X8304706Y-20137031D02*
X8314229Y-20127508D01*
X8314229Y-20127508D02*
X8333277Y-20117984D01*
X8333277Y-20117984D02*
X8371372Y-20117984D01*
X8371372Y-20117984D02*
X8390420Y-20127508D01*
X8390420Y-20127508D02*
X8399944Y-20137031D01*
X8399944Y-20137031D02*
X8409468Y-20156079D01*
X8409468Y-20156079D02*
X8409468Y-20165603D01*
X8409468Y-20165603D02*
X8399944Y-20184650D01*
X8399944Y-20184650D02*
X8390420Y-20194174D01*
X8390420Y-20194174D02*
X8371372Y-20203698D01*
X8371372Y-20203698D02*
X8333277Y-20203698D01*
X8333277Y-20203698D02*
X8314229Y-20213222D01*
X8314229Y-20213222D02*
X8304706Y-20222746D01*
X8304706Y-20222746D02*
X8295182Y-20241793D01*
X8295182Y-20241793D02*
X8295182Y-20279889D01*
X8295182Y-20279889D02*
X8304706Y-20298936D01*
X8304706Y-20298936D02*
X8314229Y-20308460D01*
X8314229Y-20308460D02*
X8333277Y-20317984D01*
X8333277Y-20317984D02*
X8371372Y-20317984D01*
X8371372Y-20317984D02*
X8390420Y-20308460D01*
X8390420Y-20308460D02*
X8399944Y-20298936D01*
X8399944Y-20298936D02*
X8409468Y-20279889D01*
X8409468Y-20279889D02*
X8409468Y-20241793D01*
X8409468Y-20241793D02*
X8399944Y-20222746D01*
X8399944Y-20222746D02*
X8390420Y-20213222D01*
X8390420Y-20213222D02*
X8371372Y-20203698D01*
X8533277Y-20117984D02*
X8552325Y-20117984D01*
X8552325Y-20117984D02*
X8571372Y-20127508D01*
X8571372Y-20127508D02*
X8580896Y-20137031D01*
X8580896Y-20137031D02*
X8590420Y-20156079D01*
X8590420Y-20156079D02*
X8599944Y-20194174D01*
X8599944Y-20194174D02*
X8599944Y-20241793D01*
X8599944Y-20241793D02*
X8590420Y-20279889D01*
X8590420Y-20279889D02*
X8580896Y-20298936D01*
X8580896Y-20298936D02*
X8571372Y-20308460D01*
X8571372Y-20308460D02*
X8552325Y-20317984D01*
X8552325Y-20317984D02*
X8533277Y-20317984D01*
X8533277Y-20317984D02*
X8514229Y-20308460D01*
X8514229Y-20308460D02*
X8504706Y-20298936D01*
X8504706Y-20298936D02*
X8495182Y-20279889D01*
X8495182Y-20279889D02*
X8485658Y-20241793D01*
X8485658Y-20241793D02*
X8485658Y-20194174D01*
X8485658Y-20194174D02*
X8495182Y-20156079D01*
X8495182Y-20156079D02*
X8504706Y-20137031D01*
X8504706Y-20137031D02*
X8514229Y-20127508D01*
X8514229Y-20127508D02*
X8533277Y-20117984D01*
X8676134Y-20117984D02*
X8676134Y-20156079D01*
X8752325Y-20117984D02*
X8752325Y-20156079D01*
X9047563Y-20394174D02*
X9038039Y-20384650D01*
X9038039Y-20384650D02*
X9018991Y-20356079D01*
X9018991Y-20356079D02*
X9009468Y-20337031D01*
X9009468Y-20337031D02*
X8999944Y-20308460D01*
X8999944Y-20308460D02*
X8990420Y-20260841D01*
X8990420Y-20260841D02*
X8990420Y-20222746D01*
X8990420Y-20222746D02*
X8999944Y-20175127D01*
X8999944Y-20175127D02*
X9009468Y-20146555D01*
X9009468Y-20146555D02*
X9018991Y-20127508D01*
X9018991Y-20127508D02*
X9038039Y-20098936D01*
X9038039Y-20098936D02*
X9047563Y-20089412D01*
X9114230Y-20137031D02*
X9123753Y-20127508D01*
X9123753Y-20127508D02*
X9142801Y-20117984D01*
X9142801Y-20117984D02*
X9190420Y-20117984D01*
X9190420Y-20117984D02*
X9209468Y-20127508D01*
X9209468Y-20127508D02*
X9218991Y-20137031D01*
X9218991Y-20137031D02*
X9228515Y-20156079D01*
X9228515Y-20156079D02*
X9228515Y-20175127D01*
X9228515Y-20175127D02*
X9218991Y-20203698D01*
X9218991Y-20203698D02*
X9104706Y-20317984D01*
X9104706Y-20317984D02*
X9228515Y-20317984D01*
X9466611Y-20317984D02*
X9466611Y-20117984D01*
X9552325Y-20317984D02*
X9552325Y-20213222D01*
X9552325Y-20213222D02*
X9542801Y-20194174D01*
X9542801Y-20194174D02*
X9523753Y-20184650D01*
X9523753Y-20184650D02*
X9495182Y-20184650D01*
X9495182Y-20184650D02*
X9476134Y-20194174D01*
X9476134Y-20194174D02*
X9466611Y-20203698D01*
X9676134Y-20317984D02*
X9657087Y-20308460D01*
X9657087Y-20308460D02*
X9647563Y-20298936D01*
X9647563Y-20298936D02*
X9638039Y-20279889D01*
X9638039Y-20279889D02*
X9638039Y-20222746D01*
X9638039Y-20222746D02*
X9647563Y-20203698D01*
X9647563Y-20203698D02*
X9657087Y-20194174D01*
X9657087Y-20194174D02*
X9676134Y-20184650D01*
X9676134Y-20184650D02*
X9704706Y-20184650D01*
X9704706Y-20184650D02*
X9723753Y-20194174D01*
X9723753Y-20194174D02*
X9733277Y-20203698D01*
X9733277Y-20203698D02*
X9742801Y-20222746D01*
X9742801Y-20222746D02*
X9742801Y-20279889D01*
X9742801Y-20279889D02*
X9733277Y-20298936D01*
X9733277Y-20298936D02*
X9723753Y-20308460D01*
X9723753Y-20308460D02*
X9704706Y-20317984D01*
X9704706Y-20317984D02*
X9676134Y-20317984D01*
X9857087Y-20317984D02*
X9838039Y-20308460D01*
X9838039Y-20308460D02*
X9828515Y-20289412D01*
X9828515Y-20289412D02*
X9828515Y-20117984D01*
X10009468Y-20308460D02*
X9990420Y-20317984D01*
X9990420Y-20317984D02*
X9952325Y-20317984D01*
X9952325Y-20317984D02*
X9933277Y-20308460D01*
X9933277Y-20308460D02*
X9923753Y-20289412D01*
X9923753Y-20289412D02*
X9923753Y-20213222D01*
X9923753Y-20213222D02*
X9933277Y-20194174D01*
X9933277Y-20194174D02*
X9952325Y-20184650D01*
X9952325Y-20184650D02*
X9990420Y-20184650D01*
X9990420Y-20184650D02*
X10009468Y-20194174D01*
X10009468Y-20194174D02*
X10018992Y-20213222D01*
X10018992Y-20213222D02*
X10018992Y-20232270D01*
X10018992Y-20232270D02*
X9923753Y-20251317D01*
X10095182Y-20308460D02*
X10114230Y-20317984D01*
X10114230Y-20317984D02*
X10152325Y-20317984D01*
X10152325Y-20317984D02*
X10171373Y-20308460D01*
X10171373Y-20308460D02*
X10180896Y-20289412D01*
X10180896Y-20289412D02*
X10180896Y-20279889D01*
X10180896Y-20279889D02*
X10171373Y-20260841D01*
X10171373Y-20260841D02*
X10152325Y-20251317D01*
X10152325Y-20251317D02*
X10123753Y-20251317D01*
X10123753Y-20251317D02*
X10104706Y-20241793D01*
X10104706Y-20241793D02*
X10095182Y-20222746D01*
X10095182Y-20222746D02*
X10095182Y-20213222D01*
X10095182Y-20213222D02*
X10104706Y-20194174D01*
X10104706Y-20194174D02*
X10123753Y-20184650D01*
X10123753Y-20184650D02*
X10152325Y-20184650D01*
X10152325Y-20184650D02*
X10171373Y-20194174D01*
X10247563Y-20394174D02*
X10257087Y-20384650D01*
X10257087Y-20384650D02*
X10276134Y-20356079D01*
X10276134Y-20356079D02*
X10285658Y-20337031D01*
X10285658Y-20337031D02*
X10295182Y-20308460D01*
X10295182Y-20308460D02*
X10304706Y-20260841D01*
X10304706Y-20260841D02*
X10304706Y-20222746D01*
X10304706Y-20222746D02*
X10295182Y-20175127D01*
X10295182Y-20175127D02*
X10285658Y-20146555D01*
X10285658Y-20146555D02*
X10276134Y-20127508D01*
X10276134Y-20127508D02*
X10257087Y-20098936D01*
X10257087Y-20098936D02*
X10247563Y-20089412D01*
X10609468Y-20394174D02*
X10599944Y-20384650D01*
X10599944Y-20384650D02*
X10580896Y-20356079D01*
X10580896Y-20356079D02*
X10571373Y-20337031D01*
X10571373Y-20337031D02*
X10561849Y-20308460D01*
X10561849Y-20308460D02*
X10552325Y-20260841D01*
X10552325Y-20260841D02*
X10552325Y-20222746D01*
X10552325Y-20222746D02*
X10561849Y-20175127D01*
X10561849Y-20175127D02*
X10571373Y-20146555D01*
X10571373Y-20146555D02*
X10580896Y-20127508D01*
X10580896Y-20127508D02*
X10599944Y-20098936D01*
X10599944Y-20098936D02*
X10609468Y-20089412D01*
X10685658Y-20184650D02*
X10685658Y-20317984D01*
X10685658Y-20203698D02*
X10695182Y-20194174D01*
X10695182Y-20194174D02*
X10714230Y-20184650D01*
X10714230Y-20184650D02*
X10742801Y-20184650D01*
X10742801Y-20184650D02*
X10761849Y-20194174D01*
X10761849Y-20194174D02*
X10771373Y-20213222D01*
X10771373Y-20213222D02*
X10771373Y-20317984D01*
X10895182Y-20317984D02*
X10876134Y-20308460D01*
X10876134Y-20308460D02*
X10866611Y-20298936D01*
X10866611Y-20298936D02*
X10857087Y-20279889D01*
X10857087Y-20279889D02*
X10857087Y-20222746D01*
X10857087Y-20222746D02*
X10866611Y-20203698D01*
X10866611Y-20203698D02*
X10876134Y-20194174D01*
X10876134Y-20194174D02*
X10895182Y-20184650D01*
X10895182Y-20184650D02*
X10923754Y-20184650D01*
X10923754Y-20184650D02*
X10942801Y-20194174D01*
X10942801Y-20194174D02*
X10952325Y-20203698D01*
X10952325Y-20203698D02*
X10961849Y-20222746D01*
X10961849Y-20222746D02*
X10961849Y-20279889D01*
X10961849Y-20279889D02*
X10952325Y-20298936D01*
X10952325Y-20298936D02*
X10942801Y-20308460D01*
X10942801Y-20308460D02*
X10923754Y-20317984D01*
X10923754Y-20317984D02*
X10895182Y-20317984D01*
X11018992Y-20184650D02*
X11095182Y-20184650D01*
X11047563Y-20117984D02*
X11047563Y-20289412D01*
X11047563Y-20289412D02*
X11057087Y-20308460D01*
X11057087Y-20308460D02*
X11076134Y-20317984D01*
X11076134Y-20317984D02*
X11095182Y-20317984D01*
X11314230Y-20184650D02*
X11314230Y-20384650D01*
X11314230Y-20194174D02*
X11333277Y-20184650D01*
X11333277Y-20184650D02*
X11371373Y-20184650D01*
X11371373Y-20184650D02*
X11390420Y-20194174D01*
X11390420Y-20194174D02*
X11399944Y-20203698D01*
X11399944Y-20203698D02*
X11409468Y-20222746D01*
X11409468Y-20222746D02*
X11409468Y-20279889D01*
X11409468Y-20279889D02*
X11399944Y-20298936D01*
X11399944Y-20298936D02*
X11390420Y-20308460D01*
X11390420Y-20308460D02*
X11371373Y-20317984D01*
X11371373Y-20317984D02*
X11333277Y-20317984D01*
X11333277Y-20317984D02*
X11314230Y-20308460D01*
X11523753Y-20317984D02*
X11504706Y-20308460D01*
X11504706Y-20308460D02*
X11495182Y-20289412D01*
X11495182Y-20289412D02*
X11495182Y-20117984D01*
X11685658Y-20317984D02*
X11685658Y-20213222D01*
X11685658Y-20213222D02*
X11676134Y-20194174D01*
X11676134Y-20194174D02*
X11657087Y-20184650D01*
X11657087Y-20184650D02*
X11618992Y-20184650D01*
X11618992Y-20184650D02*
X11599944Y-20194174D01*
X11685658Y-20308460D02*
X11666611Y-20317984D01*
X11666611Y-20317984D02*
X11618992Y-20317984D01*
X11618992Y-20317984D02*
X11599944Y-20308460D01*
X11599944Y-20308460D02*
X11590420Y-20289412D01*
X11590420Y-20289412D02*
X11590420Y-20270365D01*
X11590420Y-20270365D02*
X11599944Y-20251317D01*
X11599944Y-20251317D02*
X11618992Y-20241793D01*
X11618992Y-20241793D02*
X11666611Y-20241793D01*
X11666611Y-20241793D02*
X11685658Y-20232270D01*
X11752325Y-20184650D02*
X11828515Y-20184650D01*
X11780896Y-20117984D02*
X11780896Y-20289412D01*
X11780896Y-20289412D02*
X11790420Y-20308460D01*
X11790420Y-20308460D02*
X11809468Y-20317984D01*
X11809468Y-20317984D02*
X11828515Y-20317984D01*
X11971373Y-20308460D02*
X11952325Y-20317984D01*
X11952325Y-20317984D02*
X11914230Y-20317984D01*
X11914230Y-20317984D02*
X11895182Y-20308460D01*
X11895182Y-20308460D02*
X11885658Y-20289412D01*
X11885658Y-20289412D02*
X11885658Y-20213222D01*
X11885658Y-20213222D02*
X11895182Y-20194174D01*
X11895182Y-20194174D02*
X11914230Y-20184650D01*
X11914230Y-20184650D02*
X11952325Y-20184650D01*
X11952325Y-20184650D02*
X11971373Y-20194174D01*
X11971373Y-20194174D02*
X11980896Y-20213222D01*
X11980896Y-20213222D02*
X11980896Y-20232270D01*
X11980896Y-20232270D02*
X11885658Y-20251317D01*
X12152325Y-20317984D02*
X12152325Y-20117984D01*
X12152325Y-20308460D02*
X12133277Y-20317984D01*
X12133277Y-20317984D02*
X12095182Y-20317984D01*
X12095182Y-20317984D02*
X12076134Y-20308460D01*
X12076134Y-20308460D02*
X12066611Y-20298936D01*
X12066611Y-20298936D02*
X12057087Y-20279889D01*
X12057087Y-20279889D02*
X12057087Y-20222746D01*
X12057087Y-20222746D02*
X12066611Y-20203698D01*
X12066611Y-20203698D02*
X12076134Y-20194174D01*
X12076134Y-20194174D02*
X12095182Y-20184650D01*
X12095182Y-20184650D02*
X12133277Y-20184650D01*
X12133277Y-20184650D02*
X12152325Y-20194174D01*
X12228515Y-20394174D02*
X12238039Y-20384650D01*
X12238039Y-20384650D02*
X12257087Y-20356079D01*
X12257087Y-20356079D02*
X12266611Y-20337031D01*
X12266611Y-20337031D02*
X12276134Y-20308460D01*
X12276134Y-20308460D02*
X12285658Y-20260841D01*
X12285658Y-20260841D02*
X12285658Y-20222746D01*
X12285658Y-20222746D02*
X12276134Y-20175127D01*
X12276134Y-20175127D02*
X12266611Y-20146555D01*
X12266611Y-20146555D02*
X12257087Y-20127508D01*
X12257087Y-20127508D02*
X12238039Y-20098936D01*
X12238039Y-20098936D02*
X12228515Y-20089412D01*
M02*
