%TF.GenerationSoftware,KiCad,Pcbnew,8.0.9*%
%TF.CreationDate,2025-08-04T10:44:23+12:00*%
%TF.ProjectId,xymatics-e64,78796d61-7469-4637-932d-6536342e6b69,rev?*%
%TF.SameCoordinates,Original*%
%TF.FileFunction,Paste,Bot*%
%TF.FilePolarity,Positive*%
%FSLAX46Y46*%
G04 Gerber Fmt 4.6, Leading zero omitted, Abs format (unit mm)*
G04 Created by KiCad (PCBNEW 8.0.9) date 2025-08-04 10:44:23*
%MOMM*%
%LPD*%
G01*
G04 APERTURE LIST*
G04 Aperture macros list*
%AMRoundRect*
0 Rectangle with rounded corners*
0 $1 Rounding radius*
0 $2 $3 $4 $5 $6 $7 $8 $9 X,Y pos of 4 corners*
0 Add a 4 corners polygon primitive as box body*
4,1,4,$2,$3,$4,$5,$6,$7,$8,$9,$2,$3,0*
0 Add four circle primitives for the rounded corners*
1,1,$1+$1,$2,$3*
1,1,$1+$1,$4,$5*
1,1,$1+$1,$6,$7*
1,1,$1+$1,$8,$9*
0 Add four rect primitives between the rounded corners*
20,1,$1+$1,$2,$3,$4,$5,0*
20,1,$1+$1,$4,$5,$6,$7,0*
20,1,$1+$1,$6,$7,$8,$9,0*
20,1,$1+$1,$8,$9,$2,$3,0*%
G04 Aperture macros list end*
%ADD10RoundRect,0.250000X0.262500X0.450000X-0.262500X0.450000X-0.262500X-0.450000X0.262500X-0.450000X0*%
%ADD11R,1.800000X1.200000*%
%ADD12RoundRect,0.250000X0.475000X-0.250000X0.475000X0.250000X-0.475000X0.250000X-0.475000X-0.250000X0*%
%ADD13RoundRect,0.250000X-0.250000X-0.475000X0.250000X-0.475000X0.250000X0.475000X-0.250000X0.475000X0*%
%ADD14RoundRect,0.250000X-0.262500X-0.450000X0.262500X-0.450000X0.262500X0.450000X-0.262500X0.450000X0*%
%ADD15R,1.500000X2.400000*%
%ADD16RoundRect,0.250000X0.250000X0.475000X-0.250000X0.475000X-0.250000X-0.475000X0.250000X-0.475000X0*%
%ADD17RoundRect,0.250000X-0.450000X0.262500X-0.450000X-0.262500X0.450000X-0.262500X0.450000X0.262500X0*%
%ADD18RoundRect,0.250000X1.250000X0.550000X-1.250000X0.550000X-1.250000X-0.550000X1.250000X-0.550000X0*%
%ADD19RoundRect,0.150000X-0.150000X0.512500X-0.150000X-0.512500X0.150000X-0.512500X0.150000X0.512500X0*%
%ADD20RoundRect,0.250000X0.550000X-1.250000X0.550000X1.250000X-0.550000X1.250000X-0.550000X-1.250000X0*%
%ADD21RoundRect,0.250000X-0.850000X-0.350000X0.850000X-0.350000X0.850000X0.350000X-0.850000X0.350000X0*%
%ADD22RoundRect,0.250000X-1.275000X-1.125000X1.275000X-1.125000X1.275000X1.125000X-1.275000X1.125000X0*%
%ADD23RoundRect,0.250000X-1.250000X-0.550000X1.250000X-0.550000X1.250000X0.550000X-1.250000X0.550000X0*%
%ADD24RoundRect,0.250000X0.450000X-0.262500X0.450000X0.262500X-0.450000X0.262500X-0.450000X-0.262500X0*%
%ADD25RoundRect,0.150000X-0.512500X-0.150000X0.512500X-0.150000X0.512500X0.150000X-0.512500X0.150000X0*%
%ADD26RoundRect,0.218750X0.218750X0.381250X-0.218750X0.381250X-0.218750X-0.381250X0.218750X-0.381250X0*%
%ADD27RoundRect,0.250000X-0.475000X0.250000X-0.475000X-0.250000X0.475000X-0.250000X0.475000X0.250000X0*%
%ADD28R,0.550000X1.145000*%
%ADD29R,1.145000X0.550000*%
G04 APERTURE END LIST*
D10*
%TO.C,R64*%
X98112500Y-154600000D03*
X96287500Y-154600000D03*
%TD*%
D11*
%TO.C,Y3*%
X90100000Y-151500000D03*
X86100000Y-151500000D03*
X86100000Y-149100000D03*
X90100000Y-149100000D03*
%TD*%
D12*
%TO.C,C69*%
X95000000Y-180500000D03*
X95000000Y-178600000D03*
%TD*%
D13*
%TO.C,C72*%
X100000000Y-150700000D03*
X101900000Y-150700000D03*
%TD*%
D10*
%TO.C,R77*%
X102412500Y-155900000D03*
X100587500Y-155900000D03*
%TD*%
D14*
%TO.C,R70*%
X106587500Y-176500000D03*
X108412500Y-176500000D03*
%TD*%
D15*
%TO.C,L3*%
X81750000Y-178000000D03*
X76250000Y-178000000D03*
%TD*%
D14*
%TO.C,R55*%
X82587500Y-171000000D03*
X84412500Y-171000000D03*
%TD*%
D16*
%TO.C,C76*%
X104400000Y-170500000D03*
X102500000Y-170500000D03*
%TD*%
D13*
%TO.C,C83*%
X106550000Y-164300000D03*
X108450000Y-164300000D03*
%TD*%
%TO.C,C66*%
X79050000Y-173000000D03*
X80950000Y-173000000D03*
%TD*%
%TO.C,C59*%
X93650000Y-176100000D03*
X95550000Y-176100000D03*
%TD*%
%TO.C,C84*%
X106550000Y-162200000D03*
X108450000Y-162200000D03*
%TD*%
D17*
%TO.C,R56*%
X84000000Y-173000000D03*
X84000000Y-174825000D03*
%TD*%
D13*
%TO.C,C73*%
X100000000Y-152700000D03*
X101900000Y-152700000D03*
%TD*%
D12*
%TO.C,C58*%
X83600000Y-154550000D03*
X83600000Y-152650000D03*
%TD*%
D10*
%TO.C,R42*%
X97912500Y-172500000D03*
X96087500Y-172500000D03*
%TD*%
%TO.C,R63*%
X98112500Y-156600000D03*
X96287500Y-156600000D03*
%TD*%
D18*
%TO.C,C68*%
X91700000Y-172500000D03*
X87300000Y-172500000D03*
%TD*%
D19*
%TO.C,U23*%
X78550000Y-166862500D03*
X79500000Y-166862500D03*
X80450000Y-166862500D03*
X80450000Y-169137500D03*
X79500000Y-169137500D03*
X78550000Y-169137500D03*
%TD*%
D20*
%TO.C,C62*%
X78500000Y-163200000D03*
X78500000Y-158800000D03*
%TD*%
D10*
%TO.C,R54*%
X84412500Y-168500000D03*
X82587500Y-168500000D03*
%TD*%
D13*
%TO.C,C77*%
X111050000Y-181000000D03*
X112950000Y-181000000D03*
%TD*%
D10*
%TO.C,R69*%
X108412500Y-174550000D03*
X106587500Y-174550000D03*
%TD*%
D18*
%TO.C,C67*%
X91700000Y-178500000D03*
X87300000Y-178500000D03*
%TD*%
D10*
%TO.C,R67*%
X98600000Y-169900000D03*
X96775000Y-169900000D03*
%TD*%
D21*
%TO.C,Q10*%
X97200000Y-188060000D03*
D22*
X101825000Y-184255000D03*
X101825000Y-187305000D03*
X105175000Y-184255000D03*
X105175000Y-187305000D03*
D21*
X97200000Y-183500000D03*
%TD*%
D16*
%TO.C,C57*%
X92650000Y-153700000D03*
X90750000Y-153700000D03*
%TD*%
D23*
%TO.C,C70*%
X89480000Y-186500000D03*
X93880000Y-186500000D03*
%TD*%
D24*
%TO.C,R68*%
X85000000Y-165500000D03*
X85000000Y-163675000D03*
%TD*%
D17*
%TO.C,R75*%
X104250000Y-166587500D03*
X104250000Y-168412500D03*
%TD*%
D24*
%TO.C,R57*%
X84000000Y-178325000D03*
X84000000Y-176500000D03*
%TD*%
D25*
%TO.C,U27*%
X102362500Y-176450000D03*
X102362500Y-175500000D03*
X102362500Y-174550000D03*
X104637500Y-174550000D03*
X104637500Y-176450000D03*
%TD*%
D10*
%TO.C,R66*%
X98112500Y-150600000D03*
X96287500Y-150600000D03*
%TD*%
%TO.C,R65*%
X98112500Y-152600000D03*
X96287500Y-152600000D03*
%TD*%
D26*
%TO.C,L4*%
X108562500Y-168400000D03*
X106437500Y-168400000D03*
%TD*%
D27*
%TO.C,C64*%
X82500000Y-164500000D03*
X82500000Y-166400000D03*
%TD*%
D10*
%TO.C,R79*%
X91512500Y-182400000D03*
X89687500Y-182400000D03*
%TD*%
D21*
%TO.C,U24*%
X76600000Y-188060000D03*
D22*
X81225000Y-184255000D03*
X81225000Y-187305000D03*
X84575000Y-184255000D03*
X84575000Y-187305000D03*
D21*
X76600000Y-183500000D03*
%TD*%
D13*
%TO.C,C82*%
X106550000Y-166400000D03*
X108450000Y-166400000D03*
%TD*%
D27*
%TO.C,C63*%
X76500000Y-166550000D03*
X76500000Y-168450000D03*
%TD*%
D28*
%TO.C,U26*%
X94000000Y-158902500D03*
X94800000Y-158902500D03*
X95600000Y-158902500D03*
X96400000Y-158902500D03*
X97200000Y-158902500D03*
X98000000Y-158902500D03*
D29*
X98097500Y-160000000D03*
D28*
X98000000Y-161097500D03*
X97200000Y-161097500D03*
X96400000Y-161097500D03*
X95600000Y-161097500D03*
X94800000Y-161097500D03*
X94000000Y-161097500D03*
D29*
X93902500Y-160000000D03*
%TD*%
D27*
%TO.C,C65*%
X76500000Y-170100000D03*
X76500000Y-172000000D03*
%TD*%
M02*
