M48
; DRILL file {KiCad 8.0.9} date 2025-08-04T10:44:08+1200
; FORMAT={-:-/ absolute / metric / decimal}
; #@! TF.CreationDate,2025-08-04T10:44:08+12:00
; #@! TF.GenerationSoftware,Kicad,Pcbnew,8.0.9
; #@! TF.FileFunction,Plated,1,2,PTH
FMAT,2
METRIC
; #@! TA.AperFunction,Plated,PTH,ViaDrill
T1C0.300
; #@! TA.AperFunction,Plated,PTH,ComponentDrill
T2C0.762
; #@! TA.AperFunction,Plated,PTH,ComponentDrill
T3C0.890
; #@! TA.AperFunction,Plated,PTH,ComponentDrill
T4C0.900
; #@! TA.AperFunction,Plated,PTH,ComponentDrill
T5C0.920
; #@! TA.AperFunction,Plated,PTH,ComponentDrill
T6C0.950
; #@! TA.AperFunction,Plated,PTH,ComponentDrill
T7C1.000
; #@! TA.AperFunction,Plated,PTH,ComponentDrill
T8C1.020
; #@! TA.AperFunction,Plated,PTH,ComponentDrill
T9C1.300
; #@! TA.AperFunction,Plated,PTH,ComponentDrill
T10C1.630
; #@! TA.AperFunction,Plated,PTH,ComponentDrill
T11C2.000
; #@! TA.AperFunction,Plated,PTH,ComponentDrill
T12C2.300
; #@! TA.AperFunction,Plated,PTH,ComponentDrill
T13C2.700
; #@! TA.AperFunction,Plated,PTH,ComponentDrill
T14C3.000
%
G90
G05
T1
X63.0Y-81.0
X63.4Y-83.6
X64.2Y-95.0
X66.8Y-83.8
X66.8Y-86.0
X66.8Y-87.9
X71.0Y-102.0
X71.7Y-90.0
X76.0Y-174.0
X77.0Y-103.0
X78.5Y-171.5
X78.6Y-184.2
X78.9Y-181.2
X78.9Y-182.5
X79.0Y-177.0
X79.0Y-187.2
X79.5Y-171.0
X80.4Y-182.1
X81.4Y-169.0
X81.5Y-170.0
X82.6Y-98.915
X83.3Y-159.6
X83.3Y-160.8
X83.8Y-163.6
X84.2Y-179.9
X85.2Y-158.92
X85.4Y-166.8
X85.5Y-181.1
X86.8Y-163.8
X86.8Y-169.7
X87.0Y-181.3
X87.3Y-168.7
X87.4Y-188.5
X87.45Y-167.05
X87.9Y-169.9
X88.4Y-182.7
X88.7Y-169.9
X89.2Y-159.8
X89.5Y-176.7
X89.6Y-169.9
X89.7Y-172.931
X89.702Y-163.247
X89.9Y-184.9
X90.3Y-47.0
X90.3Y-50.5
X90.479Y-162.965
X90.5Y-169.9
X90.8Y-156.2
X91.0Y-165.0
X91.515Y-161.953
X91.8Y-162.7
X92.0Y-51.3
X92.3Y-164.3
X92.6Y-161.3
X93.0Y-50.5
X93.063Y-174.016
X93.1Y-169.0
X93.15Y-165.378
X93.2Y-157.5
X93.2Y-162.7
X93.485Y-168.112
X93.7Y-174.5
X93.854Y-162.17
X93.9Y-165.8
X93.9Y-183.2
X94.0Y-52.0
X94.0Y-153.4
X94.1Y-167.6
X94.1Y-170.9
X94.1Y-170.0
X94.6Y-184.3
X94.7Y-165.8
X95.4Y-163.0
X95.599Y-183.35
X95.6Y-161.097
X95.9Y-185.6
X96.3Y-165.8
X96.3Y-174.2
X96.699Y-162.9
X96.7Y-175.6
X97.2Y-153.7
X97.2Y-174.225
X97.2Y-189.2
X97.726Y-175.425
X98.084Y-165.568
X98.15Y-174.1
X98.5Y-162.75
X98.824Y-166.524
X98.9Y-167.7
X98.9Y-177.0
X99.125Y-156.9
X99.3Y-188.6
X99.9Y-157.6
X100.0Y-46.0
X100.0Y-68.0
X100.174Y-178.826
X100.582Y-157.159
X100.633Y-178.0
X100.991Y-173.133
X101.0Y-95.3
X101.2Y-65.0
X101.4Y-189.18
X101.5Y-169.0
X101.5Y-178.9
X101.6Y-164.9
X102.0Y-64.0
X102.25Y-168.0
X102.307Y-172.107
X102.479Y-168.779
X103.25Y-178.9
X103.25Y-181.0
X103.252Y-159.065
X103.5Y-175.5
X103.8Y-156.1
X104.0Y-179.5
X104.6Y-156.1
X105.0Y-103.0
X105.6Y-156.6
X106.0Y-171.0
X106.0Y-178.0
X106.0Y-179.5
X106.0Y-180.5
X107.0Y-172.75
X107.25Y-178.0
X107.55Y-164.3
X107.8Y-160.5
X108.5Y-75.8
X108.75Y-170.5
X108.75Y-172.5
X108.75Y-182.0
X109.0Y-51.0
X109.0Y-76.5
X109.0Y-77.3
X109.0Y-79.6
X109.4Y-95.0
X109.496Y-53.757
X109.9Y-76.5
X110.0Y-79.6
X110.0Y-85.0
X110.395Y-71.014
X110.595Y-71.906
X110.794Y-81.098
X110.795Y-44.196
X111.07Y-50.22
X111.5Y-63.4
X111.997Y-83.012
X112.0Y-70.0
X112.7Y-93.3
X112.732Y-80.935
X113.0Y-46.0
X113.0Y-83.6
X113.7Y-179.2
X114.0Y-182.0
X114.75Y-167.75
X116.0Y-89.0
X116.0Y-90.0
X116.2Y-72.2
X116.4Y-83.0
X117.0Y-63.0
X117.0Y-81.5
X117.3Y-83.1
X117.4Y-72.0
X118.284Y-66.027
X118.4Y-73.0
X118.411Y-71.906
X118.967Y-51.129
X119.0Y-82.0
X119.0Y-88.0
X119.657Y-66.899
X119.737Y-85.954
X119.805Y-44.438
X120.3Y-73.8
X120.35Y-102.5
X120.903Y-50.276
X120.903Y-71.903
X121.0Y-87.0
X122.0Y-65.3
X124.15Y-102.5
X124.707Y-70.724
X125.0Y-90.8
X125.146Y-72.381
X125.723Y-50.128
X126.0Y-66.0
X126.0Y-94.0
X126.05Y-70.725
X126.463Y-71.488
X126.764Y-47.694
X127.0Y-50.4
X127.0Y-74.0
X127.3Y-70.7
X128.0Y-74.0
X128.7Y-72.1
X128.7Y-73.0
X129.1Y-52.0
X129.1Y-66.0
X130.0Y-50.0
X130.0Y-85.5
X130.0Y-97.7
X131.5Y-94.6
X132.2Y-88.9
X132.999Y-74.001
X133.601Y-73.4
X134.0Y-45.7
X134.5Y-73.0
X134.5Y-96.1
X134.5Y-98.0
X135.4Y-73.0
X135.5Y-96.1
X136.3Y-96.1
X138.888Y-96.085
X139.4Y-96.7
X140.0Y-97.3
X140.7Y-98.0
X147.0Y-108.0
X172.0Y-114.0
X176.0Y-118.0
X178.0Y-114.0
X183.6Y-108.4
X184.0Y-110.0
X184.5Y-62.95
X184.5Y-63.75
X187.551Y-59.7
X187.749Y-62.9
X187.75Y-63.75
X187.75Y-64.55
X187.75Y-67.5
X187.75Y-68.3
X187.752Y-60.75
X187.752Y-62.1
X188.0Y-106.0
X189.497Y-114.241
X189.7Y-77.1
X189.75Y-60.25
X189.75Y-115.0
X189.8Y-100.2
X190.4Y-76.4
X191.14Y-60.86
X192.35Y-63.2
X192.35Y-64.0
X192.75Y-69.75
X193.316Y-69.184
X193.35Y-65.057
X193.85Y-66.0
X194.0Y-108.0
X194.75Y-66.5
X195.925Y-107.5
X195.925Y-110.8
X196.049Y-66.951
X196.775Y-107.5
X196.775Y-110.8
X197.25Y-67.25
X197.425Y-109.0
X197.425Y-112.284
X197.85Y-68.0
X198.275Y-109.0
X198.275Y-112.284
X200.75Y-111.5
X200.75Y-114.0
X201.25Y-114.75
X201.8Y-71.2
X202.0Y-68.8
X202.0Y-69.8
X202.444Y-68.134
X202.6Y-75.8
X202.6Y-77.0
X202.624Y-77.824
X202.75Y-103.401
X202.75Y-110.75
X203.2Y-101.2
X203.2Y-102.0
X204.6Y-74.0
X204.6Y-103.4
X205.0Y-110.6
X205.2Y-73.2
X212.45Y-111.0
X213.25Y-111.0
X215.0Y-62.4
X215.4Y-103.0
X215.7Y-63.0
X216.3Y-61.1
X217.203Y-61.184
X220.453Y-62.464
X220.6Y-60.0
X221.0Y-73.6
X221.2Y-60.8
X221.401Y-59.4
X221.6Y-87.8
X222.0Y-105.6
X223.0Y-79.0
X223.6Y-61.2
X223.6Y-62.6
X223.6Y-74.0
X223.7Y-59.4
X224.0Y-42.0
X224.0Y-66.0
X224.04Y-70.941
X224.2Y-105.6
X224.4Y-62.8
X224.499Y-72.999
X224.641Y-70.34
X225.0Y-54.0
X225.0Y-58.417
X225.0Y-74.6
X225.101Y-73.601
X225.2Y-62.8
X225.8Y-63.4
X226.2Y-64.2
X226.424Y-91.776
X226.6Y-93.8
X226.6Y-95.8
X226.8Y-55.6
X227.0Y-76.0
X227.024Y-68.224
X227.1Y-77.0
X227.4Y-36.3
X227.4Y-65.2
X227.4Y-67.0
X227.646Y-71.225
X227.646Y-72.075
X228.0Y-37.0
X228.4Y-89.5
X230.824Y-75.424
X230.888Y-72.423
X231.0Y-56.0
X231.0Y-122.9
X231.6Y-71.8
X231.6Y-74.8
X232.0Y-38.0
X232.4Y-71.8
X232.4Y-73.0
X235.0Y-81.7
X235.599Y-73.7
X236.201Y-74.3
X236.8Y-70.2
X236.8Y-72.2
X238.0Y-56.0
X238.0Y-74.4
X238.6Y-46.6
X238.6Y-55.2
X238.6Y-86.6
X238.75Y-72.75
X239.2Y-52.714
X239.8Y-45.6
X239.8Y-49.6
X240.0Y-97.0
T2
X187.7Y-30.39
X187.7Y-32.93
X187.7Y-35.47
X187.7Y-38.01
T3
X231.24Y-106.44
X232.5Y-103.9
X233.78Y-106.44
X235.04Y-103.9
X236.32Y-106.44
X237.58Y-103.9
X238.86Y-106.44
X240.12Y-103.9
T5
X230.238Y-88.5
X230.238Y-91.0
X230.238Y-93.0
X230.238Y-95.5
X232.858Y-88.5
X232.858Y-91.0
X232.858Y-93.0
X232.858Y-95.5
T6
X70.41Y-29.5
X72.91Y-29.5
X75.41Y-29.5
X77.91Y-29.5
X91.61Y-29.5
X94.11Y-29.5
X96.61Y-29.5
X99.11Y-29.5
X99.95Y-71.3
X99.95Y-78.425
X99.95Y-85.5
X102.45Y-71.3
X102.45Y-78.425
X102.45Y-85.5
X104.95Y-71.3
X104.95Y-78.425
X104.95Y-85.5
X111.475Y-171.25
X111.475Y-173.75
X111.475Y-176.25
X111.475Y-178.75
X112.81Y-29.5
X115.31Y-29.5
X117.81Y-29.5
X120.31Y-29.5
X134.01Y-29.5
X136.51Y-29.5
X139.01Y-29.5
X141.51Y-29.5
X155.3Y-29.5
X157.8Y-29.5
X160.3Y-29.5
X162.8Y-29.5
X242.75Y-63.65
X242.75Y-66.15
X242.75Y-68.65
X242.75Y-71.15
T7
X65.27Y-35.225
X65.27Y-42.845
X65.27Y-45.385
X65.27Y-47.925
X67.81Y-35.225
X67.81Y-47.925
X70.35Y-35.225
X70.35Y-47.925
X72.89Y-35.225
X72.89Y-47.925
X74.0Y-96.375
X74.0Y-98.915
X74.0Y-101.455
X75.43Y-35.225
X75.43Y-47.925
X77.97Y-35.225
X77.97Y-47.925
X80.51Y-35.225
X80.51Y-47.925
X83.05Y-35.225
X83.05Y-47.925
X86.47Y-35.225
X86.47Y-42.845
X86.47Y-45.385
X86.47Y-47.925
X89.01Y-35.225
X89.01Y-47.925
X91.55Y-35.225
X91.55Y-47.925
X94.09Y-35.225
X94.09Y-47.925
X96.63Y-35.225
X96.63Y-47.925
X99.17Y-35.225
X99.17Y-47.925
X101.71Y-35.225
X101.71Y-47.925
X102.45Y-92.5
X104.25Y-35.225
X104.25Y-47.925
X104.95Y-92.5
X107.67Y-35.225
X107.67Y-42.845
X107.67Y-45.385
X107.67Y-47.925
X110.21Y-35.225
X110.21Y-47.925
X111.475Y-151.5
X111.475Y-154.0
X111.5Y-162.75
X111.5Y-165.25
X112.75Y-35.225
X112.75Y-47.925
X115.29Y-35.225
X115.29Y-47.925
X117.83Y-35.225
X117.83Y-47.925
X120.37Y-35.225
X120.37Y-47.925
X122.91Y-35.225
X122.91Y-47.925
X125.45Y-35.225
X125.45Y-47.925
X128.87Y-35.225
X128.87Y-42.845
X128.87Y-45.385
X128.87Y-47.925
X131.41Y-35.225
X131.41Y-47.925
X133.95Y-35.225
X133.95Y-47.925
X134.0Y-87.0
X134.0Y-89.54
X134.0Y-92.08
X134.0Y-94.62
X136.49Y-35.225
X136.49Y-47.925
X139.03Y-35.225
X139.03Y-47.925
X141.57Y-35.225
X141.57Y-47.925
X144.11Y-35.225
X144.11Y-47.925
X146.65Y-35.225
X146.65Y-47.925
X150.16Y-35.225
X150.16Y-42.845
X150.16Y-45.385
X150.16Y-47.925
X152.0Y-68.8
X152.0Y-75.8
X152.0Y-82.8
X152.0Y-89.8
X152.0Y-96.8
X152.7Y-35.225
X152.7Y-47.925
X154.5Y-68.8
X154.5Y-75.8
X154.5Y-82.8
X154.5Y-89.8
X154.5Y-96.8
X155.24Y-35.225
X155.24Y-47.925
X157.78Y-35.225
X157.78Y-47.925
X160.32Y-35.225
X160.32Y-47.925
X162.86Y-35.225
X162.86Y-47.925
X165.4Y-35.225
X165.4Y-47.925
X167.94Y-35.225
X167.94Y-47.925
X227.125Y-30.925
X227.125Y-33.465
X228.8Y-41.66
X228.8Y-44.2
X228.8Y-46.74
X228.8Y-49.28
X229.665Y-30.925
X229.665Y-33.465
T8
X75.15Y-114.5
X75.15Y-117.5
X78.15Y-114.5
X78.15Y-117.5
X86.55Y-114.5
X86.55Y-117.5
X86.6Y-158.32
X86.6Y-161.32
X89.55Y-114.5
X89.55Y-117.5
X89.6Y-158.32
X89.6Y-161.32
X97.95Y-114.5
X97.95Y-117.5
X100.95Y-114.5
X100.95Y-117.5
X109.35Y-114.5
X109.35Y-117.5
X112.35Y-114.5
X112.35Y-117.5
X120.75Y-114.5
X120.75Y-117.5
X123.75Y-114.5
X123.75Y-117.5
X132.15Y-114.5
X132.15Y-117.5
X135.15Y-114.5
X135.15Y-117.5
X143.55Y-114.5
X143.55Y-117.5
X146.55Y-114.5
X146.55Y-117.5
X154.95Y-114.5
X154.95Y-117.5
X157.95Y-114.5
X157.95Y-117.5
X173.8Y-49.48
X173.8Y-52.02
X173.8Y-54.56
X173.8Y-57.1
X173.8Y-59.64
X173.8Y-62.18
X173.8Y-64.72
X173.8Y-67.26
X173.8Y-69.8
X173.8Y-72.34
X173.8Y-74.88
X173.8Y-77.42
X173.8Y-79.96
X173.8Y-82.5
X173.8Y-85.04
X173.8Y-87.58
X173.8Y-90.12
X173.8Y-92.66
X176.34Y-49.48
X176.34Y-52.02
X176.34Y-54.56
X176.34Y-57.1
X176.34Y-59.64
X176.34Y-62.18
X176.34Y-64.72
X176.34Y-67.26
X176.34Y-69.8
X176.34Y-72.34
X176.34Y-74.88
X176.34Y-77.42
X176.34Y-79.96
X176.34Y-82.5
X176.34Y-85.04
X176.34Y-87.58
X176.34Y-90.12
X176.34Y-92.66
X229.055Y-117.7
X231.595Y-117.7
X239.765Y-117.7
X242.305Y-117.7
T9
X59.6Y-63.4
X59.6Y-68.4
X59.6Y-75.2
X59.6Y-80.2
T10
X227.935Y-109.75
X243.425Y-109.75
T12
X229.888Y-85.43
X229.888Y-98.57
X235.568Y-85.43
X235.568Y-98.57
T13
X187.562Y-45.9
X187.562Y-93.9
X220.562Y-45.9
X220.562Y-93.9
T14
X58.75Y-119.75
X59.0Y-30.25
X78.5Y-152.56
X111.5Y-185.56
X242.0Y-30.0
T4
G00X208.6Y-113.255
M15
G01X208.6Y-115.055
M16
G05
G00X208.6Y-119.715
M15
G01X208.6Y-120.515
M16
G05
G00X223.1Y-113.255
M15
G01X223.1Y-115.055
M16
G05
G00X223.1Y-119.715
M15
G01X223.1Y-120.515
M16
G05
T11
G00X58.9Y-56.4
M15
G01X62.9Y-56.4
M16
G05
G00X68.2Y-56.4
M15
G01X72.2Y-56.4
M16
G05
M30
