%TF.GenerationSoftware,KiCad,Pcbnew,8.0.9*%
%TF.CreationDate,2025-08-04T10:44:23+12:00*%
%TF.ProjectId,xymatics-e64,78796d61-7469-4637-932d-6536342e6b69,rev?*%
%TF.SameCoordinates,Original*%
%TF.FileFunction,Soldermask,Top*%
%TF.FilePolarity,Negative*%
%FSLAX46Y46*%
G04 Gerber Fmt 4.6, Leading zero omitted, Abs format (unit mm)*
G04 Created by KiCad (PCBNEW 8.0.9) date 2025-08-04 10:44:23*
%MOMM*%
%LPD*%
G01*
G04 APERTURE LIST*
G04 Aperture macros list*
%AMRoundRect*
0 Rectangle with rounded corners*
0 $1 Rounding radius*
0 $2 $3 $4 $5 $6 $7 $8 $9 X,Y pos of 4 corners*
0 Add a 4 corners polygon primitive as box body*
4,1,4,$2,$3,$4,$5,$6,$7,$8,$9,$2,$3,0*
0 Add four circle primitives for the rounded corners*
1,1,$1+$1,$2,$3*
1,1,$1+$1,$4,$5*
1,1,$1+$1,$6,$7*
1,1,$1+$1,$8,$9*
0 Add four rect primitives between the rounded corners*
20,1,$1+$1,$2,$3,$4,$5,0*
20,1,$1+$1,$4,$5,$6,$7,0*
20,1,$1+$1,$6,$7,$8,$9,0*
20,1,$1+$1,$8,$9,$2,$3,0*%
%AMFreePoly0*
4,1,15,1.100000,0.175000,0.750000,0.175000,0.750000,-0.175000,1.100000,-0.175000,1.100000,-0.475000,0.750000,-0.475000,-0.750000,-0.475000,-1.100000,-0.475000,-1.100000,-0.175000,-0.750000,-0.175000,-0.750000,0.175000,-1.100000,0.175000,-1.100000,0.475000,1.100000,0.475000,1.100000,0.175000,1.100000,0.175000,$1*%
G04 Aperture macros list end*
%ADD10RoundRect,0.250000X-0.262500X-0.450000X0.262500X-0.450000X0.262500X0.450000X-0.262500X0.450000X0*%
%ADD11RoundRect,0.250000X0.262500X0.450000X-0.262500X0.450000X-0.262500X-0.450000X0.262500X-0.450000X0*%
%ADD12RoundRect,0.250000X-0.250000X-0.475000X0.250000X-0.475000X0.250000X0.475000X-0.250000X0.475000X0*%
%ADD13R,2.510000X1.000000*%
%ADD14RoundRect,0.250000X0.600000X0.750000X-0.600000X0.750000X-0.600000X-0.750000X0.600000X-0.750000X0*%
%ADD15O,1.700000X2.000000*%
%ADD16RoundRect,0.250000X0.250000X0.475000X-0.250000X0.475000X-0.250000X-0.475000X0.250000X-0.475000X0*%
%ADD17RoundRect,0.250000X0.550000X-1.250000X0.550000X1.250000X-0.550000X1.250000X-0.550000X-1.250000X0*%
%ADD18RoundRect,0.075000X-0.075000X0.662500X-0.075000X-0.662500X0.075000X-0.662500X0.075000X0.662500X0*%
%ADD19RoundRect,0.075000X-0.662500X0.075000X-0.662500X-0.075000X0.662500X-0.075000X0.662500X0.075000X0*%
%ADD20RoundRect,0.102000X-0.754000X0.754000X-0.754000X-0.754000X0.754000X-0.754000X0.754000X0.754000X0*%
%ADD21C,1.712000*%
%ADD22RoundRect,0.250000X0.475000X-0.250000X0.475000X0.250000X-0.475000X0.250000X-0.475000X-0.250000X0*%
%ADD23C,1.020000*%
%ADD24RoundRect,0.250001X0.499999X0.499999X-0.499999X0.499999X-0.499999X-0.499999X0.499999X-0.499999X0*%
%ADD25C,1.500000*%
%ADD26RoundRect,0.150000X0.512500X0.150000X-0.512500X0.150000X-0.512500X-0.150000X0.512500X-0.150000X0*%
%ADD27RoundRect,0.218750X-0.218750X-0.381250X0.218750X-0.381250X0.218750X0.381250X-0.218750X0.381250X0*%
%ADD28RoundRect,0.150000X-0.150000X0.587500X-0.150000X-0.587500X0.150000X-0.587500X0.150000X0.587500X0*%
%ADD29RoundRect,0.250000X-1.250000X-0.550000X1.250000X-0.550000X1.250000X0.550000X-1.250000X0.550000X0*%
%ADD30R,1.700000X1.700000*%
%ADD31O,1.700000X1.700000*%
%ADD32RoundRect,0.250000X0.725000X-0.600000X0.725000X0.600000X-0.725000X0.600000X-0.725000X-0.600000X0*%
%ADD33O,1.950000X1.700000*%
%ADD34RoundRect,0.075000X-0.075000X-0.610000X0.075000X-0.610000X0.075000X0.610000X-0.075000X0.610000X0*%
%ADD35RoundRect,0.250250X-0.699750X-0.624750X0.699750X-0.624750X0.699750X0.624750X-0.699750X0.624750X0*%
%ADD36C,6.000000*%
%ADD37RoundRect,0.250000X-1.400000X-1.000000X1.400000X-1.000000X1.400000X1.000000X-1.400000X1.000000X0*%
%ADD38RoundRect,0.100000X0.712500X0.100000X-0.712500X0.100000X-0.712500X-0.100000X0.712500X-0.100000X0*%
%ADD39RoundRect,0.250000X-0.450000X0.262500X-0.450000X-0.262500X0.450000X-0.262500X0.450000X0.262500X0*%
%ADD40RoundRect,0.112500X0.187500X0.112500X-0.187500X0.112500X-0.187500X-0.112500X0.187500X-0.112500X0*%
%ADD41R,1.250000X1.000000*%
%ADD42RoundRect,0.250000X-0.600000X-0.725000X0.600000X-0.725000X0.600000X0.725000X-0.600000X0.725000X0*%
%ADD43O,1.700000X1.950000*%
%ADD44RoundRect,0.250000X0.850000X0.350000X-0.850000X0.350000X-0.850000X-0.350000X0.850000X-0.350000X0*%
%ADD45RoundRect,0.249997X2.950003X2.650003X-2.950003X2.650003X-2.950003X-2.650003X2.950003X-2.650003X0*%
%ADD46RoundRect,0.250000X1.250000X0.550000X-1.250000X0.550000X-1.250000X-0.550000X1.250000X-0.550000X0*%
%ADD47R,1.000000X1.250000*%
%ADD48RoundRect,0.150000X0.150000X-0.512500X0.150000X0.512500X-0.150000X0.512500X-0.150000X-0.512500X0*%
%ADD49RoundRect,0.250000X1.000000X0.900000X-1.000000X0.900000X-1.000000X-0.900000X1.000000X-0.900000X0*%
%ADD50R,1.524000X0.457200*%
%ADD51RoundRect,0.250000X0.600000X0.725000X-0.600000X0.725000X-0.600000X-0.725000X0.600000X-0.725000X0*%
%ADD52RoundRect,0.150000X-0.587500X-0.150000X0.587500X-0.150000X0.587500X0.150000X-0.587500X0.150000X0*%
%ADD53RoundRect,0.250000X0.312500X0.625000X-0.312500X0.625000X-0.312500X-0.625000X0.312500X-0.625000X0*%
%ADD54RoundRect,0.250000X0.450000X-0.262500X0.450000X0.262500X-0.450000X0.262500X-0.450000X-0.262500X0*%
%ADD55C,3.250000*%
%ADD56RoundRect,0.250500X-0.499500X-0.499500X0.499500X-0.499500X0.499500X0.499500X-0.499500X0.499500X0*%
%ADD57C,2.500000*%
%ADD58R,1.000000X2.510000*%
%ADD59R,1.500000X1.500000*%
%ADD60C,3.500000*%
%ADD61RoundRect,0.150000X-0.512500X-0.150000X0.512500X-0.150000X0.512500X0.150000X-0.512500X0.150000X0*%
%ADD62RoundRect,0.243750X0.243750X0.456250X-0.243750X0.456250X-0.243750X-0.456250X0.243750X-0.456250X0*%
%ADD63RoundRect,0.250000X0.750000X-0.600000X0.750000X0.600000X-0.750000X0.600000X-0.750000X-0.600000X0*%
%ADD64O,2.000000X1.700000*%
%ADD65RoundRect,0.102000X-0.685000X0.685000X-0.685000X-0.685000X0.685000X-0.685000X0.685000X0.685000X0*%
%ADD66C,1.574000*%
%ADD67C,3.000000*%
%ADD68RoundRect,0.250001X-0.499999X-0.499999X0.499999X-0.499999X0.499999X0.499999X-0.499999X0.499999X0*%
%ADD69RoundRect,0.250000X-0.475000X0.250000X-0.475000X-0.250000X0.475000X-0.250000X0.475000X0.250000X0*%
%ADD70RoundRect,0.243750X-0.243750X-0.456250X0.243750X-0.456250X0.243750X0.456250X-0.243750X0.456250X0*%
%ADD71R,1.500000X0.800000*%
%ADD72R,2.000000X1.450000*%
%ADD73RoundRect,0.150000X-0.825000X-0.150000X0.825000X-0.150000X0.825000X0.150000X-0.825000X0.150000X0*%
%ADD74RoundRect,0.150000X-0.150000X0.512500X-0.150000X-0.512500X0.150000X-0.512500X0.150000X0.512500X0*%
%ADD75RoundRect,0.243750X0.456250X-0.243750X0.456250X0.243750X-0.456250X0.243750X-0.456250X-0.243750X0*%
%ADD76RoundRect,0.112500X-0.112500X0.187500X-0.112500X-0.187500X0.112500X-0.187500X0.112500X0.187500X0*%
%ADD77R,1.524000X1.524000*%
%ADD78C,1.524000*%
%ADD79R,1.500000X2.400000*%
%ADD80RoundRect,0.102000X-0.350000X0.100000X-0.350000X-0.100000X0.350000X-0.100000X0.350000X0.100000X0*%
%ADD81C,6.004000*%
%ADD82RoundRect,0.075000X-0.725000X-0.075000X0.725000X-0.075000X0.725000X0.075000X-0.725000X0.075000X0*%
%ADD83RoundRect,0.075000X-0.075000X-0.725000X0.075000X-0.725000X0.075000X0.725000X-0.075000X0.725000X0*%
%ADD84RoundRect,0.059250X-0.177750X0.447750X-0.177750X-0.447750X0.177750X-0.447750X0.177750X0.447750X0*%
%ADD85RoundRect,0.059250X-0.447750X0.177750X-0.447750X-0.177750X0.447750X-0.177750X0.447750X0.177750X0*%
%ADD86RoundRect,0.102000X-1.850000X1.850000X-1.850000X-1.850000X1.850000X-1.850000X1.850000X1.850000X0*%
%ADD87R,1.380000X0.450000*%
%ADD88R,1.300000X1.650000*%
%ADD89R,1.550000X1.425000*%
%ADD90R,1.900000X1.800000*%
%ADD91R,1.900000X1.000000*%
%ADD92RoundRect,0.250000X-0.725000X0.600000X-0.725000X-0.600000X0.725000X-0.600000X0.725000X0.600000X0*%
%ADD93RoundRect,0.087500X-0.725000X-0.087500X0.725000X-0.087500X0.725000X0.087500X-0.725000X0.087500X0*%
%ADD94RoundRect,0.250001X-1.149999X1.149999X-1.149999X-1.149999X1.149999X-1.149999X1.149999X1.149999X0*%
%ADD95C,2.800000*%
%ADD96RoundRect,0.250000X-0.350000X0.850000X-0.350000X-0.850000X0.350000X-0.850000X0.350000X0.850000X0*%
%ADD97RoundRect,0.249997X-2.650003X2.950003X-2.650003X-2.950003X2.650003X-2.950003X2.650003X2.950003X0*%
%ADD98R,1.800000X1.200000*%
%ADD99FreePoly0,0.000000*%
%ADD100RoundRect,0.075000X-0.100000X-0.075000X0.100000X-0.075000X0.100000X0.075000X-0.100000X0.075000X0*%
%ADD101RoundRect,0.058750X-0.376250X-0.058750X0.376250X-0.058750X0.376250X0.058750X-0.376250X0.058750X0*%
%ADD102R,0.300000X2.600000*%
%ADD103O,1.500000X3.300000*%
%ADD104O,1.500000X2.300000*%
%ADD105RoundRect,0.150000X-0.150000X0.825000X-0.150000X-0.825000X0.150000X-0.825000X0.150000X0.825000X0*%
%ADD106O,8.000000X3.800000*%
G04 APERTURE END LIST*
D10*
%TO.C,R47*%
X82387500Y-188300000D03*
X84212500Y-188300000D03*
%TD*%
D11*
%TO.C,R41*%
X81412500Y-157500000D03*
X79587500Y-157500000D03*
%TD*%
D12*
%TO.C,C71*%
X66750000Y-67400000D03*
X68650000Y-67400000D03*
%TD*%
D13*
%TO.C,J34*%
X79255000Y-185430000D03*
X75945000Y-187970000D03*
%TD*%
D14*
%TO.C,J29*%
X154500000Y-89800000D03*
D15*
X152000000Y-89800000D03*
%TD*%
D16*
%TO.C,C31*%
X126200000Y-32425000D03*
X124300000Y-32425000D03*
%TD*%
D17*
%TO.C,C49*%
X72700000Y-81000000D03*
X72700000Y-76600000D03*
%TD*%
D18*
%TO.C,U20*%
X98750000Y-164337500D03*
X98250000Y-164337500D03*
X97750000Y-164337500D03*
X97250000Y-164337500D03*
X96750000Y-164337500D03*
X96250000Y-164337500D03*
X95750000Y-164337500D03*
X95250000Y-164337500D03*
X94750000Y-164337500D03*
X94250000Y-164337500D03*
X93750000Y-164337500D03*
X93250000Y-164337500D03*
D19*
X91837500Y-165750000D03*
X91837500Y-166250000D03*
X91837500Y-166750000D03*
X91837500Y-167250000D03*
X91837500Y-167750000D03*
X91837500Y-168250000D03*
X91837500Y-168750000D03*
X91837500Y-169250000D03*
X91837500Y-169750000D03*
X91837500Y-170250000D03*
X91837500Y-170750000D03*
X91837500Y-171250000D03*
D18*
X93250000Y-172662500D03*
X93750000Y-172662500D03*
X94250000Y-172662500D03*
X94750000Y-172662500D03*
X95250000Y-172662500D03*
X95750000Y-172662500D03*
X96250000Y-172662500D03*
X96750000Y-172662500D03*
X97250000Y-172662500D03*
X97750000Y-172662500D03*
X98250000Y-172662500D03*
X98750000Y-172662500D03*
D19*
X100162500Y-171250000D03*
X100162500Y-170750000D03*
X100162500Y-170250000D03*
X100162500Y-169750000D03*
X100162500Y-169250000D03*
X100162500Y-168750000D03*
X100162500Y-168250000D03*
X100162500Y-167750000D03*
X100162500Y-167250000D03*
X100162500Y-166750000D03*
X100162500Y-166250000D03*
X100162500Y-165750000D03*
%TD*%
D20*
%TO.C,U12*%
X104250000Y-35225000D03*
D21*
X101710000Y-35225000D03*
X99170000Y-35225000D03*
X96630000Y-35225000D03*
X94090000Y-35225000D03*
X91550000Y-35225000D03*
X89010000Y-35225000D03*
X86470000Y-35225000D03*
X104250000Y-47925000D03*
X101710000Y-47925000D03*
X99170000Y-47925000D03*
X96630000Y-47925000D03*
X94090000Y-47925000D03*
X91550000Y-47925000D03*
X89010000Y-47925000D03*
X86470000Y-47925000D03*
X86470000Y-42845000D03*
X86470000Y-45385000D03*
%TD*%
D17*
%TO.C,C48*%
X78800000Y-81000000D03*
X78800000Y-76600000D03*
%TD*%
D22*
%TO.C,C9*%
X236800000Y-59350000D03*
X236800000Y-57450000D03*
%TD*%
D23*
%TO.C,J20*%
X115350000Y-113560000D03*
X106350000Y-113560000D03*
D24*
X112350000Y-117500000D03*
D25*
X109350000Y-117500000D03*
X112350000Y-114500000D03*
X109350000Y-114500000D03*
%TD*%
D11*
%TO.C,R12*%
X139942500Y-45760000D03*
X138117500Y-45760000D03*
%TD*%
%TO.C,R48*%
X102112500Y-96500000D03*
X100287500Y-96500000D03*
%TD*%
D10*
%TO.C,R46*%
X82387500Y-182000000D03*
X84212500Y-182000000D03*
%TD*%
D22*
%TO.C,C8*%
X234650000Y-59350000D03*
X234650000Y-57450000D03*
%TD*%
D14*
%TO.C,J28*%
X154500000Y-82800000D03*
D15*
X152000000Y-82800000D03*
%TD*%
D11*
%TO.C,R52*%
X111250000Y-158250000D03*
X109425000Y-158250000D03*
%TD*%
D26*
%TO.C,U3*%
X206275000Y-113400000D03*
X206275000Y-112450000D03*
X206275000Y-111500000D03*
X204000000Y-111500000D03*
X204000000Y-113400000D03*
%TD*%
D11*
%TO.C,R43*%
X102412500Y-160000000D03*
X100587500Y-160000000D03*
%TD*%
D27*
%TO.C,L2*%
X112400000Y-86000000D03*
X114525000Y-86000000D03*
%TD*%
D12*
%TO.C,C3*%
X228250000Y-82200000D03*
X230150000Y-82200000D03*
%TD*%
D28*
%TO.C,Q6*%
X148050000Y-93862500D03*
X146150000Y-93862500D03*
X147100000Y-95737500D03*
%TD*%
D29*
%TO.C,C38*%
X135560000Y-41575000D03*
X139960000Y-41575000D03*
%TD*%
D30*
%TO.C,J9*%
X227125000Y-30925000D03*
D31*
X229665000Y-30925000D03*
X227125000Y-33465000D03*
X229665000Y-33465000D03*
%TD*%
D32*
%TO.C,J44*%
X111475000Y-178750000D03*
D33*
X111475000Y-176250000D03*
X111475000Y-173750000D03*
X111475000Y-171250000D03*
%TD*%
D12*
%TO.C,C81*%
X66750000Y-60900000D03*
X68650000Y-60900000D03*
%TD*%
D16*
%TO.C,C39*%
X168800000Y-32425000D03*
X166900000Y-32425000D03*
%TD*%
D34*
%TO.C,J4*%
X183100000Y-116270000D03*
X183600000Y-116270000D03*
X184100000Y-116270000D03*
X184600000Y-116270000D03*
X185100000Y-116270000D03*
X185600000Y-116270000D03*
X186100000Y-116270000D03*
X186600000Y-116270000D03*
X187100000Y-116270000D03*
X187600000Y-116270000D03*
X188100000Y-116270000D03*
X188600000Y-116270000D03*
X189100000Y-116270000D03*
X189600000Y-116270000D03*
X190100000Y-116270000D03*
D35*
X184100000Y-120340000D03*
X189100000Y-120340000D03*
%TD*%
D36*
%TO.C,H2*%
X111500000Y-185560000D03*
%TD*%
D26*
%TO.C,U16*%
X70237500Y-87950000D03*
X70237500Y-87000000D03*
X70237500Y-86050000D03*
X67962500Y-86050000D03*
X67962500Y-87000000D03*
X67962500Y-87950000D03*
%TD*%
D28*
%TO.C,Q4*%
X148050000Y-79862500D03*
X146150000Y-79862500D03*
X147100000Y-81737500D03*
%TD*%
D10*
%TO.C,R49*%
X103887500Y-96500000D03*
X105712500Y-96500000D03*
%TD*%
D37*
%TO.C,D14*%
X84400000Y-169000000D03*
X84400000Y-175800000D03*
%TD*%
D11*
%TO.C,R11*%
X118742500Y-45760000D03*
X116917500Y-45760000D03*
%TD*%
D38*
%TO.C,U4*%
X233837500Y-78422500D03*
X233837500Y-77787500D03*
X233837500Y-77152500D03*
X233837500Y-76517500D03*
X233837500Y-75882500D03*
X233837500Y-75247500D03*
X233837500Y-74612500D03*
X233837500Y-73977500D03*
X228562500Y-73977500D03*
X228562500Y-74612500D03*
X228562500Y-75247500D03*
X228562500Y-75882500D03*
X228562500Y-76517500D03*
X228562500Y-77152500D03*
X228562500Y-77787500D03*
X228562500Y-78422500D03*
%TD*%
D39*
%TO.C,R38*%
X137000000Y-87387500D03*
X137000000Y-89212500D03*
%TD*%
D13*
%TO.C,J33*%
X79255000Y-179130000D03*
X75945000Y-181670000D03*
%TD*%
D14*
%TO.C,J35*%
X104950000Y-92500000D03*
D15*
X102450000Y-92500000D03*
%TD*%
D16*
%TO.C,C47*%
X74900000Y-91300000D03*
X73000000Y-91300000D03*
%TD*%
D30*
%TO.C,J12*%
X134000000Y-87000000D03*
D31*
X134000000Y-89540000D03*
X134000000Y-92080000D03*
X134000000Y-94620000D03*
%TD*%
D40*
%TO.C,D5*%
X148250000Y-70000000D03*
X146150000Y-70000000D03*
%TD*%
D16*
%TO.C,C27*%
X105000000Y-32425000D03*
X103100000Y-32425000D03*
%TD*%
D29*
%TO.C,C34*%
X114360000Y-41575000D03*
X118760000Y-41575000D03*
%TD*%
D10*
%TO.C,R81*%
X117925000Y-92000000D03*
X119750000Y-92000000D03*
%TD*%
D41*
%TO.C,SW1*%
X189800000Y-102000000D03*
X182050000Y-102000000D03*
%TD*%
D12*
%TO.C,C37*%
X128100000Y-30235000D03*
X130000000Y-30235000D03*
%TD*%
D20*
%TO.C,U11*%
X83050000Y-35225000D03*
D21*
X80510000Y-35225000D03*
X77970000Y-35225000D03*
X75430000Y-35225000D03*
X72890000Y-35225000D03*
X70350000Y-35225000D03*
X67810000Y-35225000D03*
X65270000Y-35225000D03*
X83050000Y-47925000D03*
X80510000Y-47925000D03*
X77970000Y-47925000D03*
X75430000Y-47925000D03*
X72890000Y-47925000D03*
X70350000Y-47925000D03*
X67810000Y-47925000D03*
X65270000Y-47925000D03*
X65270000Y-42845000D03*
X65270000Y-45385000D03*
%TD*%
D12*
%TO.C,C85*%
X66750000Y-63000000D03*
X68650000Y-63000000D03*
%TD*%
D29*
%TO.C,C30*%
X93160000Y-41575000D03*
X97560000Y-41575000D03*
%TD*%
D42*
%TO.C,J39*%
X91610000Y-29500000D03*
D43*
X94110000Y-29500000D03*
X96610000Y-29500000D03*
X99110000Y-29500000D03*
%TD*%
D12*
%TO.C,C16*%
X176000000Y-108400000D03*
X177900000Y-108400000D03*
%TD*%
D44*
%TO.C,U17*%
X68800000Y-102080000D03*
D45*
X62500000Y-99800000D03*
D44*
X68800000Y-97520000D03*
%TD*%
D11*
%TO.C,R18*%
X153912500Y-45385000D03*
X152087500Y-45385000D03*
%TD*%
D46*
%TO.C,C5*%
X243950000Y-57400000D03*
X239550000Y-57400000D03*
%TD*%
D40*
%TO.C,D7*%
X148250000Y-84000000D03*
X146150000Y-84000000D03*
%TD*%
D39*
%TO.C,R72*%
X84760000Y-57075000D03*
X84760000Y-58900000D03*
%TD*%
D47*
%TO.C,SW5*%
X95300000Y-182375000D03*
X95300000Y-174625000D03*
%TD*%
D29*
%TO.C,C26*%
X71960000Y-41575000D03*
X76360000Y-41575000D03*
%TD*%
D46*
%TO.C,C43*%
X64200000Y-87000000D03*
X59800000Y-87000000D03*
%TD*%
D48*
%TO.C,U2*%
X227850000Y-55537500D03*
X228800000Y-55537500D03*
X229750000Y-55537500D03*
X229750000Y-53262500D03*
X227850000Y-53262500D03*
%TD*%
D49*
%TO.C,D4*%
X75350000Y-66900000D03*
X71050000Y-66900000D03*
%TD*%
D11*
%TO.C,R17*%
X132612500Y-45385000D03*
X130787500Y-45385000D03*
%TD*%
D36*
%TO.C,H4*%
X242000000Y-30000000D03*
%TD*%
D20*
%TO.C,U13*%
X125450000Y-35225000D03*
D21*
X122910000Y-35225000D03*
X120370000Y-35225000D03*
X117830000Y-35225000D03*
X115290000Y-35225000D03*
X112750000Y-35225000D03*
X110210000Y-35225000D03*
X107670000Y-35225000D03*
X125450000Y-47925000D03*
X122910000Y-47925000D03*
X120370000Y-47925000D03*
X117830000Y-47925000D03*
X115290000Y-47925000D03*
X112750000Y-47925000D03*
X110210000Y-47925000D03*
X107670000Y-47925000D03*
X107670000Y-42845000D03*
X107670000Y-45385000D03*
%TD*%
D28*
%TO.C,Q5*%
X148050000Y-86862500D03*
X146150000Y-86862500D03*
X147100000Y-88737500D03*
%TD*%
D42*
%TO.C,J40*%
X112810000Y-29500000D03*
D43*
X115310000Y-29500000D03*
X117810000Y-29500000D03*
X120310000Y-29500000D03*
%TD*%
D50*
%TO.C,U9*%
X226155300Y-36225001D03*
X226155300Y-36874999D03*
X226155300Y-37525001D03*
X226155300Y-38174999D03*
X230244700Y-38174999D03*
X230244700Y-37525001D03*
X230244700Y-36874999D03*
X230244700Y-36225001D03*
%TD*%
D51*
%TO.C,J13*%
X104950000Y-71300000D03*
D43*
X102450000Y-71300000D03*
X99950000Y-71300000D03*
%TD*%
D16*
%TO.C,C46*%
X70350000Y-83800000D03*
X68450000Y-83800000D03*
%TD*%
D10*
%TO.C,R26*%
X75737500Y-109500000D03*
X77562500Y-109500000D03*
%TD*%
D23*
%TO.C,J18*%
X92550000Y-113560000D03*
X83550000Y-113560000D03*
D24*
X89550000Y-117500000D03*
D25*
X86550000Y-117500000D03*
X89550000Y-114500000D03*
X86550000Y-114500000D03*
%TD*%
D11*
%TO.C,R7*%
X129982500Y-101500000D03*
X128157500Y-101500000D03*
%TD*%
D52*
%TO.C,Q9*%
X82362500Y-184450000D03*
X82362500Y-186350000D03*
X84237500Y-185400000D03*
%TD*%
D16*
%TO.C,C44*%
X64200000Y-91100000D03*
X62300000Y-91100000D03*
%TD*%
D53*
%TO.C,R22*%
X70362500Y-90200000D03*
X67437500Y-90200000D03*
%TD*%
D11*
%TO.C,R10*%
X97542500Y-45760000D03*
X95717500Y-45760000D03*
%TD*%
D13*
%TO.C,J43*%
X79255000Y-173030000D03*
X75945000Y-175570000D03*
%TD*%
D28*
%TO.C,D12*%
X105750000Y-98600000D03*
X103850000Y-98600000D03*
X104800000Y-100475000D03*
%TD*%
D54*
%TO.C,R71*%
X80200000Y-58900000D03*
X80200000Y-57075000D03*
%TD*%
D12*
%TO.C,C28*%
X85700000Y-32425000D03*
X87600000Y-32425000D03*
%TD*%
D55*
%TO.C,J1*%
X229965000Y-112800000D03*
X241395000Y-112800000D03*
D56*
X231240000Y-106440000D03*
D25*
X232500000Y-103900000D03*
X233780000Y-106440000D03*
X235040000Y-103900000D03*
X236320000Y-106440000D03*
X237580000Y-103900000D03*
X238860000Y-106440000D03*
X240120000Y-103900000D03*
X229055000Y-117700000D03*
X231595000Y-117700000D03*
X239765000Y-117700000D03*
X242305000Y-117700000D03*
D57*
X227935000Y-109750000D03*
X243425000Y-109750000D03*
%TD*%
D12*
%TO.C,C15*%
X176000000Y-106200000D03*
X177900000Y-106200000D03*
%TD*%
%TO.C,C14*%
X176000000Y-104000000D03*
X177900000Y-104000000D03*
%TD*%
%TO.C,C4*%
X228250000Y-80000000D03*
X230150000Y-80000000D03*
%TD*%
D11*
%TO.C,R19*%
X95950000Y-73225000D03*
X94125000Y-73225000D03*
%TD*%
D16*
%TO.C,C11*%
X174000000Y-106200000D03*
X172100000Y-106200000D03*
%TD*%
D11*
%TO.C,R16*%
X111412500Y-45385000D03*
X109587500Y-45385000D03*
%TD*%
D12*
%TO.C,C79*%
X103450000Y-187500000D03*
X105350000Y-187500000D03*
%TD*%
D39*
%TO.C,R1*%
X222000000Y-107087500D03*
X222000000Y-108912500D03*
%TD*%
D10*
%TO.C,R80*%
X117925000Y-89600000D03*
X119750000Y-89600000D03*
%TD*%
D58*
%TO.C,J45*%
X95010000Y-188355000D03*
X92470000Y-185045000D03*
X89930000Y-188355000D03*
X87390000Y-185045000D03*
%TD*%
D22*
%TO.C,C20*%
X132300000Y-71950000D03*
X132300000Y-70050000D03*
%TD*%
D10*
%TO.C,R5*%
X211081300Y-99800000D03*
X212906300Y-99800000D03*
%TD*%
D22*
%TO.C,C19*%
X131100000Y-86650000D03*
X131100000Y-84750000D03*
%TD*%
D59*
%TO.C,J7*%
X232857700Y-95500000D03*
D25*
X232857700Y-93000000D03*
X232857700Y-91000000D03*
X232857700Y-88500000D03*
X230237700Y-95500000D03*
X230237700Y-93000000D03*
X230237700Y-91000000D03*
X230237700Y-88500000D03*
D60*
X235567700Y-98570000D03*
X235567700Y-85430000D03*
X229887700Y-98570000D03*
X229887700Y-85430000D03*
%TD*%
D22*
%TO.C,C56*%
X77500000Y-159500000D03*
X77500000Y-157600000D03*
%TD*%
D61*
%TO.C,U22*%
X100612500Y-161800000D03*
X100612500Y-162750000D03*
X100612500Y-163700000D03*
X102887500Y-163700000D03*
X102887500Y-161800000D03*
%TD*%
D30*
%TO.C,J10*%
X228800000Y-41660000D03*
D31*
X228800000Y-44200000D03*
X228800000Y-46740000D03*
X228800000Y-49280000D03*
%TD*%
D26*
%TO.C,D1*%
X233937500Y-64150000D03*
X233937500Y-62250000D03*
X231662500Y-63200000D03*
%TD*%
D14*
%TO.C,J25*%
X154500000Y-68800000D03*
D15*
X152000000Y-68800000D03*
%TD*%
D52*
%TO.C,Q8*%
X82325000Y-178150000D03*
X82325000Y-180050000D03*
X84200000Y-179100000D03*
%TD*%
D62*
%TO.C,D18*%
X123375000Y-89600000D03*
X121500000Y-89600000D03*
%TD*%
D63*
%TO.C,J26*%
X111500000Y-165250000D03*
D64*
X111500000Y-162750000D03*
%TD*%
D47*
%TO.C,SW4*%
X90500000Y-182375000D03*
X90500000Y-174625000D03*
%TD*%
D42*
%TO.C,J42*%
X134010000Y-29500000D03*
D43*
X136510000Y-29500000D03*
X139010000Y-29500000D03*
X141510000Y-29500000D03*
%TD*%
D23*
%TO.C,J23*%
X149550000Y-113560000D03*
X140550000Y-113560000D03*
D24*
X146550000Y-117500000D03*
D25*
X143550000Y-117500000D03*
X146550000Y-114500000D03*
X143550000Y-114500000D03*
%TD*%
D39*
%TO.C,R34*%
X144200000Y-86887500D03*
X144200000Y-88712500D03*
%TD*%
D58*
%TO.C,J41*%
X96990000Y-150345000D03*
X99530000Y-153655000D03*
X102070000Y-150345000D03*
X104610000Y-153655000D03*
%TD*%
D65*
%TO.C,J11*%
X173800000Y-49480000D03*
D66*
X176340000Y-49480000D03*
X173800000Y-52020000D03*
X176340000Y-52020000D03*
X173800000Y-54560000D03*
X176340000Y-54560000D03*
X173800000Y-57100000D03*
X176340000Y-57100000D03*
X173800000Y-59640000D03*
X176340000Y-59640000D03*
X173800000Y-62180000D03*
X176340000Y-62180000D03*
X173800000Y-64720000D03*
X176340000Y-64720000D03*
X173800000Y-67260000D03*
X176340000Y-67260000D03*
X173800000Y-69800000D03*
X176340000Y-69800000D03*
X173800000Y-72340000D03*
X176340000Y-72340000D03*
X173800000Y-74880000D03*
X176340000Y-74880000D03*
X173800000Y-77420000D03*
X176340000Y-77420000D03*
X173800000Y-79960000D03*
X176340000Y-79960000D03*
X173800000Y-82500000D03*
X176340000Y-82500000D03*
X173800000Y-85040000D03*
X176340000Y-85040000D03*
X173800000Y-87580000D03*
X176340000Y-87580000D03*
X173800000Y-90120000D03*
X176340000Y-90120000D03*
X173800000Y-92660000D03*
X176340000Y-92660000D03*
%TD*%
D67*
%TO.C,J31*%
X88100000Y-154000000D03*
D68*
X86600000Y-158320000D03*
D25*
X89600000Y-158320000D03*
X86600000Y-161320000D03*
X89600000Y-161320000D03*
%TD*%
D69*
%TO.C,C74*%
X103500000Y-169550000D03*
X103500000Y-171450000D03*
%TD*%
D63*
%TO.C,J36*%
X111475000Y-154000000D03*
D64*
X111475000Y-151500000D03*
%TD*%
D23*
%TO.C,J24*%
X160950000Y-113560000D03*
X151950000Y-113560000D03*
D24*
X157950000Y-117500000D03*
D25*
X154950000Y-117500000D03*
X157950000Y-114500000D03*
X154950000Y-114500000D03*
%TD*%
D70*
%TO.C,D17*%
X95162500Y-156700000D03*
X97037500Y-156700000D03*
%TD*%
D23*
%TO.C,J22*%
X138150000Y-113560000D03*
X129150000Y-113560000D03*
D24*
X135150000Y-117500000D03*
D25*
X132150000Y-117500000D03*
X135150000Y-114500000D03*
X132150000Y-114500000D03*
%TD*%
D69*
%TO.C,C18*%
X225600000Y-39850000D03*
X225600000Y-41750000D03*
%TD*%
D16*
%TO.C,C45*%
X64200000Y-93310000D03*
X62300000Y-93310000D03*
%TD*%
D51*
%TO.C,J14*%
X104950000Y-78425000D03*
D43*
X102450000Y-78425000D03*
X99950000Y-78425000D03*
%TD*%
D71*
%TO.C,J2*%
X241327500Y-43000000D03*
X241327500Y-44100000D03*
X241327500Y-45200000D03*
X241327500Y-46300000D03*
X241327500Y-47400000D03*
X241327500Y-48500000D03*
X241327500Y-49600000D03*
X241327500Y-50700000D03*
D72*
X243927500Y-39325000D03*
X235627500Y-39325000D03*
X243927500Y-53075000D03*
X235627500Y-53075000D03*
%TD*%
D73*
%TO.C,U21*%
X77000000Y-161730000D03*
X77000000Y-163000000D03*
X77000000Y-164270000D03*
X77000000Y-165540000D03*
X81950000Y-165540000D03*
X81950000Y-164270000D03*
X81950000Y-163000000D03*
X81950000Y-161730000D03*
%TD*%
D53*
%TO.C,R24*%
X79625000Y-91300000D03*
X76700000Y-91300000D03*
%TD*%
D39*
%TO.C,R33*%
X144200000Y-79887500D03*
X144200000Y-81712500D03*
%TD*%
D74*
%TO.C,U6*%
X229350000Y-61662500D03*
X228400000Y-61662500D03*
X227450000Y-61662500D03*
X227450000Y-63937500D03*
X229350000Y-63937500D03*
%TD*%
D22*
%TO.C,C6*%
X230250000Y-59350000D03*
X230250000Y-57450000D03*
%TD*%
D11*
%TO.C,R14*%
X69025000Y-45385000D03*
X67200000Y-45385000D03*
%TD*%
%TO.C,R53*%
X103412500Y-157750000D03*
X101587500Y-157750000D03*
%TD*%
D75*
%TO.C,D16*%
X95100000Y-161837500D03*
X95100000Y-159962500D03*
%TD*%
D14*
%TO.C,J30*%
X154500000Y-96800000D03*
D15*
X152000000Y-96800000D03*
%TD*%
D54*
%TO.C,R39*%
X137000000Y-94212500D03*
X137000000Y-92387500D03*
%TD*%
D52*
%TO.C,D13*%
X105562500Y-157300000D03*
X105562500Y-159200000D03*
X107437500Y-158250000D03*
%TD*%
D76*
%TO.C,D11*%
X75100000Y-184250000D03*
X75100000Y-186350000D03*
%TD*%
D10*
%TO.C,R51*%
X112925000Y-158250000D03*
X114750000Y-158250000D03*
%TD*%
D77*
%TO.C,U19*%
X187700000Y-38010000D03*
D78*
X187700000Y-35470000D03*
X187700000Y-32930000D03*
X187700000Y-30390000D03*
%TD*%
D41*
%TO.C,SW2*%
X121300000Y-98000000D03*
X113550000Y-98000000D03*
%TD*%
D12*
%TO.C,C17*%
X176000000Y-110600000D03*
X177900000Y-110600000D03*
%TD*%
D39*
%TO.C,R35*%
X144200000Y-93887500D03*
X144200000Y-95712500D03*
%TD*%
D29*
%TO.C,C42*%
X156850000Y-41575000D03*
X161250000Y-41575000D03*
%TD*%
D62*
%TO.C,D2*%
X209137500Y-103000000D03*
X207262500Y-103000000D03*
%TD*%
D39*
%TO.C,R31*%
X144200000Y-65887500D03*
X144200000Y-67712500D03*
%TD*%
D20*
%TO.C,U14*%
X146650000Y-35225000D03*
D21*
X144110000Y-35225000D03*
X141570000Y-35225000D03*
X139030000Y-35225000D03*
X136490000Y-35225000D03*
X133950000Y-35225000D03*
X131410000Y-35225000D03*
X128870000Y-35225000D03*
X146650000Y-47925000D03*
X144110000Y-47925000D03*
X141570000Y-47925000D03*
X139030000Y-47925000D03*
X136490000Y-47925000D03*
X133950000Y-47925000D03*
X131410000Y-47925000D03*
X128870000Y-47925000D03*
X128870000Y-42845000D03*
X128870000Y-45385000D03*
%TD*%
D16*
%TO.C,C10*%
X174000000Y-104000000D03*
X172100000Y-104000000D03*
%TD*%
D23*
%TO.C,J21*%
X126750000Y-113560000D03*
X117750000Y-113560000D03*
D24*
X123750000Y-117500000D03*
D25*
X120750000Y-117500000D03*
X123750000Y-114500000D03*
X120750000Y-114500000D03*
%TD*%
D11*
%TO.C,R15*%
X90225000Y-45385000D03*
X88400000Y-45385000D03*
%TD*%
D79*
%TO.C,L1*%
X73250000Y-86700000D03*
X78750000Y-86700000D03*
%TD*%
D22*
%TO.C,C7*%
X232410000Y-59350000D03*
X232410000Y-57450000D03*
%TD*%
D42*
%TO.C,J38*%
X70410000Y-29500000D03*
D43*
X72910000Y-29500000D03*
X75410000Y-29500000D03*
X77910000Y-29500000D03*
%TD*%
D80*
%TO.C,U1*%
X222602500Y-77200000D03*
X219522500Y-77200000D03*
X222602500Y-76800000D03*
X219522500Y-76800000D03*
X222602500Y-76400000D03*
X219522500Y-76400000D03*
X222602500Y-76000000D03*
X219522500Y-76000000D03*
X222602500Y-75600000D03*
X219522500Y-75600000D03*
X222602500Y-75200000D03*
X219522500Y-75200000D03*
X222602500Y-74800000D03*
X219522500Y-74800000D03*
X222602500Y-74400000D03*
X219522500Y-74400000D03*
X222602500Y-74000000D03*
X219522500Y-74000000D03*
X222602500Y-73600000D03*
X219522500Y-73600000D03*
X222602500Y-73200000D03*
X219522500Y-73200000D03*
X222602500Y-72800000D03*
X219522500Y-72800000D03*
X222602500Y-72400000D03*
X219522500Y-72400000D03*
X222602500Y-72000000D03*
X219522500Y-72000000D03*
X222602500Y-71600000D03*
X219522500Y-71600000D03*
X222602500Y-71200000D03*
X219522500Y-71200000D03*
X222602500Y-70800000D03*
X219522500Y-70800000D03*
X222602500Y-70400000D03*
X219522500Y-70400000D03*
X222602500Y-70000000D03*
X219522500Y-70000000D03*
X222602500Y-69600000D03*
X219522500Y-69600000D03*
X222602500Y-69200000D03*
X219522500Y-69200000D03*
X222602500Y-68800000D03*
X219522500Y-68800000D03*
X222602500Y-68400000D03*
X219522500Y-68400000D03*
X222602500Y-68000000D03*
X219522500Y-68000000D03*
X222602500Y-67600000D03*
X219522500Y-67600000D03*
X222602500Y-67200000D03*
X219522500Y-67200000D03*
X222602500Y-66800000D03*
X219522500Y-66800000D03*
X222602500Y-66400000D03*
X219522500Y-66400000D03*
X222602500Y-66000000D03*
X219522500Y-66000000D03*
X222602500Y-65600000D03*
X219522500Y-65600000D03*
X222602500Y-65200000D03*
X219522500Y-65200000D03*
X222602500Y-64800000D03*
X219522500Y-64800000D03*
X222602500Y-64400000D03*
X219522500Y-64400000D03*
X222602500Y-64000000D03*
X219522500Y-64000000D03*
X222602500Y-63600000D03*
X219522500Y-63600000D03*
X222602500Y-63200000D03*
X219522500Y-63200000D03*
X222602500Y-62800000D03*
X219522500Y-62800000D03*
X222602500Y-62400000D03*
X219522500Y-62400000D03*
X222602500Y-62000000D03*
X219522500Y-62000000D03*
X222602500Y-61600000D03*
X219522500Y-61600000D03*
X222602500Y-61200000D03*
X219522500Y-61200000D03*
X222602500Y-60800000D03*
X219522500Y-60800000D03*
X222602500Y-60400000D03*
X219522500Y-60400000D03*
X222602500Y-60000000D03*
X219522500Y-60000000D03*
X222602500Y-59600000D03*
X219522500Y-59600000D03*
X222602500Y-59200000D03*
X219522500Y-59200000D03*
X222602500Y-58800000D03*
X219522500Y-58800000D03*
X222602500Y-58400000D03*
X219522500Y-58400000D03*
X222602500Y-58000000D03*
X219522500Y-58000000D03*
X222602500Y-57600000D03*
X219522500Y-57600000D03*
X188602500Y-77200000D03*
X185522500Y-77200000D03*
X188602500Y-76800000D03*
X185522500Y-76800000D03*
X188602500Y-76400000D03*
X185522500Y-76400000D03*
X188602500Y-76000000D03*
X185522500Y-76000000D03*
X188602500Y-75600000D03*
X185522500Y-75600000D03*
X188602500Y-75200000D03*
X185522500Y-75200000D03*
X188602500Y-74800000D03*
X185522500Y-74800000D03*
X188602500Y-74400000D03*
X185522500Y-74400000D03*
X188602500Y-74000000D03*
X185522500Y-74000000D03*
X188602500Y-73600000D03*
X185522500Y-73600000D03*
X188602500Y-73200000D03*
X185522500Y-73200000D03*
X188602500Y-72800000D03*
X185522500Y-72800000D03*
X188602500Y-72400000D03*
X185522500Y-72400000D03*
X188602500Y-72000000D03*
X185522500Y-72000000D03*
X188602500Y-71600000D03*
X185522500Y-71600000D03*
X188602500Y-71200000D03*
X185522500Y-71200000D03*
X188602500Y-70800000D03*
X185522500Y-70800000D03*
X188602500Y-70400000D03*
X185522500Y-70400000D03*
X188602500Y-70000000D03*
X185522500Y-70000000D03*
X188602500Y-69600000D03*
X185522500Y-69600000D03*
X188602500Y-69200000D03*
X185522500Y-69200000D03*
X188602500Y-68800000D03*
X185522500Y-68800000D03*
X188602500Y-68400000D03*
X185522500Y-68400000D03*
X188602500Y-68000000D03*
X185522500Y-68000000D03*
X188602500Y-67600000D03*
X185522500Y-67600000D03*
X188602500Y-67200000D03*
X185522500Y-67200000D03*
X188602500Y-66800000D03*
X185522500Y-66800000D03*
X188602500Y-66400000D03*
X185522500Y-66400000D03*
X188602500Y-66000000D03*
X185522500Y-66000000D03*
X188602500Y-65600000D03*
X185522500Y-65600000D03*
X188602500Y-65200000D03*
X185522500Y-65200000D03*
X188602500Y-64800000D03*
X185522500Y-64800000D03*
X188602500Y-64400000D03*
X185522500Y-64400000D03*
X188602500Y-64000000D03*
X185522500Y-64000000D03*
X188602500Y-63600000D03*
X185522500Y-63600000D03*
X188602500Y-63200000D03*
X185522500Y-63200000D03*
X188602500Y-62800000D03*
X185522500Y-62800000D03*
X188602500Y-62400000D03*
X185522500Y-62400000D03*
X188602500Y-62000000D03*
X185522500Y-62000000D03*
X188602500Y-61600000D03*
X185522500Y-61600000D03*
X188602500Y-61200000D03*
X185522500Y-61200000D03*
X188602500Y-60800000D03*
X185522500Y-60800000D03*
X188602500Y-60400000D03*
X185522500Y-60400000D03*
X188602500Y-60000000D03*
X185522500Y-60000000D03*
X188602500Y-59600000D03*
X185522500Y-59600000D03*
X188602500Y-59200000D03*
X185522500Y-59200000D03*
X188602500Y-58800000D03*
X185522500Y-58800000D03*
X188602500Y-58400000D03*
X185522500Y-58400000D03*
X188602500Y-58000000D03*
X185522500Y-58000000D03*
X188602500Y-57600000D03*
X185522500Y-57600000D03*
D81*
X220562500Y-45900000D03*
X220562500Y-93900000D03*
X187562500Y-45900000D03*
X187562500Y-93900000D03*
%TD*%
D12*
%TO.C,C24*%
X64500000Y-32425000D03*
X66400000Y-32425000D03*
%TD*%
D10*
%TO.C,R23*%
X68575000Y-92500000D03*
X70400000Y-92500000D03*
%TD*%
D16*
%TO.C,C1*%
X241550000Y-100400000D03*
X239650000Y-100400000D03*
%TD*%
D82*
%TO.C,U10*%
X114775000Y-70925000D03*
X114775000Y-71425000D03*
X114775000Y-71925000D03*
X114775000Y-72425000D03*
X114775000Y-72925000D03*
X114775000Y-73425000D03*
X114775000Y-73925000D03*
X114775000Y-74425000D03*
X114775000Y-74925000D03*
X114775000Y-75425000D03*
X114775000Y-75925000D03*
X114775000Y-76425000D03*
X114775000Y-76925000D03*
X114775000Y-77425000D03*
X114775000Y-77925000D03*
X114775000Y-78425000D03*
X114775000Y-78925000D03*
X114775000Y-79425000D03*
X114775000Y-79925000D03*
X114775000Y-80425000D03*
X114775000Y-80925000D03*
X114775000Y-81425000D03*
X114775000Y-81925000D03*
X114775000Y-82425000D03*
X114775000Y-82925000D03*
D83*
X116450000Y-84600000D03*
X116950000Y-84600000D03*
X117450000Y-84600000D03*
X117950000Y-84600000D03*
X118450000Y-84600000D03*
X118950000Y-84600000D03*
X119450000Y-84600000D03*
X119950000Y-84600000D03*
X120450000Y-84600000D03*
X120950000Y-84600000D03*
X121450000Y-84600000D03*
X121950000Y-84600000D03*
X122450000Y-84600000D03*
X122950000Y-84600000D03*
X123450000Y-84600000D03*
X123950000Y-84600000D03*
X124450000Y-84600000D03*
X124950000Y-84600000D03*
X125450000Y-84600000D03*
X125950000Y-84600000D03*
X126450000Y-84600000D03*
X126950000Y-84600000D03*
X127450000Y-84600000D03*
X127950000Y-84600000D03*
X128450000Y-84600000D03*
D82*
X130125000Y-82925000D03*
X130125000Y-82425000D03*
X130125000Y-81925000D03*
X130125000Y-81425000D03*
X130125000Y-80925000D03*
X130125000Y-80425000D03*
X130125000Y-79925000D03*
X130125000Y-79425000D03*
X130125000Y-78925000D03*
X130125000Y-78425000D03*
X130125000Y-77925000D03*
X130125000Y-77425000D03*
X130125000Y-76925000D03*
X130125000Y-76425000D03*
X130125000Y-75925000D03*
X130125000Y-75425000D03*
X130125000Y-74925000D03*
X130125000Y-74425000D03*
X130125000Y-73925000D03*
X130125000Y-73425000D03*
X130125000Y-72925000D03*
X130125000Y-72425000D03*
X130125000Y-71925000D03*
X130125000Y-71425000D03*
X130125000Y-70925000D03*
D83*
X128450000Y-69250000D03*
X127950000Y-69250000D03*
X127450000Y-69250000D03*
X126950000Y-69250000D03*
X126450000Y-69250000D03*
X125950000Y-69250000D03*
X125450000Y-69250000D03*
X124950000Y-69250000D03*
X124450000Y-69250000D03*
X123950000Y-69250000D03*
X123450000Y-69250000D03*
X122950000Y-69250000D03*
X122450000Y-69250000D03*
X121950000Y-69250000D03*
X121450000Y-69250000D03*
X120950000Y-69250000D03*
X120450000Y-69250000D03*
X119950000Y-69250000D03*
X119450000Y-69250000D03*
X118950000Y-69250000D03*
X118450000Y-69250000D03*
X117950000Y-69250000D03*
X117450000Y-69250000D03*
X116950000Y-69250000D03*
X116450000Y-69250000D03*
%TD*%
D84*
%TO.C,U29*%
X105000000Y-173050000D03*
X104500000Y-173050000D03*
X104000000Y-173050000D03*
X103500000Y-173050000D03*
X103000000Y-173050000D03*
X102500000Y-173050000D03*
X102000000Y-173050000D03*
D85*
X101050000Y-174000000D03*
X101050000Y-174500000D03*
X101050000Y-175000000D03*
X101050000Y-175500000D03*
X101050000Y-176000000D03*
X101050000Y-176500000D03*
X101050000Y-177000000D03*
D84*
X102000000Y-177950000D03*
X102500000Y-177950000D03*
X103000000Y-177950000D03*
X103500000Y-177950000D03*
X104000000Y-177950000D03*
X104500000Y-177950000D03*
X105000000Y-177950000D03*
D85*
X105950000Y-177000000D03*
X105950000Y-176500000D03*
X105950000Y-176000000D03*
X105950000Y-175500000D03*
X105950000Y-175000000D03*
X105950000Y-174500000D03*
X105950000Y-174000000D03*
D86*
X103500000Y-175500000D03*
%TD*%
D28*
%TO.C,Q2*%
X148050000Y-65862500D03*
X146150000Y-65862500D03*
X147100000Y-67737500D03*
%TD*%
D16*
%TO.C,C50*%
X114300000Y-90100000D03*
X112400000Y-90100000D03*
%TD*%
D54*
%TO.C,R6*%
X225600000Y-51825000D03*
X225600000Y-50000000D03*
%TD*%
D36*
%TO.C,H1*%
X78500000Y-152560000D03*
%TD*%
D11*
%TO.C,R13*%
X161232500Y-45760000D03*
X159407500Y-45760000D03*
%TD*%
D87*
%TO.C,J6*%
X241740000Y-80300000D03*
X241740000Y-79650000D03*
X241740000Y-79000000D03*
X241740000Y-78350000D03*
X241740000Y-77700000D03*
D88*
X244400000Y-82375000D03*
D89*
X241825000Y-81487500D03*
D90*
X244400000Y-80150000D03*
D91*
X244400000Y-77450000D03*
D89*
X241825000Y-76512500D03*
D88*
X244400000Y-75625000D03*
%TD*%
D39*
%TO.C,R2*%
X224200000Y-107087500D03*
X224200000Y-108912500D03*
%TD*%
D20*
%TO.C,U15*%
X167940000Y-35225000D03*
D21*
X165400000Y-35225000D03*
X162860000Y-35225000D03*
X160320000Y-35225000D03*
X157780000Y-35225000D03*
X155240000Y-35225000D03*
X152700000Y-35225000D03*
X150160000Y-35225000D03*
X167940000Y-47925000D03*
X165400000Y-47925000D03*
X162860000Y-47925000D03*
X160320000Y-47925000D03*
X157780000Y-47925000D03*
X155240000Y-47925000D03*
X152700000Y-47925000D03*
X150160000Y-47925000D03*
X150160000Y-42845000D03*
X150160000Y-45385000D03*
%TD*%
D16*
%TO.C,C21*%
X117200000Y-65900000D03*
X115300000Y-65900000D03*
%TD*%
D12*
%TO.C,C61*%
X87150000Y-165800000D03*
X89050000Y-165800000D03*
%TD*%
D30*
%TO.C,J16*%
X74000000Y-96375000D03*
D31*
X74000000Y-98915000D03*
X74000000Y-101455000D03*
%TD*%
D12*
%TO.C,C25*%
X64500000Y-30225000D03*
X66400000Y-30225000D03*
%TD*%
%TO.C,C40*%
X149500000Y-32425000D03*
X151400000Y-32425000D03*
%TD*%
D46*
%TO.C,C80*%
X105000000Y-183500000D03*
X100600000Y-183500000D03*
%TD*%
D11*
%TO.C,R30*%
X89612500Y-65100000D03*
X87787500Y-65100000D03*
%TD*%
D54*
%TO.C,R78*%
X97900000Y-186512500D03*
X97900000Y-184687500D03*
%TD*%
D11*
%TO.C,R21*%
X95950000Y-87425000D03*
X94125000Y-87425000D03*
%TD*%
D39*
%TO.C,R73*%
X107250000Y-179837500D03*
X107250000Y-181662500D03*
%TD*%
D11*
%TO.C,R27*%
X157362500Y-109500000D03*
X155537500Y-109500000D03*
%TD*%
D39*
%TO.C,R8*%
X109000000Y-70187500D03*
X109000000Y-72012500D03*
%TD*%
D69*
%TO.C,C52*%
X113550000Y-106200000D03*
X113550000Y-108100000D03*
%TD*%
D11*
%TO.C,R29*%
X117262500Y-107900000D03*
X115437500Y-107900000D03*
%TD*%
D76*
%TO.C,D10*%
X75100000Y-177950000D03*
X75100000Y-180050000D03*
%TD*%
D40*
%TO.C,D6*%
X148250000Y-77000000D03*
X146150000Y-77000000D03*
%TD*%
D10*
%TO.C,R40*%
X79587500Y-159500000D03*
X81412500Y-159500000D03*
%TD*%
D40*
%TO.C,D9*%
X148250000Y-98000000D03*
X146150000Y-98000000D03*
%TD*%
D16*
%TO.C,C12*%
X174000000Y-108400000D03*
X172100000Y-108400000D03*
%TD*%
D92*
%TO.C,J8*%
X242750000Y-63650000D03*
D33*
X242750000Y-66150000D03*
X242750000Y-68650000D03*
X242750000Y-71150000D03*
%TD*%
D36*
%TO.C,H5*%
X58750000Y-119750000D03*
%TD*%
D93*
%TO.C,U5*%
X229575000Y-70400000D03*
X229575000Y-70900000D03*
X229575000Y-71400000D03*
X229575000Y-71900000D03*
X229575000Y-72400000D03*
X233800000Y-72400000D03*
X233800000Y-71900000D03*
X233800000Y-71400000D03*
X233800000Y-70900000D03*
X233800000Y-70400000D03*
%TD*%
D16*
%TO.C,C23*%
X83800000Y-32425000D03*
X81900000Y-32425000D03*
%TD*%
D12*
%TO.C,C41*%
X149500000Y-30235000D03*
X151400000Y-30235000D03*
%TD*%
D40*
%TO.C,D8*%
X148250000Y-91000000D03*
X146150000Y-91000000D03*
%TD*%
D94*
%TO.C,J32*%
X59600000Y-75200000D03*
D95*
X59600000Y-80200000D03*
%TD*%
D12*
%TO.C,C86*%
X66750000Y-65200000D03*
X68650000Y-65200000D03*
%TD*%
D54*
%TO.C,R74*%
X107250000Y-170162500D03*
X107250000Y-168337500D03*
%TD*%
D16*
%TO.C,C35*%
X147400000Y-32425000D03*
X145500000Y-32425000D03*
%TD*%
D22*
%TO.C,C75*%
X98500000Y-181700000D03*
X98500000Y-179800000D03*
%TD*%
D96*
%TO.C,Q1*%
X84760000Y-61300000D03*
D97*
X82480000Y-67600000D03*
D96*
X80200000Y-61300000D03*
%TD*%
D11*
%TO.C,R9*%
X76342500Y-45600000D03*
X74517500Y-45600000D03*
%TD*%
D49*
%TO.C,D15*%
X75350000Y-62200000D03*
X71050000Y-62200000D03*
%TD*%
D12*
%TO.C,C29*%
X85700000Y-30235000D03*
X87600000Y-30235000D03*
%TD*%
D16*
%TO.C,C13*%
X174000000Y-110600000D03*
X172100000Y-110600000D03*
%TD*%
D48*
%TO.C,U28*%
X87750000Y-63137500D03*
X88700000Y-63137500D03*
X89650000Y-63137500D03*
X89650000Y-60862500D03*
X87750000Y-60862500D03*
%TD*%
D12*
%TO.C,C87*%
X66750000Y-69600000D03*
X68650000Y-69600000D03*
%TD*%
D98*
%TO.C,Y2*%
X109200000Y-68300000D03*
X113200000Y-68300000D03*
X113200000Y-65900000D03*
X109200000Y-65900000D03*
%TD*%
D62*
%TO.C,D3*%
X209131300Y-99800000D03*
X207256300Y-99800000D03*
%TD*%
D16*
%TO.C,C51*%
X114300000Y-88000000D03*
X112400000Y-88000000D03*
%TD*%
D39*
%TO.C,R3*%
X225800000Y-57487500D03*
X225800000Y-59312500D03*
%TD*%
D99*
%TO.C,Q7*%
X105325000Y-162775000D03*
D100*
X104400000Y-163750000D03*
D101*
X105365000Y-163750000D03*
D100*
X106250000Y-163750000D03*
%TD*%
D12*
%TO.C,C33*%
X106900000Y-30225000D03*
X108800000Y-30225000D03*
%TD*%
D26*
%TO.C,U8*%
X217275000Y-101700000D03*
X217275000Y-100750000D03*
X217275000Y-99800000D03*
X215000000Y-99800000D03*
X215000000Y-101700000D03*
%TD*%
D41*
%TO.C,SW3*%
X131325000Y-98000000D03*
X123575000Y-98000000D03*
%TD*%
D16*
%TO.C,C54*%
X69400000Y-95000000D03*
X67500000Y-95000000D03*
%TD*%
D29*
%TO.C,C53*%
X59800000Y-106500000D03*
X64200000Y-106500000D03*
%TD*%
D12*
%TO.C,C32*%
X106900000Y-32425000D03*
X108800000Y-32425000D03*
%TD*%
D10*
%TO.C,R28*%
X115437500Y-105700000D03*
X117262500Y-105700000D03*
%TD*%
D102*
%TO.C,J3*%
X220350000Y-113395000D03*
X219850000Y-113395000D03*
X219350000Y-113395000D03*
X218850000Y-113395000D03*
X218350000Y-113395000D03*
X217850000Y-113395000D03*
X217350000Y-113395000D03*
X216850000Y-113395000D03*
X216350000Y-113395000D03*
X215850000Y-113395000D03*
X215350000Y-113395000D03*
X214850000Y-113395000D03*
X214350000Y-113395000D03*
X213850000Y-113395000D03*
X213350000Y-113395000D03*
X212850000Y-113395000D03*
X212350000Y-113395000D03*
X211850000Y-113395000D03*
X211350000Y-113395000D03*
D103*
X223100000Y-114155000D03*
X208600000Y-114155000D03*
D104*
X223100000Y-120115000D03*
X208600000Y-120115000D03*
%TD*%
D16*
%TO.C,C22*%
X107150000Y-65900000D03*
X105250000Y-65900000D03*
%TD*%
D23*
%TO.C,J19*%
X103950000Y-113560000D03*
X94950000Y-113560000D03*
D24*
X100950000Y-117500000D03*
D25*
X97950000Y-117500000D03*
X100950000Y-114500000D03*
X97950000Y-114500000D03*
%TD*%
D98*
%TO.C,Y4*%
X229600000Y-68400000D03*
X233600000Y-68400000D03*
X233600000Y-66000000D03*
X229600000Y-66000000D03*
%TD*%
D105*
%TO.C,U18*%
X124155000Y-104350000D03*
X122885000Y-104350000D03*
X121615000Y-104350000D03*
X120345000Y-104350000D03*
X120345000Y-109300000D03*
X121615000Y-109300000D03*
X122885000Y-109300000D03*
X124155000Y-109300000D03*
%TD*%
D23*
%TO.C,J17*%
X81150000Y-113560000D03*
X72150000Y-113560000D03*
D24*
X78150000Y-117500000D03*
D25*
X75150000Y-117500000D03*
X78150000Y-114500000D03*
X75150000Y-114500000D03*
%TD*%
D10*
%TO.C,R25*%
X72987500Y-93500000D03*
X74812500Y-93500000D03*
%TD*%
D12*
%TO.C,C78*%
X99700000Y-187500000D03*
X101600000Y-187500000D03*
%TD*%
D36*
%TO.C,H3*%
X59000000Y-30250000D03*
%TD*%
D42*
%TO.C,J46*%
X155300000Y-29500000D03*
D43*
X157800000Y-29500000D03*
X160300000Y-29500000D03*
X162800000Y-29500000D03*
%TD*%
D10*
%TO.C,R50*%
X107575000Y-96500000D03*
X109400000Y-96500000D03*
%TD*%
D12*
%TO.C,C36*%
X128100000Y-32425000D03*
X130000000Y-32425000D03*
%TD*%
D54*
%TO.C,R76*%
X97200000Y-161812500D03*
X97200000Y-159987500D03*
%TD*%
D62*
%TO.C,D19*%
X123375000Y-92000000D03*
X121500000Y-92000000D03*
%TD*%
D51*
%TO.C,J15*%
X104950000Y-85500000D03*
D43*
X102450000Y-85500000D03*
X99950000Y-85500000D03*
%TD*%
D12*
%TO.C,C60*%
X107500000Y-98600000D03*
X109400000Y-98600000D03*
%TD*%
%TO.C,C55*%
X114850000Y-101500000D03*
X116750000Y-101500000D03*
%TD*%
D34*
%TO.C,J5*%
X195600000Y-116270000D03*
X196100000Y-116270000D03*
X196600000Y-116270000D03*
X197100000Y-116270000D03*
X197600000Y-116270000D03*
X198100000Y-116270000D03*
X198600000Y-116270000D03*
X199100000Y-116270000D03*
X199600000Y-116270000D03*
X200100000Y-116270000D03*
X200600000Y-116270000D03*
X201100000Y-116270000D03*
X201600000Y-116270000D03*
X202100000Y-116270000D03*
X202600000Y-116270000D03*
D35*
X196600000Y-120340000D03*
X201600000Y-120340000D03*
%TD*%
D26*
%TO.C,U7*%
X185937500Y-106950000D03*
X185937500Y-106000000D03*
X185937500Y-105050000D03*
X183662500Y-105050000D03*
X183662500Y-106950000D03*
%TD*%
D11*
%TO.C,R44*%
X105162500Y-167500000D03*
X103337500Y-167500000D03*
%TD*%
D94*
%TO.C,J37*%
X59600000Y-63400000D03*
D95*
X59600000Y-68400000D03*
%TD*%
D11*
%TO.C,R4*%
X212912500Y-103000000D03*
X211087500Y-103000000D03*
%TD*%
D28*
%TO.C,Q3*%
X148050000Y-72862500D03*
X146150000Y-72862500D03*
X147100000Y-74737500D03*
%TD*%
D39*
%TO.C,R32*%
X144200000Y-72887500D03*
X144200000Y-74712500D03*
%TD*%
D11*
%TO.C,R20*%
X95950000Y-80325000D03*
X94125000Y-80325000D03*
%TD*%
D10*
%TO.C,R45*%
X104087500Y-165500000D03*
X105912500Y-165500000D03*
%TD*%
D14*
%TO.C,J27*%
X154500000Y-75800000D03*
D15*
X152000000Y-75800000D03*
%TD*%
D106*
%TO.C,F1*%
X60900000Y-56400000D03*
X70200000Y-56400000D03*
%TD*%
D69*
%TO.C,C2*%
X228000000Y-57450000D03*
X228000000Y-59350000D03*
%TD*%
M02*
